  0
SECTION
  2
HEADER
  9
$ACADVER
  1
AC1015
  9
$ACADMAINTVER
 70
6
  9
$DWGCODEPAGE
  3
ANSI_1252
  9
$INSBASE
 10
0.0
 20
0.0
 30
0.0
  9
$EXTMIN
 10
1e+20
 20
1e+20
 30
1e+20
  9
$EXTMAX
 10
-1e+20
 20
-1e+20
 30
-1e+20
  9
$LIMMIN
 10
0.0
 20
0.0
  9
$LIMMAX
 10
420.0
 20
297.0
  9
$ORTHOMODE
 70
0
  9
$REGENMODE
 70
1
  9
$FILLMODE
 70
1
  9
$QTEXTMODE
 70
0
  9
$MIRRTEXT
 70
1
  9
$LTSCALE
 40
1.0
  9
$ATTMODE
 70
1
  9
$TEXTSIZE
 40
2.5
  9
$TRACEWID
 40
1.0
  9
$TEXTSTYLE
  7
Standard
  9
$CLAYER
  8
0
  9
$CELTYPE
  6
ByLayer
  9
$CECOLOR
 62
256
  9
$CELTSCALE
 40
1.0
  9
$DISPSILH
 70
0
  9
$DIMSCALE
 40
1.0
  9
$DIMASZ
 40
2.5
  9
$DIMEXO
 40
0.625
  9
$DIMDLI
 40
3.75
  9
$DIMRND
 40
0.0
  9
$DIMDLE
 40
0.0
  9
$DIMEXE
 40
1.25
  9
$DIMTP
 40
0.0
  9
$DIMTM
 40
0.0
  9
$DIMTXT
 40
2.5
  9
$DIMCEN
 40
2.5
  9
$DIMTSZ
 40
0.0
  9
$DIMTOL
 70
0
  9
$DIMLIM
 70
0
  9
$DIMTIH
 70
0
  9
$DIMTOH
 70
0
  9
$DIMSE1
 70
0
  9
$DIMSE2
 70
0
  9
$DIMTAD
 70
1
  9
$DIMZIN
 70
8
  9
$DIMBLK
  1

  9
$DIMASO
 70
1
  9
$DIMSHO
 70
1
  9
$DIMPOST
  1

  9
$DIMAPOST
  1

  9
$DIMALT
 70
0
  9
$DIMALTD
 70
3
  9
$DIMALTF
 40
0.03937007874
  9
$DIMLFAC
 40
1.0
  9
$DIMTOFL
 70
1
  9
$DIMTVP
 40
0.0
  9
$DIMTIX
 70
0
  9
$DIMSOXD
 70
0
  9
$DIMSAH
 70
0
  9
$DIMBLK1
  1

  9
$DIMBLK2
  1

  9
$DIMSTYLE
  2
ISO-25
  9
$DIMCLRD
 70
0
  9
$DIMCLRE
 70
0
  9
$DIMCLRT
 70
0
  9
$DIMTFAC
 40
1.0
  9
$DIMGAP
 40
0.625
  9
$DIMJUST
 70
0
  9
$DIMSD1
 70
0
  9
$DIMSD2
 70
0
  9
$DIMTOLJ
 70
0
  9
$DIMTZIN
 70
8
  9
$DIMALTZ
 70
0
  9
$DIMALTTZ
 70
0
  9
$DIMUPT
 70
0
  9
$DIMDEC
 70
2
  9
$DIMTDEC
 70
2
  9
$DIMALTU
 70
2
  9
$DIMALTTD
 70
3
  9
$DIMTXSTY
  7
Standard
  9
$DIMAUNIT
 70
0
  9
$DIMADEC
 70
0
  9
$DIMALTRND
 40
0.0
  9
$DIMAZIN
 70
0
  9
$DIMDSEP
 70
44
  9
$DIMATFIT
 70
3
  9
$DIMFRAC
 70
0
  9
$DIMLDRBLK
  1

  9
$DIMLUNIT
 70
2
  9
$DIMLWD
 70
-2
  9
$DIMLWE
 70
-2
  9
$DIMTMOVE
 70
0
  9
$LUNITS
 70
2
  9
$LUPREC
 70
4
  9
$SKETCHINC
 40
1.0
  9
$FILLETRAD
 40
10.0
  9
$AUNITS
 70
0
  9
$AUPREC
 70
2
  9
$MENU
  1
.
  9
$ELEVATION
 40
0.0
  9
$PELEVATION
 40
0.0
  9
$THICKNESS
 40
0.0
  9
$LIMCHECK
 70
0
  9
$CHAMFERA
 40
0.0
  9
$CHAMFERB
 40
0.0
  9
$CHAMFERC
 40
0.0
  9
$CHAMFERD
 40
0.0
  9
$SKPOLY
 70
0
  9
$TDCREATE
 40
2461285.573136574
  9
$TDUCREATE
 40
2458532.153996898
  9
$TDUPDATE
 40
2461285.573136574
  9
$TDUUPDATE
 40
2458532.1544311
  9
$TDINDWG
 40
0.0
  9
$TDUSRTIMER
 40
0.0
  9
$USRTIMER
 70
1
  9
$ANGBASE
 50
0.0
  9
$ANGDIR
 70
0
  9
$PDMODE
 70
0
  9
$PDSIZE
 40
0.0
  9
$PLINEWID
 40
0.0
  9
$SPLFRAME
 70
0
  9
$SPLINETYPE
 70
6
  9
$SPLINESEGS
 70
8
  9
$HANDSEED
  5
1C6
  9
$SURFTAB1
 70
6
  9
$SURFTAB2
 70
6
  9
$SURFTYPE
 70
6
  9
$SURFU
 70
6
  9
$SURFV
 70
6
  9
$UCSBASE
  2

  9
$UCSNAME
  2

  9
$UCSORG
 10
0.0
 20
0.0
 30
0.0
  9
$UCSXDIR
 10
1.0
 20
0.0
 30
0.0
  9
$UCSYDIR
 10
0.0
 20
1.0
 30
0.0
  9
$UCSORTHOREF
  2

  9
$UCSORTHOVIEW
 70
0
  9
$UCSORGTOP
 10
0.0
 20
0.0
 30
0.0
  9
$UCSORGBOTTOM
 10
0.0
 20
0.0
 30
0.0
  9
$UCSORGLEFT
 10
0.0
 20
0.0
 30
0.0
  9
$UCSORGRIGHT
 10
0.0
 20
0.0
 30
0.0
  9
$UCSORGFRONT
 10
0.0
 20
0.0
 30
0.0
  9
$UCSORGBACK
 10
0.0
 20
0.0
 30
0.0
  9
$PUCSBASE
  2

  9
$PUCSNAME
  2

  9
$PUCSORG
 10
0.0
 20
0.0
 30
0.0
  9
$PUCSXDIR
 10
1.0
 20
0.0
 30
0.0
  9
$PUCSYDIR
 10
0.0
 20
1.0
 30
0.0
  9
$PUCSORTHOREF
  2

  9
$PUCSORTHOVIEW
 70
0
  9
$PUCSORGTOP
 10
0.0
 20
0.0
 30
0.0
  9
$PUCSORGBOTTOM
 10
0.0
 20
0.0
 30
0.0
  9
$PUCSORGLEFT
 10
0.0
 20
0.0
 30
0.0
  9
$PUCSORGRIGHT
 10
0.0
 20
0.0
 30
0.0
  9
$PUCSORGFRONT
 10
0.0
 20
0.0
 30
0.0
  9
$PUCSORGBACK
 10
0.0
 20
0.0
 30
0.0
  9
$USERI1
 70
0
  9
$USERI2
 70
0
  9
$USERI3
 70
0
  9
$USERI4
 70
0
  9
$USERI5
 70
0
  9
$USERR1
 40
0.0
  9
$USERR2
 40
0.0
  9
$USERR3
 40
0.0
  9
$USERR4
 40
0.0
  9
$USERR5
 40
0.0
  9
$WORLDVIEW
 70
1
  9
$SHADEDGE
 70
3
  9
$SHADEDIF
 70
70
  9
$TILEMODE
 70
1
  9
$MAXACTVP
 70
64
  9
$PINSBASE
 10
0.0
 20
0.0
 30
0.0
  9
$PLIMCHECK
 70
0
  9
$PEXTMIN
 10
1e+20
 20
1e+20
 30
1e+20
  9
$PEXTMAX
 10
-1e+20
 20
-1e+20
 30
-1e+20
  9
$PLIMMIN
 10
0.0
 20
0.0
  9
$PLIMMAX
 10
420.0
 20
297.0
  9
$UNITMODE
 70
0
  9
$VISRETAIN
 70
1
  9
$PLINEGEN
 70
0
  9
$PSLTSCALE
 70
1
  9
$TREEDEPTH
 70
3020
  9
$CMLSTYLE
  2
Standard
  9
$CMLJUST
 70
0
  9
$CMLSCALE
 40
20.0
  9
$PROXYGRAPHICS
 70
1
  9
$MEASUREMENT
 70
1
  9
$CELWEIGHT
370
-1
  9
$ENDCAPS
280
0
  9
$JOINSTYLE
280
0
  9
$LWDISPLAY
290
0
  9
$INSUNITS
 70
4
  9
$HYPERLINKBASE
  1

  9
$STYLESHEET
  1

  9
$XEDIT
290
1
  9
$CEPSNTYPE
380
0
  9
$PSTYLEMODE
290
1
  9
$FINGERPRINTGUID
  2
{94340BA2-5899-43DE-A888-18CF0456688F}
  9
$VERSIONGUID
  2
{22623B96-C3D8-48AE-851C-1DD32C3C3FD2}
  9
$EXTNAMES
290
1
  9
$PSVPSCALE
 40
0.0
  9
$OLESTARTUP
290
0
  0
ENDSEC
  0
SECTION
  2
CLASSES
  0
CLASS
  1
ACDBDICTIONARYWDFLT
  2
AcDbDictionaryWithDefault
  3
ObjectDBX Classes
 90
0
280
0
281
0
  0
CLASS
  1
SUN
  2
AcDbSun
  3
SCENEOE
 90
1153
280
0
281
0
  0
CLASS
  1
VISUALSTYLE
  2
AcDbVisualStyle
  3
ObjectDBX Classes
 90
4095
280
0
281
0
  0
CLASS
  1
MATERIAL
  2
AcDbMaterial
  3
ObjectDBX Classes
 90
1153
280
0
281
0
  0
CLASS
  1
SCALE
  2
AcDbScale
  3
ObjectDBX Classes
 90
1153
280
0
281
0
  0
CLASS
  1
TABLESTYLE
  2
AcDbTableStyle
  3
ObjectDBX Classes
 90
4095
280
0
281
0
  0
CLASS
  1
MLEADERSTYLE
  2
AcDbMLeaderStyle
  3
ACDB_MLEADERSTYLE_CLASS
 90
4095
280
0
281
0
  0
CLASS
  1
DICTIONARYVAR
  2
AcDbDictionaryVar
  3
ObjectDBX Classes
 90
0
280
0
281
0
  0
CLASS
  1
CELLSTYLEMAP
  2
AcDbCellStyleMap
  3
ObjectDBX Classes
 90
1152
280
0
281
0
  0
CLASS
  1
MENTALRAYRENDERSETTINGS
  2
AcDbMentalRayRenderSettings
  3
SCENEOE
 90
1024
280
0
281
0
  0
CLASS
  1
ACDBDETAILVIEWSTYLE
  2
AcDbDetailViewStyle
  3
ObjectDBX Classes
 90
1025
280
0
281
0
  0
CLASS
  1
ACDBSECTIONVIEWSTYLE
  2
AcDbSectionViewStyle
  3
ObjectDBX Classes
 90
1025
280
0
281
0
  0
CLASS
  1
RASTERVARIABLES
  2
AcDbRasterVariables
  3
ISM
 90
0
280
0
281
0
  0
CLASS
  1
ACDBPLACEHOLDER
  2
AcDbPlaceHolder
  3
ObjectDBX Classes
 90
0
280
0
281
0
  0
CLASS
  1
LAYOUT
  2
AcDbLayout
  3
ObjectDBX Classes
 90
0
280
0
281
0
  0
ENDSEC
  0
SECTION
  2
TABLES
  0
TABLE
  2
VPORT
  5
8
330
0
100
AcDbSymbolTable
 70
1
  0
VPORT
  5
23
330
8
100
AcDbSymbolTableRecord
100
AcDbViewportTableRecord
  2
*Active
 70
0
 10
0.0
 20
0.0
 11
1.0
 21
1.0
 12
0.0
 22
0.0
 13
0.0
 23
0.0
 14
0.5
 24
0.5
 15
0.5
 25
0.5
 16
0.0
 26
0.0
 36
1.0
 17
0.0
 27
0.0
 37
0.0
 40
1000.0
 41
1.34
 42
50.0
 43
0.0
 44
0.0
 50
0.0
 51
0.0
 71
0
 72
1000
 73
1
 74
3
 75
0
 76
0
 77
0
 78
0
281
0
 65
0
146
0.0
  0
ENDTAB
  0
TABLE
  2
LTYPE
  5
2
330
0
100
AcDbSymbolTable
 70
3
  0
LTYPE
  5
24
330
2
100
AcDbSymbolTableRecord
100
AcDbLinetypeTableRecord
  2
ByBlock
 70
0
  3

 72
65
 73
0
 40
0.0
  0
LTYPE
  5
25
330
2
100
AcDbSymbolTableRecord
100
AcDbLinetypeTableRecord
  2
ByLayer
 70
0
  3

 72
65
 73
0
 40
0.0
  0
LTYPE
  5
26
330
2
100
AcDbSymbolTableRecord
100
AcDbLinetypeTableRecord
  2
Continuous
 70
0
  3

 72
65
 73
0
 40
0.0
  0
ENDTAB
  0
TABLE
  2
LAYER
  5
1
330
0
100
AcDbSymbolTable
 70
3
  0
LAYER
  5
27
330
1
100
AcDbSymbolTableRecord
100
AcDbLayerTableRecord
  2
0
 70
0
 62
7
  6
Continuous
370
-3
390
13
  0
LAYER
  5
28
330
1
100
AcDbSymbolTableRecord
100
AcDbLayerTableRecord
  2
Defpoints
 70
0
 62
7
  6
Continuous
290
0
370
-3
390
13
  0
LAYER
  5
2F
330
1
100
AcDbSymbolTableRecord
100
AcDbLayerTableRecord
  2
MAP
 70
0
 62
7
  6
CONTINUOUS
370
-3
390
13
  0
ENDTAB
  0
TABLE
  2
STYLE
  5
5
330
0
100
AcDbSymbolTable
 70
1
  0
STYLE
  5
29
330
5
100
AcDbSymbolTableRecord
100
AcDbTextStyleTableRecord
  2
Standard
 70
0
 40
0.0
 41
1.0
 50
0.0
 71
0
 42
2.5
  3
txt
  4

  0
ENDTAB
  0
TABLE
  2
VIEW
  5
7
330
0
100
AcDbSymbolTable
 70
0
  0
ENDTAB
  0
TABLE
  2
UCS
  5
6
330
0
100
AcDbSymbolTable
 70
0
  0
ENDTAB
  0
TABLE
  2
APPID
  5
3
330
0
100
AcDbSymbolTable
 70
3
  0
APPID
  5
2A
330
3
100
AcDbSymbolTableRecord
100
AcDbRegAppTableRecord
  2
ACAD
 70
0
  0
APPID
  5
1C3
330
3
100
AcDbSymbolTableRecord
100
AcDbRegAppTableRecord
  2
HATCHBACKGROUNDCOLOR
 70
0
  0
APPID
  5
1C4
330
3
100
AcDbSymbolTableRecord
100
AcDbRegAppTableRecord
  2
EZDXF
 70
0
  0
ENDTAB
  0
TABLE
  2
DIMSTYLE
  5
4
330
0
100
AcDbSymbolTable
 70
1
100
AcDbDimStyleTable
  0
DIMSTYLE
105
2B
330
4
100
AcDbSymbolTableRecord
100
AcDbDimStyleTableRecord
  2
Standard
 70
0
  3

  4

 40
1.0
 41
2.5
 42
0.625
 43
3.75
 44
1.25
 45
0.0
 46
0.0
 47
0.0
 48
0.0
140
2.5
141
2.5
142
0.0
143
0.03937007874
144
1.0
145
0.0
146
1.0
147
0.625
148
0.0
 71
0
 72
0
 73
0
 74
0
 75
0
 76
0
 77
1
 78
8
 79
3
170
0
171
3
172
1
173
0
174
0
175
0
176
0
177
0
178
0
179
2
271
2
272
2
273
2
274
3
275
0
276
0
277
2
278
44
279
0
280
0
281
0
282
0
283
0
284
8
285
0
286
0
288
0
289
3
371
-2
372
-2
  0
ENDTAB
  0
TABLE
  2
BLOCK_RECORD
  5
9
330
0
100
AcDbSymbolTable
 70
2
  0
BLOCK_RECORD
  5
17
330
9
100
AcDbSymbolTableRecord
100
AcDbBlockTableRecord
  2
*Model_Space
340
1A
  0
BLOCK_RECORD
  5
1B
330
9
100
AcDbSymbolTableRecord
100
AcDbBlockTableRecord
  2
*Paper_Space
340
1E
  0
ENDTAB
  0
ENDSEC
  0
SECTION
  2
BLOCKS
  0
BLOCK
  5
18
330
17
100
AcDbEntity
  8
0
100
AcDbBlockBegin
  2
*Model_Space
 70
0
 10
0.0
 20
0.0
 30
0.0
  3
*Model_Space
  1

  0
ENDBLK
  5
19
330
17
100
AcDbEntity
  8
0
100
AcDbBlockEnd
  0
BLOCK
  5
1C
330
1B
100
AcDbEntity
  8
0
100
AcDbBlockBegin
  2
*Paper_Space
 70
0
 10
0.0
 20
0.0
 30
0.0
  3
*Paper_Space
  1

  0
ENDBLK
  5
1D
330
1B
100
AcDbEntity
  8
0
100
AcDbBlockEnd
  0
ENDSEC
  0
SECTION
  2
ENTITIES
  0
LWPOLYLINE
  5
30
330
17
100
AcDbEntity
  8
MAP
100
AcDbPolyline
 90
9
 70
0
 10
169.33756965268435
 20
908.3523316344201
 10
177.13947032030336
 20
920.6433479616796
 10
184.28171768922522
 20
924.2641236293841
 10
185.74847424648823
 20
924.2464405263063
 10
190.746594327097
 20
921.6868970728124
 10
198.73721304581335
 20
913.7837353119962
 10
201.51385639002018
 20
912.1196924565937
 10
213.75662143624535
 20
899.8738477263499
 10
214.58405389314524
 20
896.7506690086609
  0
LWPOLYLINE
  5
31
330
17
100
AcDbEntity
  8
MAP
100
AcDbPolyline
 90
27
 70
0
 10
169.33756965268435
 20
908.3523316344201
 10
164.5978824801768
 20
907.2066994307719
 10
151.5848555218665
 20
907.1523024587468
 10
147.00642457106935
 20
905.6173632976285
 10
144.17873495084615
 20
904.0518437576716
 10
138.6649781392205
 20
898.52881849026
 10
136.47730141124677
 20
894.2207602923247
 10
133.52180991808183
 20
891.1005515748438
 10
129.29576523164943
 20
888.7148767151018
 10
124.19482793394963
 20
888.8176308781572
 10
115.55898937806893
 20
893.145370827929
 10
107.88319993863105
 20
893.0435906951657
 10
104.49534281229792
 20
889.3855664838529
 10
104.27698818921206
 20
879.9166020541002
 10
101.58428853759733
 20
873.2106194160713
 10
97.97257150131335
 20
869.5213092676399
 10
91.30581454490837
 20
866.7339104434553
 10
87.4720376422963
 20
865.4992589227526
 10
78.00312051176583
 20
865.5715697289792
 10
69.4577580882671
 20
872.2157799274389
 10
66.50987099175997
 20
873.491117089988
 10
63.10096710896434
 20
873.4412262396874
 10
59.51922449683958
 20
871.598110116707
 10
53.971553328151174
 20
866.1089992063582
 10
49.89123007535891
 20
863.3715216851939
 10
40.53291357184216
 20
858.6899562523004
 10
15.035456730086926
 20
857.3050160810795
  0
LWPOLYLINE
  5
32
330
17
100
AcDbEntity
  8
MAP
100
AcDbPolyline
 90
7
 70
0
 10
169.33756965268435
 20
908.3523316344201
 10
169.67304304298568
 20
905.896328172082
 10
172.64451885401948
 20
902.9114784086154
 10
185.63981742161135
 20
898.7846957590157
 10
197.89297122413038
 20
888.689743452961
 10
209.8059193353825
 20
891.132600989462
 10
214.58405389314524
 20
896.7506690086609
  0
LWPOLYLINE
  5
33
330
17
100
AcDbEntity
  8
MAP
100
AcDbPolyline
 90
5
 70
0
 10
214.58405389314524
 20
896.7506690086609
 10
221.379232235958
 20
894.2738765468213
 10
231.35228386220084
 20
886.8812794148071
 10
239.33933780271693
 20
878.928892788398
 10
242.42804419496736
 20
872.3871774945666
  0
LWPOLYLINE
  5
34
330
17
100
AcDbEntity
  8
MAP
100
AcDbPolyline
 90
95
 70
0
 10
242.42804419496736
 20
872.3871774945666
 10
246.71794456399923
 20
872.249492490423
 10
248.92882267184473
 20
871.2903720093635
 10
255.81673114074684
 20
871.3258414626731
 10
259.65160445238337
 20
872.5620589600271
 10
264.4684455118321
 20
875.625364865316
 10
270.4445946357892
 20
875.8898535183
 10
275.05442189550314
 20
877.354050815249
 10
282.47939105399945
 20
882.3928564423763
 10
286.41190143160003
 20
893.7863831804162
 10
289.80109559576124
 20
907.0183096916401
 10
282.05588540345593
 20
917.7035884125206
 10
279.6730154193144
 20
925.3120171696663
 10
282.5718072034016
 20
928.0109957123535
 10
294.61211065674115
 20
928.3153986435129
 10
295.63421056042864
 20
929.4821874453523
 10
296.081949432809
 20
932.7734596223509
 10
299.6157682741509
 20
936.51205256207
 10
306.4526176576218
 20
938.8963952379138
 10
310.62844432522576
 20
943.1561635112514
 10
314.3463173419024
 20
953.7875779067967
 10
314.24159349712517
 20
958.9505472776482
 10
308.58030810417296
 20
969.6463601826732
 10
308.65468130120274
 20
977.4211529317806
 10
311.89932074031117
 20
984.7710420012583
 10
319.99813508107707
 20
990.386202110926
 10
327.2082340586222
 20
991.8694405546054
 10
335.85607337691727
 20
991.7880541800391
 10
346.34018982908674
 20
987.714572470755
 10
353.4094008160699
 20
979.3593906263037
 10
357.26425869719594
 20
968.784717219453
 10
357.1118733287136
 20
965.3870641290979
 10
353.3751868818987
 20
955.6328287844872
 10
347.6036131749884
 20
950.8782070064324
 10
344.54983746806755
 20
946.9272237711363
 10
344.8593413361023
 20
941.8616087082115
 10
352.30490758204695
 20
935.192637612638
 10
353.6831415261591
 20
932.2859807383679
 10
353.7043590169697
 20
929.7696433316607
 10
352.85887767961907
 20
928.478919126013
 10
351.294581490837
 20
928.0871983984165
 10
345.6871951700554
 20
929.2178685843572
 10
338.82255522217764
 20
929.0410499234832
 10
337.742814453577
 20
927.9182733767959
 10
337.5658975404596
 20
926.2567632379101
 10
338.27912893102916
 20
923.9943743580924
 10
341.326361021008
 20
923.0016553537946
 10
343.05910488322746
 20
921.1982873524117
 10
343.5163922124457
 20
914.4326171957617
 10
348.4455613366473
 20
910.1985406338757
 10
349.0997107154478
 20
907.9108519783103
 10
346.42218572998615
 20
904.995419930289
 10
336.94974987437826
 20
904.7761775977694
 10
334.0248187133891
 20
903.4420495506056
 10
327.83636191049965
 20
897.4364525044682
 10
319.13935114991745
 20
880.1736017612053
 10
317.90440572723315
 20
876.3382015389882
 10
317.8580671874218
 20
867.6794518539848
 10
319.4261972385881
 20
863.9820612236592
 10
323.7081624238383
 20
859.8300046916103
 10
330.50027911244285
 20
859.8141453440663
 10
338.7107776849513
 20
865.1788579115662
 10
344.68497069975064
 20
865.4042908084135
 10
349.95854312572743
 20
863.444790308269
 10
352.4371159743602
 20
858.5570864701419
 10
349.10277136563974
 20
854.0131877350443
 10
346.156505204481
 20
852.7305738152136
 10
340.1619307755226
 20
852.5105677834546
 10
333.233263701588
 20
846.1501243586786
 10
326.04516988418004
 20
842.5148766276957
 10
322.7524768407958
 20
842.0686043047338
 10
319.87003072608593
 20
840.6319082826444
 10
316.9299584347284
 20
837.5857579464772
 10
316.70073674125337
 20
831.6132690303338
 10
318.3210183563008
 20
827.9374802850667
 10
322.3441150906029
 20
822.6488113310199
 10
327.9006615635069
 20
817.1924688762443
 10
331.5720880840305
 20
815.5616559190587
 10
335.8686697923919
 20
815.6379601617534
 10
339.7035419900949
 20
816.874180348381
 10
348.42159718211946
 20
825.2113111038888
 10
352.4998768177726
 20
827.9587778838925
 10
363.16749141757003
 20
831.5892558765031
 10
371.5788618134168
 20
831.2914639075333
 10
374.49066422389114
 20
828.2194891990936
 10
374.6619775190102
 20
825.703006827041
 10
371.92865983316824
 20
819.8801054935933
 10
363.5232086249121
 20
811.1903495596845
 10
361.9673648332519
 20
806.618483521024
 10
361.80517382519645
 20
799.7305750521218
 10
360.1056522100869
 20
795.2546788031573
 10
351.310786380627
 20
791.3510858646122
 10
346.2087700511988
 20
791.0751380950193
 10
338.57649946762854
 20
788.512227936997
 10
332.92101267588913
 20
785.3747078013726
  0
LWPOLYLINE
  5
35
330
17
100
AcDbEntity
  8
MAP
100
AcDbPolyline
 90
14
 70
0
 10
242.42804419496736
 20
872.3871774945666
 10
239.136001532515
 20
867.6866123339837
 10
233.45284702616584
 20
855.3133725864632
 10
229.17138148639089
 20
851.0414330762085
 10
224.69553549964053
 20
849.3477358214411
 10
219.61970690810463
 20
851.4554520583793
 10
209.73425241580293
 20
850.367025497319
 10
204.59629633985054
 20
852.6031130798275
 10
196.05065221256427
 20
852.8866900198759
 10
188.68276394288708
 20
856.0136211245288
 10
182.8779705265374
 20
855.6498786810538
 10
175.79046776481155
 20
849.8022266414712
 10
165.07492784705408
 20
834.3156058573461
 10
163.53673833980474
 20
830.6211920418334
  0
LWPOLYLINE
  5
36
330
17
100
AcDbEntity
  8
MAP
100
AcDbPolyline
 90
11
 70
0
 10
15.035456730086926
 20
857.3050160810795
 10
9.495670207572505
 20
858.4556760437222
 10
5.76177055614849
 20
857.0816190875541
 10
2.7387746085859384
 20
854.1660700457937
 10
0.0
 20
848.4156186732309
 10
0.051151195350311866
 20
841.5906086589356
 10
1.6727756763662125
 20
837.0986407922569
 10
5.294823961043348
 20
833.4839929336423
 10
8.119639696618426
 20
831.9929052426755
 10
11.399444486787106
 20
831.9588046293438
 10
12.715124204935083
 20
832.9415245669852
  0
LWPOLYLINE
  5
37
330
17
100
AcDbEntity
  8
MAP
100
AcDbPolyline
 90
3
 70
0
 10
15.035456730086926
 20
857.3050160810795
 10
11.571213830247373
 20
846.8689830919654
 10
12.715124204935083
 20
832.9415245669852
  0
LWPOLYLINE
  5
38
330
17
100
AcDbEntity
  8
MAP
100
AcDbPolyline
 90
17
 70
0
 10
12.715124204935083
 20
832.9415245669852
 10
21.697957679311
 20
825.2575199546543
 10
28.410402931320565
 20
822.5817715235733
 10
33.51120747626569
 20
822.6912032360563
 10
42.97095172413477
 20
827.1259517470704
 10
54.25695892687696
 20
827.1296750442411
 10
57.30075941878064
 20
826.0864928973219
 10
62.465142286452455
 20
825.9939877887633
 10
69.34012598830978
 20
828.277333689815
 10
84.10210537646184
 20
828.2987982434654
 10
86.4349907803861
 20
827.6372068933584
 10
92.65046580128335
 20
821.6637745463223
 10
96.45059010954895
 20
820.3486279705023
 10
105.45897331543311
 20
819.0199807982167
 10
119.35631321348203
 20
819.0341978736769
 10
122.39096669284338
 20
820.0994628623309
 10
127.57158419995122
 20
820.1796956786501
  0
LWPOLYLINE
  5
39
330
17
100
AcDbEntity
  8
MAP
100
AcDbPolyline
 90
5
 70
0
 10
163.53673833980474
 20
830.6211920418334
 10
139.27790870800519
 20
831.5958195649705
 10
135.83107795697154
 20
829.5876015757337
 10
129.784233399472
 20
823.5418482498118
 10
127.57158419995122
 20
820.1796956786501
  0
LWPOLYLINE
  5
3A
330
17
100
AcDbEntity
  8
MAP
100
AcDbPolyline
 90
55
 70
0
 10
163.53673833980474
 20
830.6211920418334
 10
164.57038882879363
 20
828.4402907658249
 10
176.8723912013713
 20
816.1665039656459
 10
182.6483749199593
 20
813.3142578678642
 10
189.0857986843598
 20
812.0588692993798
 10
203.86620852451043
 20
812.0681251837246
 10
207.74379772738533
 20
813.2047369453594
 10
218.16578519705936
 20
813.1985062663348
 10
224.96263124858785
 20
810.7112586387483
 10
227.21417844469036
 20
808.3116276391685
 10
228.31683052992054
 20
806.1593275616316
 10
228.48839292128443
 20
802.7663064741923
 10
226.43011310111
 20
798.4014315949711
 10
215.37301940216153
 20
793.6292772625162
 10
208.94237453898432
 20
792.3575229787605
 10
204.64657127378047
 20
792.4408414752808
 10
196.082055957151
 20
794.859740892681
 10
188.18296124606968
 20
798.885107760678
 10
180.6143746424925
 20
801.6088037433805
 10
173.80890306222437
 20
801.2584246716754
 10
168.40373494463168
 20
795.7810952032147
 10
168.24679743142812
 20
787.2068103363603
 10
171.62190577552747
 20
780.7777254095105
 10
192.29520991253526
 20
761.4119612939288
 10
200.34812764752635
 20
755.6583680155547
 10
207.06357586675972
 20
752.9746199724651
 10
213.40945842776594
 20
754.2818916660343
 10
218.43133103081698
 20
756.8551350055762
 10
227.69718750301374
 20
765.9791992569768
 10
231.26900632825493
 20
767.8540060112667
 10
239.85102978375554
 20
767.8133787240205
 10
247.15364821031616
 20
762.3479907202999
 10
253.13138960605338
 20
760.0285969963068
 10
258.909100005145
 20
762.5673275085179
 10
260.66635545300056
 20
764.3564007421887
 10
263.0826498350363
 20
770.3129553461604
 10
263.18751441618315
 20
774.5155788303499
 10
258.32651679596677
 20
789.0259666862408
 10
251.8962006761588
 20
802.886321535918
 10
249.61216195035306
 20
809.7673422961582
 10
249.38932816565966
 20
816.6322269983154
 10
252.1131628324457
 20
825.0704339990037
 10
258.1754679409524
 20
831.2132289807746
 10
261.02854803714575
 20
832.7236364816292
 10
266.55538895669764
 20
834.077778462906
 10
270.8566331742981
 20
834.0117851168991
 10
280.6738507905103
 20
830.4180004989569
 10
288.5829313710936
 20
822.5305078927173
 10
294.8493987189038
 20
808.6022846595006
 10
299.6075194421805
 20
803.6294585490808
 10
304.0665230156697
 20
801.7969172054364
 10
313.0067982084112
 20
800.2851823771416
 10
318.0488009453113
 20
797.7605374797506
 10
326.7643670862164
 20
791.5071309291138
 10
332.92101267588913
 20
785.3747078013726
  0
LWPOLYLINE
  5
3B
330
17
100
AcDbEntity
  8
MAP
100
AcDbPolyline
 90
46
 70
0
 10
127.57158419995122
 20
820.1796956786501
 10
135.90187392177987
 20
813.0083961133663
 10
155.56206293431538
 20
793.33539765187
 10
160.02205656941655
 20
785.6288408621563
 10
159.69746806335985
 20
784.0448041300714
 10
157.36494200687847
 20
781.5487977319827
 10
151.7658720078526
 20
780.3756264655738
 10
145.59509455464283
 20
774.3496079847787
 10
140.59591506244325
 20
766.8581719405926
 10
135.9128143559783
 20
757.49723650556
 10
134.66359901997438
 20
753.6682402625153
 10
134.74127152856295
 20
749.4625133306633
 10
136.25031160598365
 20
746.610427654862
 10
139.88286106219832
 20
742.899699547192
 10
145.27054726554312
 20
739.117556655136
 10
153.8326092233503
 20
736.7030967638285
 10
158.1352442772807
 20
736.5973466687308
 10
165.2482622288218
 20
734.8818770835157
 10
171.13597417725623
 20
727.7903053789726
 10
173.97280243809112
 20
721.141769399158
 10
173.41237895644102
 20
715.3122358440905
 10
170.6249752345926
 20
713.7618593081537
 10
168.15589700057842
 20
713.4626589304314
 10
148.97160739503775
 20
723.8104654033
 10
139.50020161874647
 20
723.7422166545343
 10
136.90544755762383
 20
721.6155358965773
 10
135.717238262284
 20
719.4998489621471
 10
135.89465220705125
 20
713.5086111417673
 10
141.45932182412983
 20
701.9174038413688
 10
140.1324999990665
 20
697.2672122452673
 10
134.62911934905256
 20
687.376760252287
 10
134.65568222037766
 20
681.3827238498519
 10
139.27240202806038
 20
676.5115773485725
 10
144.37340410658774
 20
676.4035484857113
 10
150.15429616524077
 20
679.2364084690774
 10
155.13038726163467
 20
684.0122298505404
 10
158.0131950088375
 20
685.4471002865198
 10
169.2443381515054
 20
685.5856982589298
 10
172.97562413946045
 20
684.1005894999053
 10
179.1473773209942
 20
678.0708074133743
 10
180.82264002373643
 20
673.5489981323375
 10
180.89317676317216
 20
670.1392185025186
 10
176.17874406283715
 20
654.7062477557241
 10
170.52010905738953
 20
640.53366604484
 10
170.655535252414
 20
633.6539948452579
 10
172.8180684404121
 20
631.072594878775
  0
LWPOLYLINE
  5
3C
330
17
100
AcDbEntity
  8
MAP
100
AcDbPolyline
 90
65
 70
0
 10
332.92101267588913
 20
785.3747078013726
 10
328.045009109991
 20
769.1405969678591
 10
326.53421778995875
 20
766.2894695766867
 10
323.39379915681656
 20
763.4682243664041
 10
315.78392599741005
 20
760.855029016147
 10
311.66689433150634
 20
758.2033900969101
 10
306.11019395949967
 20
752.7501528737097
 10
304.0929705446194
 20
749.239567113183
 10
302.77658290193716
 20
743.700226847893
 10
302.930884521123
 20
736.8267853242827
 10
304.2598104497724
 20
733.0405411294215
 10
307.64584450070953
 20
731.0068577014115
 10
312.17897216382175
 20
732.3352058726593
 10
323.1093263486706
 20
744.1778769402204
 10
329.72998246833663
 20
747.0793121966069
 10
336.13528112442356
 20
745.7734096376151
 10
355.393639195457
 20
735.6075521647261
 10
359.2283715703108
 20
734.3728879023515
 10
364.30930044388265
 20
734.6064818014637
 10
367.77863717451146
 20
736.7110636263603
 10
370.0189984276093
 20
740.9972468489023
 10
369.9110854262423
 20
744.4068206999319
 10
364.258253765132
 20
754.2340669125839
 10
364.6798045353336
 20
756.6570650062439
 10
368.50499706366423
 20
759.8042607203871
 10
382.39096148764895
 20
759.845436024615
 10
386.26631324184547
 20
758.708835618745
 10
390.55048451527654
 20
758.8225546834786
 10
398.16065862982634
 20
761.4350234637473
 10
405.5237834888809
 20
766.74242734117
 10
416.7946023340319
 20
766.8112609326333
 10
423.51799061515385
 20
764.1774837307782
 10
425.571032952604
 20
759.1489262785702
 10
422.14622995430153
 20
752.7949855447217
 10
411.31837639309606
 20
745.3616761528195
 10
404.053478975225
 20
737.9831604093714
 10
401.2608347440496
 20
720.8860938841193
 10
398.8456498612329
 20
715.8018903379912
 10
395.9053448676725
 20
712.750124317561
 10
390.49255368257235
 20
711.1300221436625
 10
385.95161010858834
 20
712.7481388653464
 10
375.5374610318023
 20
723.7385338717952
 10
368.7727039310962
 20
723.5767827648785
 10
365.92665545268517
 20
722.0537298647757
 10
362.335691523197
 20
718.3450054071614
 10
358.45771719611895
 20
708.6513326189745
 10
358.609528272356
 20
697.4250407529273
 10
361.6639923585047
 20
692.6056353229623
 10
363.8481017074433
 20
686.7317514368328
 10
361.6215055500365
 20
680.8541557673625
 10
358.63829500005727
 20
677.8438567254836
 10
355.73931249708136
 20
676.4485978653963
 10
340.868829322639
 20
672.4775167788688
 10
337.63671336024504
 20
668.7108882754911
 10
338.2223564222963
 20
662.9310252488444
 10
345.2911834084344
 20
656.9618483649289
 10
353.6565024245881
 20
648.2729322221163
 10
354.8008894645625
 20
645.3760766070826
 10
352.33223190386997
 20
641.2252736343016
 10
348.77446445056273
 20
639.3232939104911
 10
343.21856789638196
 20
638.0468766849915
 10
323.25165800896866
 20
637.9856363527049
 10
320.2274629583926
 20
636.8926673232132
 10
302.8568561339781
 20
636.8589132260946
 10
298.11602479861153
 20
635.7132599290787
  0
LWPOLYLINE
  5
3D
330
17
100
AcDbEntity
  8
MAP
100
AcDbPolyline
 90
11
 70
0
 10
616.2916223100578
 20
717.5049814406811
 10
613.0000982529781
 20
723.3034522464591
 10
607.245590397385
 20
726.1293234686947
 10
600.3671149291285
 20
726.123585185228
 10
593.6618166786557
 20
723.4502431150345
 10
587.5428668033909
 20
717.3855442904699
 10
583.5374440884701
 20
707.7597306679686
 10
583.5715106394914
 20
702.5824178780335
 10
584.8458200675609
 20
699.6379748205958
 10
587.211870790299
 20
697.3692041719684
 10
590.4779229677436
 20
696.6219887143146
  0
LWPOLYLINE
  5
3E
330
17
100
AcDbEntity
  8
MAP
100
AcDbPolyline
 90
8
 70
0
 10
616.2916223100578
 20
717.5049814406811
 10
613.3717979711301
 20
719.1367362569309
 10
604.0329107636454
 20
719.2055577644417
 10
599.5370049547205
 20
717.6968816516776
 10
595.5353084452748
 20
714.9950787454602
 10
593.2147514062584
 20
712.5577569773934
 10
590.7032615267922
 20
707.6237602451611
 10
590.4779229677436
 20
696.6219887143146
  0
LWPOLYLINE
  5
3F
330
17
100
AcDbEntity
  8
MAP
100
AcDbPolyline
 90
8
 70
0
 10
616.2916223100578
 20
717.5049814406811
 10
614.7446877129865
 20
714.7952083886254
 10
609.3753957847433
 20
713.3074330518716
 10
602.5177744183061
 20
709.2144587896757
 10
596.5948970782918
 20
703.1308964313166
 10
594.0762956968197
 20
697.332521667023
 10
592.8059143909467
 20
696.2989185533315
 10
590.4779229677436
 20
696.6219887143146
  0
LWPOLYLINE
  5
40
330
17
100
AcDbEntity
  8
MAP
100
AcDbPolyline
 90
22
 70
0
 10
616.2916223100578
 20
717.5049814406811
 10
619.1361477155272
 20
715.8001854615127
 10
649.4593673852133
 20
715.5923403312565
 10
655.429596266218
 20
713.2261404420536
 10
661.0268400498136
 20
707.8636461037541
 10
664.5853679567218
 20
701.5185030376805
 10
664.8603618351517
 20
696.4196535068971
 10
665.88137196891
 20
693.3673992684211
 10
665.9213169793117
 20
679.4832631006822
 10
667.212342891456
 20
673.0676825764692
 10
669.7196261326816
 20
668.0246849540973
 10
676.9867787207023
 20
660.6502841053322
 10
694.3534722148198
 20
650.1409178717945
 10
701.1004351246098
 20
643.3986538104598
 10
702.8611386053977
 20
638.9152053467211
 10
703.0791313902896
 20
632.9239525691243
 10
704.6701845164121
 20
628.3702326276217
 10
713.2381335932471
 20
619.8519112907657
 10
727.17020035502
 20
611.539563526862
 10
729.5342629363812
 20
607.3686447916293
 10
728.893053938441
 20
606.0477883651386
 10
727.3775419517023
 20
605.5489371021048
  0
LWPOLYLINE
  5
41
330
17
100
AcDbEntity
  8
MAP
100
AcDbPolyline
 90
16
 70
0
 10
590.4779229677436
 20
696.6219887143146
 10
590.290384777748
 20
688.0259852122803
 10
586.6930957895096
 20
677.3728729896732
 10
582.5365317888296
 20
669.5535253714539
 10
577.5457312155203
 20
664.8724450402962
 10
555.9655970522062
 20
654.1511183347591
 10
551.2146553003882
 20
650.9628178472734
 10
547.7412935858147
 20
647.2061009679006
 10
544.9498313098694
 20
634.4844675193807
 10
541.0013935679983
 20
625.7115427456973
 10
537.9488814776539
 20
622.6521330817734
 10
530.4928003663439
 20
617.6185661533568
 10
515.9242732801216
 20
610.9098489750877
 10
508.81932383481234
 20
605.0715726046833
 10
505.85338727941377
 20
600.2285246964121
 10
505.78578579970133
 20
577.7049468002828
  0
LWPOLYLINE
  5
42
330
17
100
AcDbEntity
  8
MAP
100
AcDbPolyline
 90
6
 70
0
 10
298.11602479861153
 20
635.7132599290787
 10
296.80415099472447
 20
636.6956469440084
 10
294.31612498653055
 20
636.8426248081382
 10
291.3402917035873
 20
635.7351773620296
 10
279.33784807893534
 20
635.6904927902492
 10
277.23303207224495
 20
634.5530936665028
  0
LWPOLYLINE
  5
43
330
17
100
AcDbEntity
  8
MAP
100
AcDbPolyline
 90
3
 70
0
 10
298.11602479861153
 20
635.7132599290787
 10
296.6807575914695
 20
632.1561966486893
 10
288.83469469800417
 20
622.9514310407436
  0
LWPOLYLINE
  5
44
330
17
100
AcDbEntity
  8
MAP
100
AcDbPolyline
 90
10
 70
0
 10
277.23303207224495
 20
634.5530936665028
 10
274.22197299003847
 20
635.648702201175
 10
267.31992478164113
 20
635.7109396337651
 10
263.4595947596787
 20
634.5744154679708
 10
248.78161534913255
 20
634.4591625449672
 10
243.7094529725542
 20
632.065786380988
 10
237.69447763171638
 20
627.7660879580845
 10
227.9121002679914
 20
624.1967543857055
 10
213.23102164253078
 20
624.1341633623903
 10
211.10355510541748
 20
625.2717635658954
  0
LWPOLYLINE
  5
45
330
17
100
AcDbEntity
  8
MAP
100
AcDbPolyline
 90
4
 70
0
 10
277.23303207224495
 20
634.5530936665028
 10
281.24555833120405
 20
629.3804011449678
 10
286.6864946435253
 20
623.9529558084574
 10
288.83469469800417
 20
622.9514310407436
  0
LWPOLYLINE
  5
46
330
17
100
AcDbEntity
  8
MAP
100
AcDbPolyline
 90
4
 70
0
 10
216.9043864182971
 20
632.232761141351
 10
215.58406150259157
 20
631.2496339821475
 10
211.55258446257216
 20
630.8638438219037
 10
211.10355510541748
 20
625.2717635658954
  0
LWPOLYLINE
  5
47
330
17
100
AcDbEntity
  8
MAP
100
AcDbPolyline
 90
3
 70
0
 10
172.8180684404121
 20
631.072594878775
 10
179.8791386995684
 20
629.5931110738984
 10
180.93923227844354
 20
627.5920960910473
  0
LWPOLYLINE
  5
48
330
17
100
AcDbEntity
  8
MAP
100
AcDbPolyline
 90
5
 70
0
 10
172.8180684404121
 20
631.072594878775
 10
172.98192488011875
 20
627.791158189561
 10
173.98544725356768
 20
626.6720501231844
 10
178.89755202548704
 20
626.4552574540488
 10
180.93923227844354
 20
627.5920960910473
  0
LWPOLYLINE
  5
49
330
17
100
AcDbEntity
  8
MAP
100
AcDbPolyline
 90
4
 70
0
 10
180.93923227844354
 20
627.5920960910473
 10
197.34359779924023
 20
631.0517265012561
 10
207.77572058819658
 20
625.4481050780163
 10
211.10355510541748
 20
625.2717635658954
  0
LWPOLYLINE
  5
4A
330
17
100
AcDbEntity
  8
MAP
100
AcDbPolyline
 90
6
 70
0
 10
288.83469469800417
 20
622.9514310407436
 10
289.97234929458943
 20
617.3343886552321
 10
290.0381154522418
 20
608.6640951058009
 10
293.71395392907
 20
596.2706216017947
 10
295.60358202889967
 20
592.7045637966473
 10
295.7956922734597
 20
585.8261106383142
  0
LWPOLYLINE
  5
4B
330
17
100
AcDbEntity
  8
MAP
100
AcDbPolyline
 90
3
 70
0
 10
725.0572094265503
 20
609.0294358898326
 10
725.0572094265503
 20
607.8692696272567
 10
727.3775419517023
 20
605.5489371021048
  0
LWPOLYLINE
  5
4C
330
17
100
AcDbEntity
  8
MAP
100
AcDbPolyline
 90
25
 70
0
 10
727.3775419517023
 20
605.5489371021048
 10
727.2414466577478
 20
601.2650259751204
 10
724.7844825213334
 20
596.2063367417655
 10
720.5850781709225
 20
591.9739202429046
 10
706.6046085854808
 20
583.8122729775363
 10
684.8576627398176
 20
573.4438147580003
 10
680.0875842980606
 20
568.4908557462907
 10
677.682607262389
 20
562.5425760220368
 10
677.2993659087416
 20
559.2290928735672
 10
674.7330836678495
 20
554.2292260970481
 10
671.272864174068
 20
552.3046241276624
 10
657.4486933889509
 20
552.2142425590799
 10
654.434510779041
 20
553.3200593321438
 10
625.4156064906244
 20
554.5151541635485
 10
621.5461058496242
 20
555.6517248731554
 10
611.1432566451183
 20
555.6851171644472
 10
608.1318839422714
 20
556.7977176532514
 10
598.6004315551671
 20
556.8391736319783
 10
594.730930914167
 20
557.975744341585
 10
583.456683095274
 20
558.0010686071346
 10
580.4363669315937
 20
559.0920776715008
 10
567.4415206606816
 20
559.154858473476
 10
563.5720200196813
 20
560.2914291830829
 10
553.6978466377126
 20
559.0037479080453
 10
544.0712724647067
 20
554.5016215487643
  0
LWPOLYLINE
  5
4D
330
17
100
AcDbEntity
  8
MAP
100
AcDbPolyline
 90
20
 70
0
 10
295.7956922734597
 20
585.8261106383142
 10
291.72764193867914
 20
585.197811277036
 10
290.158719043863
 20
583.2747441479585
 10
290.4150933683446
 20
580.9191266851633
 10
296.4473680904683
 20
574.8002726555488
 10
311.58524237285013
 20
565.3669002267924
 10
317.0827367523508
 20
559.8697608193671
 10
318.5575519840479
 20
555.5224020804012
 10
316.61881519821577
 20
552.1315715667135
 10
314.47438993531523
 20
551.041514536888
 10
311.08902629217
 20
551.1876372237537
 10
277.8832190836665
 20
567.1605432947092
 10
273.7111507040655
 20
566.988761155795
 10
271.89774702098345
 20
565.2794644350789
 10
271.43290824897883
 20
562.8749656602511
 10
272.08597108318844
 20
559.6832402235326
 10
281.2199016332853
 20
550.4812028524593
 10
292.98732538103525
 20
536.3101242816794
 10
294.5702667385165
 20
531.7716259473104
 10
294.6355260108838
 20
516.216134883759
  0
LWPOLYLINE
  5
4E
330
17
100
AcDbEntity
  8
MAP
100
AcDbPolyline
 90
5
 70
0
 10
295.7956922734597
 20
585.8261106383142
 10
299.1834800511633
 20
585.6328056958556
 10
315.6209981313162
 20
575.0835959257195
 10
320.02576577456745
 20
571.0663864609521
 10
327.1201813630095
 20
567.2634504370994
  0
LWPOLYLINE
  5
4F
330
17
100
AcDbEntity
  8
MAP
100
AcDbPolyline
 90
13
 70
0
 10
438.49614257029793
 20
580.0252793254346
 10
432.56780134918625
 20
584.480880423455
 10
427.06955637067017
 20
585.8041850642746
 10
405.51345543694185
 20
585.8961618281949
 10
397.90599879956653
 20
588.3833400350821
 10
389.75460546517616
 20
593.7279795301644
 10
382.58197591501414
 20
597.2649231882893
 10
374.49255023103785
 20
598.5873538670696
 10
366.1621013252134
 20
595.7603130805626
 10
358.80301465174915
 20
588.5039956913755
 10
357.3911739042304
 20
586.4974954020967
 10
355.9474270044513
 20
580.1868908064225
 10
354.96417166483167
 20
578.8651130628587
  0
LWPOLYLINE
  5
50
330
17
100
AcDbEntity
  8
MAP
100
AcDbPolyline
 90
9
 70
0
 10
438.49614257029793
 20
580.0252793254346
 10
443.2266104315282
 20
581.1707415652346
 10
451.8571069297402
 20
581.0929747955296
 10
463.05597313877576
 20
576.7148747137045
 10
468.58539163745445
 20
575.403946287374
 10
472.86547261825143
 20
575.5037709666195
 10
475.90803110705326
 20
576.5355996031424
 10
501.92617068573253
 20
576.5513636983396
 10
505.78578579970133
 20
577.7049468002828
  0
LWPOLYLINE
  5
51
330
17
100
AcDbEntity
  8
MAP
100
AcDbPolyline
 90
2
 70
0
 10
438.49614257029793
 20
580.0252793254346
 10
438.49614257029793
 20
573.064281749979
  0
LWPOLYLINE
  5
52
330
17
100
AcDbEntity
  8
MAP
100
AcDbPolyline
 90
5
 70
0
 10
354.96417166483167
 20
578.8651130628587
 10
340.1193717177493
 20
571.1435505704765
 10
335.5944725290223
 20
569.6218864587453
 10
329.6635726278094
 20
569.4203188188828
 10
327.1201813630095
 20
567.2634504370994
  0
LWPOLYLINE
  5
53
330
17
100
AcDbEntity
  8
MAP
100
AcDbPolyline
 90
3
 70
0
 10
354.96417166483167
 20
578.8651130628587
 10
359.01889262760704
 20
571.3838087502527
 10
361.9251692402872
 20
568.4236166996753
  0
LWPOLYLINE
  5
54
330
17
100
AcDbEntity
  8
MAP
100
AcDbPolyline
 90
3
 70
0
 10
505.78578579970133
 20
577.7049468002828
 10
509.3552866674724
 20
576.2482183780769
 10
515.0671159003086
 20
571.9041154874031
  0
LWPOLYLINE
  5
55
330
17
100
AcDbEntity
  8
MAP
100
AcDbPolyline
 90
4
 70
0
 10
438.49614257029793
 20
573.064281749979
 10
430.56321788039173
 20
569.4349577473764
 10
426.72396719796023
 20
566.2776751533844
 10
419.9334823690832
 20
566.1032841745235
  0
LWPOLYLINE
  5
56
330
17
100
AcDbEntity
  8
MAP
100
AcDbPolyline
 90
5
 70
0
 10
438.49614257029793
 20
573.064281749979
 10
441.93751019499615
 20
567.6222750376734
 10
442.01867477859014
 20
559.9299931714692
 10
443.1164098101888
 20
556.9509967451185
 10
442.55672448931364
 20
552.7613721549004
  0
LWPOLYLINE
  5
57
330
17
100
AcDbEntity
  8
MAP
100
AcDbPolyline
 90
9
 70
0
 10
361.9251692402872
 20
568.4236166996753
 10
368.719048309617
 20
568.5976988290021
 10
378.1333828579171
 20
572.8054150011695
 10
383.9397504429295
 20
572.8369973909768
 10
386.9665113017126
 20
569.9493619582001
 10
387.43206335686915
 20
568.4257033713708
 10
387.3262715230876
 20
564.1921698492737
 10
385.25281653504555
 20
559.9015333400931
 10
385.12849449180555
 20
555.6617878113402
  0
LWPOLYLINE
  5
58
330
17
100
AcDbEntity
  8
MAP
100
AcDbPolyline
 90
8
 70
0
 10
361.9251692402872
 20
568.4236166996753
 10
359.6378743899644
 20
562.5197449981495
 10
360.1365924825809
 20
561.0207166155726
 10
363.1951414539795
 20
558.1696654761888
 10
367.3554062183899
 20
558.1129353531804
 10
374.13621212790383
 20
560.2085412988522
 10
379.24380605859665
 20
555.9618720687101
 10
385.12849449180555
 20
555.6617878113402
  0
LWPOLYLINE
  5
59
330
17
100
AcDbEntity
  8
MAP
100
AcDbPolyline
 90
6
 70
0
 10
327.1201813630095
 20
567.2634504370994
 10
329.9969231955527
 20
563.2613729972792
 10
335.5417582605359
 20
559.8639630782371
 10
339.24418215480483
 20
556.2643744933237
 10
342.48498113627926
 20
549.7856580126852
 10
350.32350661452796
 20
538.2592938727014
  0
LWPOLYLINE
  5
5A
330
17
100
AcDbEntity
  8
MAP
100
AcDbPolyline
 90
5
 70
0
 10
385.12849449180555
 20
555.6617878113402
 10
385.59304436788295
 20
554.1573364940945
 10
392.93457432292996
 20
545.3321084759503
 10
394.58945457466615
 20
538.3898503607326
 10
395.5699908549889
 20
537.0991276101255
  0
LWPOLYLINE
  5
5B
330
17
100
AcDbEntity
  8
MAP
100
AcDbPolyline
 90
9
 70
0
 10
544.0712724647067
 20
554.5016215487643
 10
541.9800449038844
 20
555.8120018967522
 10
536.4169663967384
 20
562.0737707055158
 10
529.8186745725625
 20
564.9012334746611
 10
517.4658137168528
 20
561.2702958863932
 10
512.6851598308269
 20
558.1694115998255
 10
504.5844361917286
 20
554.7167968904508
 10
498.19083081522626
 20
553.4181500054664
 10
493.0239569113662
 20
553.3414552861884
  0
LWPOLYLINE
  5
5C
330
17
100
AcDbEntity
  8
MAP
100
AcDbPolyline
 90
6
 70
0
 10
544.0712724647067
 20
554.5016215487643
 10
541.2220350573814
 20
552.75613406863
 10
540.1194657157968
 20
550.6937497123321
 10
535.1844195511321
 20
546.6240817288032
 10
533.649299951759
 20
543.0229038699949
 10
533.6297761015234
 20
537.0991276101255
  0
LWPOLYLINE
  5
5D
330
17
100
AcDbEntity
  8
MAP
100
AcDbPolyline
 90
5
 70
0
 10
544.0712724647067
 20
554.5016215487643
 10
557.6654608935946
 20
538.399729976738
 10
564.4888364839204
 20
524.7091452079835
 10
568.3554136287156
 20
513.2710606280833
 10
571.9152627665288
 20
493.01280963224053
  0
LWPOLYLINE
  5
5E
330
17
100
AcDbEntity
  8
MAP
100
AcDbPolyline
 90
8
 70
0
 10
442.55672448931364
 20
552.7613721549004
 10
449.7935178181602
 20
554.4721282302582
 10
463.5963264454677
 20
554.6231531785156
 10
468.3089379024127
 20
555.7986349606433
 10
478.57600538531375
 20
560.3014500408744
 10
485.30749250068885
 20
559.8177268037199
 10
488.1161394317104
 20
558.2299121327236
 10
493.0239569113662
 20
553.3414552861884
  0
LWPOLYLINE
  5
5F
330
17
100
AcDbEntity
  8
MAP
100
AcDbPolyline
 90
11
 70
0
 10
493.0239569113662
 20
553.3414552861884
 10
491.7190398531907
 20
547.8467486964552
 10
489.79632676663255
 20
544.3322904384586
 10
482.7082843868198
 20
538.575423079586
 10
475.0515861631219
 20
534.1641228439391
 10
471.4640012610706
 20
530.503343208731
 10
469.62052612758134
 20
520.920842582917
 10
466.95948436217975
 20
516.8701035562732
 10
459.95280458625206
 20
515.2161110502201
 10
448.8364041890406
 20
517.3622228790113
 10
438.49614257029793
 20
517.3763011463349
  0
LWPOLYLINE
  5
60
330
17
100
AcDbEntity
  8
MAP
100
AcDbPolyline
 90
4
 70
0
 10
442.55672448931364
 20
552.7613721549004
 10
436.50542556273354
 20
553.2075299156331
 10
433.08429892301666
 20
551.3861419459162
 10
431.5351449948424
 20
548.7007902358847
  0
LWPOLYLINE
  5
61
330
17
100
AcDbEntity
  8
MAP
100
AcDbPolyline
 90
4
 70
0
 10
442.55672448931364
 20
552.7613721549004
 10
441.03860581478864
 20
549.8322238996059
 10
440.64958052865944
 20
546.5804924122546
 10
438.49614257029793
 20
544.060125185581
  0
LWPOLYLINE
  5
62
330
17
100
AcDbEntity
  8
MAP
100
AcDbPolyline
 90
8
 70
0
 10
431.5351449948424
 20
548.7007902358847
 10
424.6748581060548
 20
548.5090771572416
 10
418.63448867153465
 20
544.2436693995636
 10
413.9175037768993
 20
543.0660452602077
 10
406.24661880489106
 20
542.7370502267937
 10
402.3526342957937
 20
539.572527394834
 10
398.03635916607897
 20
537.427551989646
 10
395.5699908549889
 20
537.0991276101255
  0
LWPOLYLINE
  5
63
330
17
100
AcDbEntity
  8
MAP
100
AcDbPolyline
 90
3
 70
0
 10
431.5351449948424
 20
548.7007902358847
 10
433.86188507865245
 20
545.4647863522001
 10
438.49614257029793
 20
544.060125185581
  0
LWPOLYLINE
  5
64
330
17
100
AcDbEntity
  8
MAP
100
AcDbPolyline
 90
2
 70
0
 10
438.49614257029793
 20
544.060125185581
 10
437.335976307722
 20
533.6186288223977
  0
LWPOLYLINE
  5
65
330
17
100
AcDbEntity
  8
MAP
100
AcDbPolyline
 90
6
 70
0
 10
324.7998488378577
 20
539.4194601352773
 10
330.6541046777881
 20
539.1406725558411
 10
334.98653451081253
 20
535.1878719909604
 10
340.3077557130741
 20
533.6238790004337
 10
341.9480264348448
 20
533.7728474585089
 10
350.32350661452796
 20
538.2592938727014
  0
LWPOLYLINE
  5
66
330
17
100
AcDbEntity
  8
MAP
100
AcDbPolyline
 90
6
 70
0
 10
350.32350661452796
 20
538.2592938727014
 10
352.75452756454
 20
537.9309391487384
 10
353.6750573677985
 20
536.7136143830609
 10
356.2664643387634
 20
522.3345221554541
 10
358.60800897532476
 20
516.436371359514
 10
360.7650029777112
 20
513.895802358607
  0
LWPOLYLINE
  5
67
330
17
100
AcDbEntity
  8
MAP
100
AcDbPolyline
 90
5
 70
0
 10
395.5699908549889
 20
537.0991276101255
 10
395.32295524298496
 20
534.757523312733
 10
393.4138191954984
 20
532.2897835709574
 10
393.1240588991067
 20
529.1372613423299
 10
391.5094089359731
 20
526.3675896812982
  0
LWPOLYLINE
  5
68
330
17
100
AcDbEntity
  8
MAP
100
AcDbPolyline
 90
7
 70
0
 10
533.6297761015234
 20
537.0991276101255
 10
530.2685927772178
 20
536.9133469050602
 10
527.9808108592275
 20
534.6015585741409
 10
525.656837210605
 20
528.6879050692444
 10
525.3369991329637
 20
524.5227141676733
 10
523.3740578402317
 20
521.8976533363902
 10
523.1882797383402
 20
518.5364674089108
  0
LWPOLYLINE
  5
69
330
17
100
AcDbEntity
  8
MAP
100
AcDbPolyline
 90
5
 70
0
 10
533.6297761015234
 20
537.0991276101255
 10
533.4770850992161
 20
526.9199309923928
 10
531.0361416734831
 20
521.9626396388222
 10
527.7504261195846
 20
519.886194507229
 10
523.1882797383402
 20
518.5364674089108
  0
LWPOLYLINE
  5
6A
330
17
100
AcDbEntity
  8
MAP
100
AcDbPolyline
 90
4
 70
0
 10
483.74262681075885
 20
534.7787950849737
 10
484.2110908775252
 20
533.295476242343
 10
485.48344228617646
 20
532.6116487632188
 10
488.3832918610625
 20
533.6186288223977
  0
LWPOLYLINE
  5
6B
330
17
100
AcDbEntity
  8
MAP
100
AcDbPolyline
 90
5
 70
0
 10
437.335976307722
 20
533.6186288223977
 10
415.7037086983329
 20
533.4942337110982
 10
403.6160465347525
 20
529.1728739101845
 10
394.65905364041333
 20
527.7221245030037
 10
391.5094089359731
 20
526.3675896812982
  0
LWPOLYLINE
  5
6C
330
17
100
AcDbEntity
  8
MAP
100
AcDbPolyline
 90
3
 70
0
 10
437.335976307722
 20
533.6186288223977
 10
437.3541212182556
 20
521.9201256967881
 10
438.49614257029793
 20
517.3763011463349
  0
LWPOLYLINE
  5
6D
330
17
100
AcDbEntity
  8
MAP
100
AcDbPolyline
 90
4
 70
0
 10
391.5094089359731
 20
526.3675896812982
 10
381.98100643293327
 20
524.1997939958678
 10
363.1857596072393
 20
514.2040210583491
 10
360.7650029777112
 20
513.895802358607
  0
LWPOLYLINE
  5
6E
330
17
100
AcDbEntity
  8
MAP
100
AcDbPolyline
 90
7
 70
0
 10
391.5094089359731
 20
526.3675896812982
 10
389.8065932937483
 20
523.5375743650561
 10
390.36501569258206
 20
520.3582521554647
 10
396.8506872078757
 20
515.2228919296291
 10
406.6186526725228
 20
511.65750565411713
 10
409.1241784096241
 20
511.44160887479694
 10
413.55256792491565
 20
507.5148879144395
  0
LWPOLYLINE
  5
6F
330
17
100
AcDbEntity
  8
MAP
100
AcDbPolyline
 90
3
 70
0
 10
490.70362438621436
 20
525.4974649843663
 10
495.193791780515
 20
518.2956531037923
 10
496.50445569909397
 20
513.895802358607
  0
LWPOLYLINE
  5
70
330
17
100
AcDbEntity
  8
MAP
100
AcDbPolyline
 90
4
 70
0
 10
523.1882797383402
 20
518.5364674089108
 10
506.44421741420024
 20
512.8990875605122
 10
503.4543787273148
 20
513.8787660926738
 10
496.50445569909397
 20
513.895802358607
  0
LWPOLYLINE
  5
71
330
17
100
AcDbEntity
  8
MAP
100
AcDbPolyline
 90
6
 70
0
 10
438.49614257029793
 20
517.3763011463349
 10
433.87293736185177
 20
516.2328163615387
 10
428.80298014516836
 20
516.1678863340462
 10
421.31592417580833
 20
513.7350892297537
 10
415.78021405046945
 20
508.62823829111124
 10
413.55256792491565
 20
507.5148879144395
  0
LWPOLYLINE
  5
72
330
17
100
AcDbEntity
  8
MAP
100
AcDbPolyline
 90
4
 70
0
 10
294.6355260108838
 20
516.216134883759
 10
303.06930205235636
 20
515.7883026030747
 10
308.0354275099124
 20
513.2254518877351
 10
310.87785368694665
 20
509.2551373083034
  0
LWPOLYLINE
  5
73
330
17
100
AcDbEntity
  8
MAP
100
AcDbPolyline
 90
4
 70
0
 10
294.6355260108838
 20
516.216134883759
 10
294.61848405286554
 20
510.36056517468296
 10
293.5060143021034
 20
506.6531175979178
 10
294.6355260108838
 20
504.6144722579997
  0
LWPOLYLINE
  5
74
330
17
100
AcDbEntity
  8
MAP
100
AcDbPolyline
 90
10
 70
0
 10
360.7650029777112
 20
513.895802358607
 10
363.502212263161
 20
508.98424817025716
 10
369.76184484016966
 20
501.21362705494937
 10
373.3417418575968
 20
494.0602640979856
 10
375.8264863536543
 20
483.8624126577592
 10
375.8654418269305
 20
470.9242412628974
 10
377.25345672207607
 20
466.3174529451539
 10
387.75996156142116
 20
446.48801615300226
 10
391.74031225631205
 20
441.29750520867276
 10
393.249658329837
 20
440.8053278163241
  0
LWPOLYLINE
  5
75
330
17
100
AcDbEntity
  8
MAP
100
AcDbPolyline
 90
12
 70
0
 10
496.50445569909397
 20
513.895802358607
 10
487.2133417233859
 20
511.32223463844946
 10
484.04992097320013
 20
508.54094912959636
 10
481.01896387463904
 20
507.5649101831343
 10
478.8071755199169
 20
503.3596117065763
 10
473.648645814432
 20
496.8654108149235
 10
471.17521655441516
 20
494.536801558667
 10
466.17299085508654
 20
492.02740038161545
 10
457.67325093371505
 20
489.6269784440572
 10
449.95333307886284
 20
489.51128301224804
 10
435.79670929639656
 20
486.1819445104921
 10
431.5351449948424
 20
486.05181205678497
  0
LWPOLYLINE
  5
76
330
17
100
AcDbEntity
  8
MAP
100
AcDbPolyline
 90
6
 70
0
 10
354.96417166483167
 20
512.7356360960312
 10
345.57504694766874
 20
510.4488175238416
 10
337.892171266616
 20
512.70149639365
 10
329.2877979798465
 20
512.7143976439004
 10
321.6025291451357
 20
510.4401050559907
 10
310.87785368694665
 20
509.2551373083034
  0
LWPOLYLINE
  5
77
330
17
100
AcDbEntity
  8
MAP
100
AcDbPolyline
 90
3
 70
0
 10
310.87785368694665
 20
509.2551373083034
 10
301.47879127479246
 20
504.7993161842358
 10
294.6355260108838
 20
504.6144722579997
  0
LWPOLYLINE
  5
78
330
17
100
AcDbEntity
  8
MAP
100
AcDbPolyline
 90
6
 70
0
 10
413.55256792491565
 20
507.5148879144395
 10
409.3743424982324
 20
502.4640772522916
 10
401.2579282724537
 20
498.9999909460714
 10
390.1208400275154
 20
496.53334891920855
 10
381.4619067769815
 20
496.5158143157777
 10
379.327663178926
 20
497.6534746825442
  0
LWPOLYLINE
  5
79
330
17
100
AcDbEntity
  8
MAP
100
AcDbPolyline
 90
5
 70
0
 10
413.55256792491565
 20
507.5148879144395
 10
423.7016780965839
 20
497.3458636197461
 10
426.3130419808376
 20
492.52788589415565
 10
430.05655225208267
 20
489.66668440274805
 10
431.5351449948424
 20
486.05181205678497
  0
LWPOLYLINE
  5
7A
330
17
100
AcDbEntity
  8
MAP
100
AcDbPolyline
 90
2
 70
0
 10
294.6355260108838
 20
504.6144722579997
 10
294.6355260108838
 20
493.01280963224053
  0
LWPOLYLINE
  5
7B
330
17
100
AcDbEntity
  8
MAP
100
AcDbPolyline
 90
6
 70
0
 10
367.7260005531668
 20
495.33314215739233
 10
361.8488242258096
 20
495.04919868736806
 10
354.76139146591083
 20
491.4844860244544
 10
347.47098478029034
 20
484.3243649292347
 10
344.57826670792616
 20
479.52777842334115
 10
345.6828415642243
 20
466.32898559299434
  0
LWPOLYLINE
  5
7C
330
17
100
AcDbEntity
  8
MAP
100
AcDbPolyline
 90
5
 70
0
 10
294.6355260108838
 20
493.01280963224053
 10
300.4679576033275
 20
492.7492946247344
 10
304.6401142341295
 20
488.67172790543015
 10
305.0135022858821
 20
482.08863139886523
 10
302.75668984891524
 20
477.93064821875356
  0
LWPOLYLINE
  5
7D
330
17
100
AcDbEntity
  8
MAP
100
AcDbPolyline
 90
4
 70
0
 10
294.6355260108838
 20
493.01280963224053
 10
295.1239004078522
 20
484.52161580395205
 10
300.57649081073885
 20
478.9636088284103
 10
302.75668984891524
 20
477.93064821875356
  0
LWPOLYLINE
  5
7E
330
17
100
AcDbEntity
  8
MAP
100
AcDbPolyline
 90
6
 70
0
 10
571.9152627665288
 20
493.01280963224053
 10
570.402490452329
 20
492.54127809793624
 10
566.7714183872789
 20
488.99672550209453
 10
561.9473947435002
 20
480.75538567539047
 10
553.7859473886687
 20
473.7227587647857
 10
552.1924363027381
 20
470.96965064329805
  0
LWPOLYLINE
  5
7F
330
17
100
AcDbEntity
  8
MAP
100
AcDbPolyline
 90
3
 70
0
 10
571.9152627665288
 20
493.01280963224053
 10
576.8056109442891
 20
491.4536073938951
 10
577.7160940794084
 20
489.5323108445128
  0
LWPOLYLINE
  5
80
330
17
100
AcDbEntity
  8
MAP
100
AcDbPolyline
 90
5
 70
0
 10
577.7160940794084
 20
489.5323108445128
 10
581.0702849327555
 20
489.3504073614668
 10
584.5280218845096
 20
487.3485771405295
 10
592.3280117952008
 20
479.4407463958389
 10
596.5951632613256
 20
472.3407562263423
  0
LWPOLYLINE
  5
81
330
17
100
AcDbEntity
  8
MAP
100
AcDbPolyline
 90
5
 70
0
 10
577.7160940794084
 20
489.5323108445128
 10
577.7885850894478
 20
484.3817683426803
 10
582.1495157549903
 20
473.23670181556463
 10
582.3793992359683
 20
467.2879448587739
 10
583.516925392288
 20
465.16881933041844
  0
LWPOLYLINE
  5
82
330
17
100
AcDbEntity
  8
MAP
100
AcDbPolyline
 90
5
 70
0
 10
431.5351449948424
 20
486.05181205678497
 10
428.6653550184997
 20
482.056030631951
 10
405.4578124722299
 20
466.88351696636164
 10
396.23277614067644
 20
457.7427493663187
 10
390.92932580468516
 20
455.8874892298111
  0
LWPOLYLINE
  5
83
330
17
100
AcDbEntity
  8
MAP
100
AcDbPolyline
 90
16
 70
0
 10
654.2870674094193
 20
486.05181205678497
 10
657.3765955713083
 20
489.03298871938995
 10
666.2831555298995
 20
494.6745402494347
 10
670.00155140792
 20
498.2254874332911
 10
679.6123168278489
 20
504.25492807835127
 10
687.1536514956082
 20
506.92845054979483
 10
696.6286704314638
 20
506.8479718399761
 10
700.4432883768914
 20
505.61731676672827
 10
708.5282853713281
 20
502.168319767227
 10
713.8499722955123
 20
498.3120765905019
 10
719.3767806168138
 20
492.88024650362553
 10
722.5724493489657
 20
488.1498150790163
 10
725.0326694189537
 20
480.52012766368745
 10
725.0334931569038
 20
471.8913721334508
 10
723.9208926680996
 20
468.89272877152024
 10
723.8970431639744
 20
462.8484868052666
  0
LWPOLYLINE
  5
84
330
17
100
AcDbEntity
  8
MAP
100
AcDbPolyline
 90
9
 70
0
 10
684.4513902363932
 20
483.73147953163317
 10
682.1707644377868
 20
486.9331696642637
 10
676.7586560256337
 20
488.3187767214139
 10
671.6518307559992
 20
488.35451761094635
 10
665.3119610609477
 20
487.1270348015708
 10
661.7590238402257
 20
485.371282644319
 10
659.40930023907
 20
482.93876317247793
 10
657.9483318942748
 20
480.11976121395264
 10
657.767566197147
 20
476.7704819561776
  0
LWPOLYLINE
  5
85
330
17
100
AcDbEntity
  8
MAP
100
AcDbPolyline
 90
2
 70
0
 10
684.4513902363932
 20
483.73147953163317
 10
690.2522215492728
 20
483.73147953163317
  0
LWPOLYLINE
  5
86
330
17
100
AcDbEntity
  8
MAP
100
AcDbPolyline
 90
3
 70
0
 10
684.4513902363932
 20
483.73147953163317
 10
678.7896575943023
 20
481.23551864247725
 10
676.3302263983617
 20
479.09081448132946
  0
LWPOLYLINE
  5
87
330
17
100
AcDbEntity
  8
MAP
100
AcDbPolyline
 90
4
 70
0
 10
690.2522215492728
 20
483.73147953163317
 10
694.8180682299717
 20
484.69510133929805
 10
697.0484177683359
 20
482.3597971551615
 10
697.2132191247283
 20
479.8642586563801
  0
LWPOLYLINE
  5
88
330
17
100
AcDbEntity
  8
MAP
100
AcDbPolyline
 90
4
 70
0
 10
690.2522215492728
 20
483.73147953163317
 10
690.6665055730763
 20
482.2869369051418
 10
693.4683804904553
 20
479.4937192384547
 10
697.2132191247283
 20
479.8642586563801
  0
LWPOLYLINE
  5
89
330
17
100
AcDbEntity
  8
MAP
100
AcDbPolyline
 90
9
 70
0
 10
553.3526025653141
 20
480.2509807439054
 10
548.1810443469047
 20
480.17308011383767
 10
541.78250565974
 20
478.86965683235445
 10
516.3878898475755
 20
468.9865185598648
 10
499.3383550547602
 20
464.0828657504674
 10
483.76449389451363
 20
464.02525341229597
 10
480.7412538932807
 20
465.101937478713
 10
468.2403124324188
 20
466.32810957563584
 10
457.05880277151266
 20
464.0086530678425
  0
LWPOLYLINE
  5
8A
330
17
100
AcDbEntity
  8
MAP
100
AcDbPolyline
 90
3
 70
0
 10
676.3302263983617
 20
479.09081448132946
 10
670.4454652185773
 20
478.78022863057123
 10
669.3692288229062
 20
476.7704819561776
  0
LWPOLYLINE
  5
8B
330
17
100
AcDbEntity
  8
MAP
100
AcDbPolyline
 90
5
 70
0
 10
676.3302263983617
 20
479.09081448132946
 10
678.6219758960181
 20
475.87527906936594
 10
686.5690024108637
 20
474.28306520693866
 10
695.5524411427044
 20
471.04129618972513
 10
700.1136347811681
 20
472.7099000371619
  0
LWPOLYLINE
  5
8C
330
17
100
AcDbEntity
  8
MAP
100
AcDbPolyline
 90
3
 70
0
 10
697.2132191247283
 20
479.8642586563801
 10
698.5595664202389
 20
474.5251647991576
 10
700.1136347811681
 20
472.7099000371619
  0
LWPOLYLINE
  5
8D
330
17
100
AcDbEntity
  8
MAP
100
AcDbPolyline
 90
6
 70
0
 10
302.75668984891524
 20
477.93064821875356
 10
303.38370760841246
 20
473.8640361988766
 10
312.5415787732068
 20
464.6968777523463
 10
316.6036505769471
 20
461.96996141131683
 10
323.3261718576091
 20
459.39912568900485
 10
334.0811789384651
 20
458.2078217549629
  0
LWPOLYLINE
  5
8E
330
17
100
AcDbEntity
  8
MAP
100
AcDbPolyline
 90
6
 70
0
 10
657.767566197147
 20
476.7704819561776
 10
642.8405408580996
 20
473.11187580600784
 10
626.9650114643821
 20
467.564673306527
 10
622.2589690447029
 20
466.39060163503495
 10
616.2893361859808
 20
466.17786328773417
 10
613.1011650879741
 20
463.42856993655454
  0
LWPOLYLINE
  5
8F
330
17
100
AcDbEntity
  8
MAP
100
AcDbPolyline
 90
2
 70
0
 10
657.767566197147
 20
476.7704819561776
 10
669.3692288229062
 20
476.7704819561776
  0
LWPOLYLINE
  5
90
330
17
100
AcDbEntity
  8
MAP
100
AcDbPolyline
 90
7
 70
0
 10
669.3692288229062
 20
476.7704819561776
 10
669.8547320676981
 20
475.2410576437514
 10
672.906167388004
 20
472.34046982019765
 10
678.3308900484303
 20
470.8272487868495
 10
684.0281892228868
 20
467.88499137727683
 10
692.589973118825
 20
459.3443877052768
 10
696.0530528621524
 20
454.7273229672351
  0
LWPOLYLINE
  5
91
330
17
100
AcDbEntity
  8
MAP
100
AcDbPolyline
 90
2
 70
0
 10
569.5949302413769
 20
475.6103156936017
 10
570.7550965039529
 20
473.28998316844985
  0
LWPOLYLINE
  5
92
330
17
100
AcDbEntity
  8
MAP
100
AcDbPolyline
 90
4
 70
0
 10
596.5951632613256
 20
472.3407562263423
 10
600.6103903930056
 20
473.1396671712868
 10
601.7803452394166
 20
472.2062902799516
 10
602.0795855935028
 20
469.8094843807221
  0
LWPOLYLINE
  5
93
330
17
100
AcDbEntity
  8
MAP
100
AcDbPolyline
 90
7
 70
0
 10
700.1136347811681
 20
472.7099000371619
 10
702.0659508867724
 20
474.28220977279085
 10
704.5786402635055
 20
474.39870356590706
 10
709.440742728476
 20
471.47054049274817
 10
717.8759168962907
 20
462.83408434786656
 10
719.177705179188
 20
459.90187585430084
 10
719.2563781136707
 20
454.7273229672351
  0
LWPOLYLINE
  5
94
330
17
100
AcDbEntity
  8
MAP
100
AcDbPolyline
 90
4
 70
0
 10
596.5951632613256
 20
472.3407562263423
 10
591.6554708450672
 20
471.9003823902818
 10
585.0107330801357
 20
465.624438764247
 10
583.516925392288
 20
465.16881933041844
  0
LWPOLYLINE
  5
95
330
17
100
AcDbEntity
  8
MAP
100
AcDbPolyline
 90
2
 70
0
 10
700.1136347811681
 20
472.7099000371619
 10
703.0140504376079
 20
464.0086530678425
  0
LWPOLYLINE
  5
96
330
17
100
AcDbEntity
  8
MAP
100
AcDbPolyline
 90
5
 70
0
 10
552.1924363027381
 20
470.96965064329805
 10
546.7101305259765
 20
469.66714034816744
 10
534.8879825609284
 20
464.9786908629916
 10
531.1632002541546
 20
461.52880834556
 10
530.1492773137957
 20
459.36798801753883
  0
LWPOLYLINE
  5
97
330
17
100
AcDbEntity
  8
MAP
100
AcDbPolyline
 90
7
 70
0
 10
552.1924363027381
 20
470.96965064329805
 10
552.6855419233344
 20
469.4599699750633
 10
554.0362318337992
 20
468.7155441543207
 10
563.456908435178
 20
468.50999904578345
 10
573.1719349364131
 20
464.8615288302731
 10
574.1030273581667
 20
463.6333941418323
 10
574.2355952916806
 20
459.36798801753883
  0
LWPOLYLINE
  5
98
330
17
100
AcDbEntity
  8
MAP
100
AcDbPolyline
 90
4
 70
0
 10
596.5951632613256
 20
472.3407562263423
 10
596.2593204524263
 20
467.3127371610795
 10
595.1607211019563
 20
464.4006085646983
 10
595.1185880180473
 20
459.36798801753883
  0
LWPOLYLINE
  5
99
330
17
100
AcDbEntity
  8
MAP
100
AcDbPolyline
 90
3
 70
0
 10
596.5951632613256
 20
472.3407562263423
 10
598.8133870995619
 20
469.99198488138546
 10
602.0795855935028
 20
469.8094843807221
  0
LWPOLYLINE
  5
9A
330
17
100
AcDbEntity
  8
MAP
100
AcDbPolyline
 90
5
 70
0
 10
602.0795855935028
 20
469.8094843807221
 10
606.2469245211473
 20
469.7044662760474
 10
611.5535163956279
 20
468.2835211117596
 10
613.2510972074563
 20
466.5771835283157
 10
613.1011650879741
 20
463.42856993655454
  0
LWPOLYLINE
  5
9B
330
17
100
AcDbEntity
  8
MAP
100
AcDbPolyline
 90
3
 70
0
 10
345.6828415642243
 20
466.32898559299434
 10
343.76252363839575
 20
465.4180970987266
 10
342.2023427764965
 20
460.52815428011473
  0
LWPOLYLINE
  5
9C
330
17
100
AcDbEntity
  8
MAP
100
AcDbPolyline
 90
9
 70
0
 10
345.6828415642243
 20
466.32898559299434
 10
348.9136297874258
 20
461.7097697215405
 10
349.31507503119866
 20
458.4717954028276
 10
351.7458509455366
 20
453.52703741748144
 10
355.0171423497364
 20
451.45185075498244
 10
358.63412103784134
 20
451.9511250366893
 10
360.70041274989336
 20
451.0614086360193
 10
361.74754329162437
 20
449.9359875291838
 10
361.9251692402872
 20
446.6061591292037
  0
LWPOLYLINE
  5
9D
330
17
100
AcDbEntity
  8
MAP
100
AcDbPolyline
 90
3
 70
0
 10
583.516925392288
 20
465.16881933041844
 10
583.5322740306822
 20
457.9128459414076
 10
584.2903695673385
 20
455.6941281860484
  0
LWPOLYLINE
  5
9E
330
17
100
AcDbEntity
  8
MAP
100
AcDbPolyline
 90
5
 70
0
 10
703.0140504376079
 20
464.0086530678425
 10
701.9770580332232
 20
463.37317231942137
 10
701.4873097969381
 20
460.30765987178387
 10
699.0219831074802
 20
455.4961275077286
 10
696.0530528621524
 20
454.7273229672351
  0
LWPOLYLINE
  5
9F
330
17
100
AcDbEntity
  8
MAP
100
AcDbPolyline
 90
4
 70
0
 10
703.0140504376079
 20
464.0086530678425
 10
706.9716518148498
 20
463.4602775996076
 10
714.1124450675117
 20
456.45278858595276
 10
719.2563781136707
 20
454.7273229672351
  0
LWPOLYLINE
  5
A0
330
17
100
AcDbEntity
  8
MAP
100
AcDbPolyline
 90
3
 70
0
 10
613.1011650879741
 20
463.42856993655454
 10
611.1855352810173
 20
461.8609541345963
 10
595.1185880180473
 20
459.36798801753883
  0
LWPOLYLINE
  5
A1
330
17
100
AcDbEntity
  8
MAP
100
AcDbPolyline
 90
4
 70
0
 10
613.1011650879741
 20
463.42856993655454
 10
612.0077485348562
 20
457.7881522176217
 10
601.9206289967344
 20
447.61935148917036
 10
598.5990868057751
 20
445.44599286662776
  0
LWPOLYLINE
  5
A2
330
17
100
AcDbEntity
  8
MAP
100
AcDbPolyline
 90
3
 70
0
 10
342.2023427764965
 20
460.52815428011473
 10
335.32934588834013
 20
459.1846334115968
 10
334.0811789384651
 20
458.2078217549629
  0
LWPOLYLINE
  5
A3
330
17
100
AcDbEntity
  8
MAP
100
AcDbPolyline
 90
3
 70
0
 10
342.2023427764965
 20
460.52815428011473
 10
343.3392514536962
 20
458.4785843831737
 10
343.36250903907245
 20
450.0866579169315
  0
LWPOLYLINE
  5
A4
330
17
100
AcDbEntity
  8
MAP
100
AcDbPolyline
 90
5
 70
0
 10
530.1492773137957
 20
459.36798801753883
 10
525.5039712667594
 20
458.22409578977226
 10
519.5470669815187
 20
458.1869063024145
 10
516.5901706627902
 20
457.08638343902345
 10
491.86379064879026
 20
457.047655492387
  0
LWPOLYLINE
  5
A5
330
17
100
AcDbEntity
  8
MAP
100
AcDbPolyline
 90
3
 70
0
 10
530.1492773137957
 20
459.36798801753883
 10
531.144417213931
 20
457.4021066482615
 10
535.9501086266753
 20
457.047655492387
  0
LWPOLYLINE
  5
A6
330
17
100
AcDbEntity
  8
MAP
100
AcDbPolyline
 90
6
 70
0
 10
574.2355952916806
 20
459.36798801753883
 10
569.5766158398907
 20
460.5121323231904
 10
547.3498844093473
 20
460.50595140229916
 10
544.3871816751197
 20
459.3972714012309
 10
539.3780122211464
 20
459.0985605482577
 10
535.9501086266753
 20
457.047655492387
  0
LWPOLYLINE
  5
A7
330
17
100
AcDbEntity
  8
MAP
100
AcDbPolyline
 90
3
 70
0
 10
574.2355952916806
 20
459.36798801753883
 10
578.5241072044524
 20
459.22974155383463
 10
584.2903695673385
 20
455.6941281860484
  0
LWPOLYLINE
  5
A8
330
17
100
AcDbEntity
  8
MAP
100
AcDbPolyline
 90
3
 70
0
 10
595.1185880180473
 20
459.36798801753883
 10
591.7602323032386
 20
459.1851197317822
 10
584.2903695673385
 20
455.6941281860484
  0
LWPOLYLINE
  5
A9
330
17
100
AcDbEntity
  8
MAP
100
AcDbPolyline
 90
4
 70
0
 10
334.0811789384651
 20
458.2078217549629
 10
334.3442963402407
 20
455.8454170365927
 10
338.28998460040634
 20
451.76215109166134
 10
343.36250903907245
 20
450.0866579169315
  0
LWPOLYLINE
  5
AA
330
17
100
AcDbEntity
  8
MAP
100
AcDbPolyline
 90
6
 70
0
 10
491.86379064879026
 20
457.047655492387
 10
487.6105205619446
 20
457.1755772485454
 10
484.600913077883
 20
458.172762912774
 10
481.61935790276283
 20
457.07005387274944
 10
459.2446492869407
 20
457.0270136290772
 10
450.5950193085897
 20
454.39584689221346
  0
LWPOLYLINE
  5
AB
330
17
100
AcDbEntity
  8
MAP
100
AcDbPolyline
 90
7
 70
0
 10
491.86379064879026
 20
457.047655492387
 10
491.67576124680875
 20
453.66702026506607
 10
488.60475654016625
 20
448.88666284211274
 10
487.35653521275606
 20
445.0805436000863
 10
487.246139083357
 20
431.3112579462324
 10
489.6951354270866
 20
423.6793665566411
 10
496.50445569909397
 20
411.80117125192606
  0
LWPOLYLINE
  5
AC
330
17
100
AcDbEntity
  8
MAP
100
AcDbPolyline
 90
6
 70
0
 10
535.9501086266753
 20
457.047655492387
 10
537.5851899504946
 20
454.2837952968743
 10
542.05682030251
 20
452.553120990145
 10
548.9053857945361
 20
452.3844898720451
 10
551.903997297349
 20
451.27251302454897
 10
566.1144314536492
 20
450.0866579169315
  0
LWPOLYLINE
  5
AD
330
17
100
AcDbEntity
  8
MAP
100
AcDbPolyline
 90
7
 70
0
 10
430.37497873226647
 20
455.8874892298111
 10
430.6909202882185
 20
458.30394420033235
 10
433.98164857695355
 20
460.34765786589304
 10
438.54256066963114
 20
461.6733062472688
 10
443.6198702306582
 20
461.6243802284008
 10
448.99076959961593
 20
458.14900949250915
 10
450.5950193085897
 20
454.39584689221346
  0
LWPOLYLINE
  5
AE
330
17
100
AcDbEntity
  8
MAP
100
AcDbPolyline
 90
3
 70
0
 10
430.37497873226647
 20
455.8874892298111
 10
427.9751326484482
 20
455.59543394204053
 10
423.41398115681096
 20
452.40699044208327
  0
LWPOLYLINE
  5
AF
330
17
100
AcDbEntity
  8
MAP
100
AcDbPolyline
 90
6
 70
0
 10
430.37497873226647
 20
455.8874892298111
 10
437.20890402567846
 20
455.90042555809686
 10
441.8578998202044
 20
457.03402919521596
 10
443.4008235284397
 20
456.63201001148025
 10
446.52603275250715
 20
453.91180492546385
 10
450.5950193085897
 20
454.39584689221346
  0
LWPOLYLINE
  5
B0
330
17
100
AcDbEntity
  8
MAP
100
AcDbPolyline
 90
3
 70
0
 10
584.2903695673385
 20
455.6941281860484
 10
588.3687511508512
 20
454.3877418697413
 10
598.5990868057751
 20
445.44599286662776
  0
LWPOLYLINE
  5
B1
330
17
100
AcDbEntity
  8
MAP
100
AcDbPolyline
 90
11
 70
0
 10
450.5950193085897
 20
454.39584689221346
 10
453.78774904330874
 20
453.2353973821241
 10
456.7402277744066
 20
450.1967052843177
 10
460.39768722961514
 20
440.4790893123068
 10
459.40305708553876
 20
425.4754028274967
 10
463.93984823091154
 20
416.986062989083
 10
464.0127962010494
 20
407.5175862133521
 10
462.67864652838557
 20
403.74998399347123
 10
459.39425455644863
 20
399.06433234665604
 10
454.7136131962838
 20
395.7710662972625
 10
450.09780519605715
 20
394.3986773132873
  0
LWPOLYLINE
  5
B2
330
17
100
AcDbEntity
  8
MAP
100
AcDbPolyline
 90
5
 70
0
 10
584.2903695673385
 20
455.6941281860484
 10
581.1600665824463
 20
454.53828573988784
 10
577.3871536903779
 20
451.38375451419796
 10
568.1742038451608
 20
451.22365716663035
 10
566.1144314536492
 20
450.0866579169315
  0
LWPOLYLINE
  5
B3
330
17
100
AcDbEntity
  8
MAP
100
AcDbPolyline
 90
3
 70
0
 10
584.2903695673385
 20
455.6941281860484
 10
583.5245406630237
 20
452.35996919514224
 10
583.516925392288
 20
438.48499529117225
  0
LWPOLYLINE
  5
B4
330
17
100
AcDbEntity
  8
MAP
100
AcDbPolyline
 90
2
 70
0
 10
696.0530528621524
 20
454.7273229672351
 10
696.0530528621524
 20
448.9264916543555
  0
LWPOLYLINE
  5
B5
330
17
100
AcDbEntity
  8
MAP
100
AcDbPolyline
 90
17
 70
0
 10
719.2563781136707
 20
454.7273229672351
 10
728.9679631548834
 20
440.5165725644471
 10
736.6472201698531
 20
431.54181120966433
 10
745.2469444416323
 20
422.9658484170513
 10
750.554705825007
 20
419.0106335936359
 10
755.6207727672235
 20
416.5680773150504
 10
770.6271093405633
 20
412.9695282820699
 10
816.6351189030676
 20
412.94618018654097
 10
819.6657268375467
 20
411.8780727936964
 10
828.2358920980771
 20
411.6066765711986
 10
832.9472259099027
 20
410.4038793008258
 10
837.961227989083
 20
407.83562732377595
 10
845.2680015737627
 20
400.5117217840281
 10
847.8322777541404
 20
395.49607287594495
 10
848.1099319738191
 20
390.40153226538666
 10
849.1795864624947
 20
387.3715651589832
 10
849.1949995221739
 20
359.59368943600964
  0
LWPOLYLINE
  5
B6
330
17
100
AcDbEntity
  8
MAP
100
AcDbPolyline
 90
5
 70
0
 10
423.41398115681096
 20
452.40699044208327
 10
420.95697345262846
 20
452.07075042418995
 10
416.89538858149325
 20
449.34046373750164
 10
410.1787338467069
 20
442.61961697297494
 10
408.331819743324
 20
438.09827320364695
  0
LWPOLYLINE
  5
B7
330
17
100
AcDbEntity
  8
MAP
100
AcDbPolyline
 90
4
 70
0
 10
423.41398115681096
 20
452.40699044208327
 10
423.24194225623006
 20
449.09042627560495
 10
419.5924137446232
 20
440.39635115478944
 10
415.12707928126866
 20
433.22281260020293
  0
LWPOLYLINE
  5
B8
330
17
100
AcDbEntity
  8
MAP
100
AcDbPolyline
 90
2
 70
0
 10
450.5950193085897
 20
454.39584689221346
 10
438.62224759883884
 20
445.8747499636667
  0
LWPOLYLINE
  5
B9
330
17
100
AcDbEntity
  8
MAP
100
AcDbPolyline
 90
4
 70
0
 10
343.36250903907245
 20
450.0866579169315
 10
350.38791372292127
 20
446.80146225608854
 10
356.5800932927554
 20
445.5538969885562
 10
361.9251692402872
 20
446.6061591292037
  0
LWPOLYLINE
  5
BA
330
17
100
AcDbEntity
  8
MAP
100
AcDbPolyline
 90
2
 70
0
 10
379.327663178926
 20
450.0866579169315
 10
361.9251692402872
 20
446.6061591292037
  0
LWPOLYLINE
  5
BB
330
17
100
AcDbEntity
  8
MAP
100
AcDbPolyline
 90
4
 70
0
 10
566.1144314536492
 20
450.0866579169315
 10
566.8732471651841
 20
447.0345217415241
 10
576.150283715685
 20
438.98849215853096
 10
583.516925392288
 20
438.48499529117225
  0
LWPOLYLINE
  5
BC
330
17
100
AcDbEntity
  8
MAP
100
AcDbPolyline
 90
6
 70
0
 10
696.0530528621524
 20
448.9264916543555
 10
692.8470621503722
 20
446.67510772540265
 10
689.3141597347502
 20
439.6205793102369
 10
687.9351088591546
 20
433.3774739875079
 10
687.9548379283922
 20
423.16684248055265
 10
689.0920552866968
 20
421.0825013525334
  0
LWPOLYLINE
  5
BD
330
17
100
AcDbEntity
  8
MAP
100
AcDbPolyline
 90
7
 70
0
 10
696.0530528621524
 20
448.9264916543555
 10
697.5435443432455
 20
448.45145319890275
 10
698.2993059268158
 20
447.1353256296037
 10
698.2937463677669
 20
434.4460336545187
 10
694.6786756201285
 20
425.74081229767654
 10
691.2314647695696
 20
422.0753902516142
 10
689.0920552866968
 20
421.0825013525334
  0
LWPOLYLINE
  5
BE
330
17
100
AcDbEntity
  8
MAP
100
AcDbPolyline
 90
5
 70
0
 10
598.5990868057751
 20
445.44599286662776
 10
594.627737017884
 20
439.2690786059539
 10
589.7663578420261
 20
434.38224604066784
 10
586.9138760691491
 20
432.8759729033356
 10
583.516925392288
 20
432.68416397829264
  0
LWPOLYLINE
  5
BF
330
17
100
AcDbEntity
  8
MAP
100
AcDbPolyline
 90
5
 70
0
 10
438.62224759883884
 20
445.8747499636667
 10
430.1600642049162
 20
444.4268742485262
 10
424.61940764750426
 20
441.0804552179975
 10
422.25723127286096
 20
440.5614270948846
 10
415.12707928126866
 20
433.22281260020293
  0
LWPOLYLINE
  5
C0
330
17
100
AcDbEntity
  8
MAP
100
AcDbPolyline
 90
4
 70
0
 10
393.249658329837
 20
440.8053278163241
 10
396.5152601790213
 20
442.9430803112032
 10
401.2619770424258
 20
439.9609695018501
 10
408.331819743324
 20
438.09827320364695
  0
LWPOLYLINE
  5
C1
330
17
100
AcDbEntity
  8
MAP
100
AcDbPolyline
 90
3
 70
0
 10
393.249658329837
 20
440.8053278163241
 10
393.3335030379688
 20
436.71742838375167
 10
394.9899077237009
 20
429.78374832185284
  0
LWPOLYLINE
  5
C2
330
17
100
AcDbEntity
  8
MAP
100
AcDbPolyline
 90
3
 70
0
 10
438.62224759883884
 20
445.8747499636667
 10
421.05097843229305
 20
432.9061917168347
 10
415.12707928126866
 20
433.22281260020293
  0
LWPOLYLINE
  5
C3
330
17
100
AcDbEntity
  8
MAP
100
AcDbPolyline
 90
7
 70
0
 10
438.62224759883884
 20
445.8747499636667
 10
439.43475155291793
 20
439.94069840553317
 10
435.2771717371599
 20
433.8895131875183
 10
431.7061579086971
 20
426.69094149718836
 10
430.529276172258
 20
421.97178144402994
 10
430.3975035384116
 20
418.5739497548301
 10
431.5351449948424
 20
416.4418363022298
  0
LWPOLYLINE
  5
C4
330
17
100
AcDbEntity
  8
MAP
100
AcDbPolyline
 90
6
 70
0
 10
438.62224759883884
 20
445.8747499636667
 10
442.65112135186797
 20
440.2512284354204
 10
443.036475786222
 20
437.8509739446739
 10
437.0384815040885
 20
422.1450369813411
 10
434.27706515551495
 20
418.1444171439219
 10
431.5351449948424
 20
416.4418363022298
  0
LWPOLYLINE
  5
C5
330
17
100
AcDbEntity
  8
MAP
100
AcDbPolyline
 90
3
 70
0
 10
600.9194193309269
 20
440.8053278163241
 10
608.8499828214527
 20
430.2615616874587
 10
609.0405831689583
 20
426.88333266541304
  0
LWPOLYLINE
  5
C6
330
17
100
AcDbEntity
  8
MAP
100
AcDbPolyline
 90
6
 70
0
 10
718.0962118510948
 20
440.8053278163241
 10
714.6255681947366
 20
426.5910610414595
 10
718.0144306689523
 20
415.82820916355104
 10
718.079226581485
 20
407.173312260692
 10
716.6937446168512
 20
402.5297132968573
 10
712.8754636695032
 20
396.13892670715114
  0
LWPOLYLINE
  5
C7
330
17
100
AcDbEntity
  8
MAP
100
AcDbPolyline
 90
4
 70
0
 10
408.331819743324
 20
438.09827320364695
 10
413.04215048616675
 20
438.20326760133264
 10
414.0723740398907
 20
437.1035619323701
 10
415.12707928126866
 20
433.22281260020293
  0
LWPOLYLINE
  5
C8
330
17
100
AcDbEntity
  8
MAP
100
AcDbPolyline
 90
2
 70
0
 10
583.516925392288
 20
438.48499529117225
 10
583.516925392288
 20
432.68416397829264
  0
LWPOLYLINE
  5
C9
330
17
100
AcDbEntity
  8
MAP
100
AcDbPolyline
 90
4
 70
0
 10
408.331819743324
 20
438.09827320364695
 10
406.14302848310416
 20
435.75073919783
 10
405.7482619667533
 20
429.971303694347
 10
403.2077520836136
 20
424.6596806621425
  0
LWPOLYLINE
  5
CA
330
17
100
AcDbEntity
  8
MAP
100
AcDbPolyline
 90
5
 70
0
 10
583.516925392288
 20
432.68416397829264
 10
584.6626585919656
 20
427.9389985005769
 10
584.6888467864909
 20
409.68074302833134
 10
585.7366447340079
 20
406.6349260102307
 10
586.9974241800157
 20
389.7580122629836
  0
LWPOLYLINE
  5
CB
330
17
100
AcDbEntity
  8
MAP
100
AcDbPolyline
 90
4
 70
0
 10
403.2077520836136
 20
424.6596806621425
 10
407.19602387075076
 20
428.9501753340667
 10
410.28638836260956
 20
429.79132829173307
 10
415.12707928126866
 20
433.22281260020293
  0
LWPOLYLINE
  5
CC
330
17
100
AcDbEntity
  8
MAP
100
AcDbPolyline
 90
3
 70
0
 10
394.9899077237009
 20
429.78374832185284
 10
392.0894920672611
 20
428.04349892798894
 10
392.0894920672611
 20
425.72316640283714
  0
LWPOLYLINE
  5
CD
330
17
100
AcDbEntity
  8
MAP
100
AcDbPolyline
 90
3
 70
0
 10
394.9899077237009
 20
429.78374832185284
 10
401.8304906127156
 20
427.4975406601403
 10
403.2077520836136
 20
424.6596806621425
  0
LWPOLYLINE
  5
CE
330
17
100
AcDbEntity
  8
MAP
100
AcDbPolyline
 90
4
 70
0
 10
394.9899077237009
 20
429.78374832185284
 10
395.8476302372844
 20
425.6276410837453
 10
398.80974603834835
 20
422.7168777441019
 10
403.2077520836136
 20
424.6596806621425
  0
LWPOLYLINE
  5
CF
330
17
100
AcDbEntity
  8
MAP
100
AcDbPolyline
 90
5
 70
0
 10
609.0405831689583
 20
426.88333266541304
 10
612.170680658201
 20
426.04916773800596
 10
623.2228765346841
 20
415.0011407122006
 10
630.2048238488644
 20
405.74033938890284
 10
634.5642409456286
 20
403.68000741389466
  0
LWPOLYLINE
  5
D0
330
17
100
AcDbEntity
  8
MAP
100
AcDbPolyline
 90
3
 70
0
 10
609.0405831689583
 20
426.88333266541304
 10
599.3008126354846
 20
423.51449770192846
 10
591.6380892303195
 20
423.4028338776853
  0
LWPOLYLINE
  5
D1
330
17
100
AcDbEntity
  8
MAP
100
AcDbPolyline
 90
3
 70
0
 10
403.2077520836136
 20
424.6596806621425
 10
406.784730552924
 20
422.45734891044174
 10
409.4919860058999
 20
416.4418363022298
  0
LWPOLYLINE
  5
D2
330
17
100
AcDbEntity
  8
MAP
100
AcDbPolyline
 90
4
 70
0
 10
575.3957615542565
 20
423.4028338776853
 10
574.0937469383417
 20
422.42130929616064
 10
568.2039916683885
 20
422.2197650432056
 10
566.1144314536492
 20
421.0825013525334
  0
LWPOLYLINE
  5
D3
330
17
100
AcDbEntity
  8
MAP
100
AcDbPolyline
 90
21
 70
0
 10
566.1144314536492
 20
421.0825013525334
 10
564.792348723902
 20
422.06578236140496
 10
559.720956530682
 20
422.3328952452118
 10
551.2127949525659
 20
424.7350868457593
 10
537.1242142504811
 20
432.4362636461928
 10
531.645246311375
 20
433.8087717318936
 10
525.684410128749
 20
433.67071351292515
 10
520.676153382424
 20
431.1618080816516
 10
518.2005160829325
 20
428.8313636614083
 10
516.4020702034638
 20
424.3927505621609
 10
516.3201508786511
 20
419.3200638469828
 10
519.932478285315
 20
413.91483587463284
 10
524.2480811300153
 20
411.8210087607781
 10
535.4293967072881
 20
411.7009798587072
 10
542.0922117819015
 20
409.0151524541423
 10
543.8093264260831
 20
407.2074941800675
 10
545.1351781056155
 20
404.3009818097068
 10
545.2096672469229
 20
400.0302441623975
 10
543.7534353962615
 20
395.4498813711839
 10
540.9705642962826
 20
392.2829561783669
 10
540.590773676979
 20
388.98456808793304
  0
LWPOLYLINE
  5
D4
330
17
100
AcDbEntity
  8
MAP
100
AcDbPolyline
 90
5
 70
0
 10
566.1144314536492
 20
421.0825013525334
 10
564.931316286802
 20
403.4649495763791
 10
563.8187157979978
 20
400.476734431371
 10
563.7273272903127
 20
392.7541827375085
 10
562.6339326659214
 20
389.7580122629836
  0
LWPOLYLINE
  5
D5
330
17
100
AcDbEntity
  8
MAP
100
AcDbPolyline
 90
6
 70
0
 10
689.0920552866968
 20
421.0825013525334
 10
687.7294971564406
 20
416.5005761350948
 10
682.6749206397035
 20
406.58618130651735
 10
674.5956411095524
 20
396.20922106340913
 10
657.6667444225278
 20
379.20526171946284
 10
655.4472336719951
 20
375.8360171120725
  0
LWPOLYLINE
  5
D6
330
17
100
AcDbEntity
  8
MAP
100
AcDbPolyline
 90
3
 70
0
 10
403.2077520836136
 20
424.6596806621425
 10
398.28561429717905
 20
419.25346476398903
 10
394.4098245924129
 20
418.7621688273816
  0
LWPOLYLINE
  5
D7
330
17
100
AcDbEntity
  8
MAP
100
AcDbPolyline
 90
5
 70
0
 10
403.2077520836136
 20
424.6596806621425
 10
401.9237130402498
 20
418.32320437105625
 10
404.93039524155563
 20
415.47498005996516
 10
408.1896502964381
 20
415.4602836330165
 10
409.4919860058999
 20
416.4418363022298
  0
LWPOLYLINE
  5
D8
330
17
100
AcDbEntity
  8
MAP
100
AcDbPolyline
 90
9
 70
0
 10
394.4098245924129
 20
418.7621688273816
 10
390.1921190068215
 20
418.6429666670122
 10
388.8311467134641
 20
417.8079867607693
 10
384.62514439906124
 20
413.5857286511625
 10
380.60132793652855
 20
406.7182865282825
 10
379.38209126509724
 20
402.9562301562514
 10
379.68759233754815
 20
398.860789181556
 10
382.14615787782145
 20
396.89104037573884
 10
387.1910122919405
 20
397.3635466509813
  0
LWPOLYLINE
  5
D9
330
17
100
AcDbEntity
  8
MAP
100
AcDbPolyline
 90
5
 70
0
 10
394.4098245924129
 20
418.7621688273816
 10
393.96260379042315
 20
413.7770653903846
 10
387.6172097996628
 20
403.4795427435676
 10
386.4290287270351
 20
399.6900755921037
 10
387.1910122919405
 20
397.3635466509813
  0
LWPOLYLINE
  5
DA
330
17
100
AcDbEntity
  8
MAP
100
AcDbPolyline
 90
5
 70
0
 10
409.4919860058999
 20
416.4418363022298
 10
413.7200208258464
 20
420.5141382623857
 10
417.28212020277545
 20
419.7848296437007
 10
422.5751216376939
 20
416.09808457183965
 10
424.57414741938686
 20
411.80117125192606
  0
LWPOLYLINE
  5
DB
330
17
100
AcDbEntity
  8
MAP
100
AcDbPolyline
 90
2
 70
0
 10
431.5351449948424
 20
416.4418363022298
 10
429.21481246969057
 20
411.80117125192606
  0
LWPOLYLINE
  5
DC
330
17
100
AcDbEntity
  8
MAP
100
AcDbPolyline
 90
3
 70
0
 10
409.4919860058999
 20
416.4418363022298
 10
416.6492685597567
 20
409.29846977785763
 10
418.77331610650725
 20
408.3206724641983
  0
LWPOLYLINE
  5
DD
330
17
100
AcDbEntity
  8
MAP
100
AcDbPolyline
 90
7
 70
0
 10
678.6505589235136
 20
414.1215037770779
 10
673.0713679021029
 20
417.22981556756906
 10
665.5465909474516
 20
419.7854850166313
 10
660.5034654787265
 20
419.8011142505412
 10
656.7185236089683
 20
418.57772823189794
 10
646.2429420465473
 20
412.78488727341977
 10
634.5642409456286
 20
403.68000741389466
  0
LWPOLYLINE
  5
DE
330
17
100
AcDbEntity
  8
MAP
100
AcDbPolyline
 90
2
 70
0
 10
424.57414741938686
 20
411.80117125192606
 10
418.77331610650725
 20
408.3206724641983
  0
LWPOLYLINE
  5
DF
330
17
100
AcDbEntity
  8
MAP
100
AcDbPolyline
 90
2
 70
0
 10
424.57414741938686
 20
411.80117125192606
 10
429.21481246969057
 20
411.80117125192606
  0
LWPOLYLINE
  5
E0
330
17
100
AcDbEntity
  8
MAP
100
AcDbPolyline
 90
3
 70
0
 10
429.21481246969057
 20
411.80117125192606
 10
430.29581954838227
 20
408.88830736378765
 10
430.37497873226647
 20
401.3596748887428
  0
LWPOLYLINE
  5
E1
330
17
100
AcDbEntity
  8
MAP
100
AcDbPolyline
 90
9
 70
0
 10
496.50445569909397
 20
411.80117125192606
 10
486.0170282872603
 20
405.73856524341596
 10
482.9951928582992
 20
402.7838083944389
 10
480.2863590069918
 20
396.9732355571281
 10
480.9246934749603
 20
390.6388951733185
 10
479.98725029969813
 20
385.05960259756307
 10
476.3690209648986
 20
377.8925615638911
 10
471.59032025933067
 20
372.9359435853917
 10
470.2073537473731
 20
369.8418247554303
  0
LWPOLYLINE
  5
E2
330
17
100
AcDbEntity
  8
MAP
100
AcDbPolyline
 90
3
 70
0
 10
496.50445569909397
 20
411.80117125192606
 10
498.62850324584457
 20
410.82337393826674
 10
515.0671159003086
 20
395.5588435758632
  0
LWPOLYLINE
  5
E3
330
17
100
AcDbEntity
  8
MAP
100
AcDbPolyline
 90
2
 70
0
 10
418.77331610650725
 20
408.3206724641983
 10
418.77331610650725
 20
403.68000741389466
  0
LWPOLYLINE
  5
E4
330
17
100
AcDbEntity
  8
MAP
100
AcDbPolyline
 90
4
 70
0
 10
691.4123878118487
 20
408.3206724641983
 10
694.4626058437506
 20
405.3622607561658
 10
710.9595981469049
 20
397.70703885325787
 10
712.8754636695032
 20
396.13892670715114
  0
LWPOLYLINE
  5
E5
330
17
100
AcDbEntity
  8
MAP
100
AcDbPolyline
 90
6
 70
0
 10
418.77331610650725
 20
403.68000741389466
 10
414.9990431577084
 20
402.5278339929956
 10
402.2576846273302
 20
402.4959714741307
 10
395.63214822515704
 20
400.01609746267667
 10
393.04757701653654
 20
398.04198875410646
 10
387.1910122919405
 20
397.3635466509813
  0
LWPOLYLINE
  5
E6
330
17
100
AcDbEntity
  8
MAP
100
AcDbPolyline
 90
2
 70
0
 10
418.77331610650725
 20
403.68000741389466
 10
430.37497873226647
 20
401.3596748887428
  0
LWPOLYLINE
  5
E7
330
17
100
AcDbEntity
  8
MAP
100
AcDbPolyline
 90
3
 70
0
 10
634.5642409456286
 20
403.68000741389466
 10
635.1383201803957
 20
399.68677655456565
 10
650.8065686216914
 20
381.6368484249521
  0
LWPOLYLINE
  5
E8
330
17
100
AcDbEntity
  8
MAP
100
AcDbPolyline
 90
5
 70
0
 10
430.37497873226647
 20
401.3596748887428
 10
436.4538908510372
 20
395.3001254849594
 10
464.6153768793143
 20
374.1259986038139
 10
468.7785785438443
 20
371.8976577866432
 10
470.2073537473731
 20
369.8418247554303
  0
LWPOLYLINE
  5
E9
330
17
100
AcDbEntity
  8
MAP
100
AcDbPolyline
 90
9
 70
0
 10
387.1910122919405
 20
397.3635466509813
 10
382.0117262519763
 20
394.3836759685312
 10
379.3373055069219
 20
386.0048538474789
 10
379.3431971163015
 20
364.2971198700479
 10
380.41365806321335
 20
361.26561333976963
 10
380.5745234859815
 20
354.38243403463787
 10
381.6955093369429
 20
348.765676125495
 10
383.8325290643637
 20
341.8323202415722
 10
383.96832822922966
 20
334.0700316593394
  0
LWPOLYLINE
  5
EA
330
17
100
AcDbEntity
  8
MAP
100
AcDbPolyline
 90
3
 70
0
 10
515.0671159003086
 20
395.5588435758632
 10
517.452323113823
 20
395.28685599097594
 10
530.1492773137957
 20
389.7580122629836
  0
LWPOLYLINE
  5
EB
330
17
100
AcDbEntity
  8
MAP
100
AcDbPolyline
 90
6
 70
0
 10
515.0671159003086
 20
395.5588435758632
 10
513.3652948117222
 20
392.78446318583644
 10
506.16346261702864
 20
385.3296664578582
 10
501.33299136982663
 20
376.89261986414704
 10
497.7404403028513
 20
367.0729855012377
 10
494.1841231739421
 20
350.8924424666902
  0
LWPOLYLINE
  5
EC
330
17
100
AcDbEntity
  8
MAP
100
AcDbPolyline
 90
6
 70
0
 10
712.8754636695032
 20
396.13892670715114
 10
711.4728940339859
 20
395.4290570574658
 10
710.868161069213
 20
393.20574507288467
 10
704.5038614848755
 20
382.94788120389524
 10
695.6792016711702
 20
358.2361397549333
 10
687.9318890241209
 20
346.8318605476745
  0
LWPOLYLINE
  5
ED
330
17
100
AcDbEntity
  8
MAP
100
AcDbPolyline
 90
3
 70
0
 10
712.8754636695032
 20
396.13892670715114
 10
723.9401096739263
 20
391.8165263170605
 10
728.5377082142782
 20
388.5978460004077
  0
LWPOLYLINE
  5
EE
330
17
100
AcDbEntity
  8
MAP
100
AcDbPolyline
 90
3
 70
0
 10
530.1492773137957
 20
389.7580122629836
 10
537.4630835050239
 20
389.74682479878896
 10
540.590773676979
 20
388.98456808793304
  0
LWPOLYLINE
  5
EF
330
17
100
AcDbEntity
  8
MAP
100
AcDbPolyline
 90
5
 70
0
 10
530.1492773137957
 20
389.7580122629836
 10
529.0119615319227
 20
387.66258426059426
 10
529.3038069761499
 20
382.66941974787113
 10
531.376822927536
 20
379.2505939540282
 10
535.9501086266753
 20
375.8360171120725
  0
LWPOLYLINE
  5
F0
330
17
100
AcDbEntity
  8
MAP
100
AcDbPolyline
 90
4
 70
0
 10
562.6339326659214
 20
389.7580122629836
 10
553.9902101462523
 20
389.6818316269469
 10
550.9627730477688
 20
388.61312222037276
 10
540.590773676979
 20
388.98456808793304
  0
LWPOLYLINE
  5
F1
330
17
100
AcDbEntity
  8
MAP
100
AcDbPolyline
 90
5
 70
0
 10
562.6339326659214
 20
389.7580122629836
 10
562.5243977095024
 20
378.62827874851024
 10
558.0223849413431
 20
356.4236179095719
 10
557.8798088118962
 20
349.60568756592045
 10
555.9629766561098
 20
342.4812370630148
  0
LWPOLYLINE
  5
F2
330
17
100
AcDbEntity
  8
MAP
100
AcDbPolyline
 90
7
 70
0
 10
586.9974241800157
 20
389.7580122629836
 10
592.22727514939
 20
387.90247288559465
 10
599.4006326506351
 20
376.2198379851156
 10
606.1060774511278
 20
369.5228679596642
 10
612.3202272479261
 20
365.7716197984204
 10
621.5699228631854
 20
363.0976498948791
 10
639.2049059959322
 20
364.23435448631335
  0
LWPOLYLINE
  5
F3
330
17
100
AcDbEntity
  8
MAP
100
AcDbPolyline
 90
8
 70
0
 10
586.9974241800157
 20
389.7580122629836
 10
586.0610822315833
 20
385.143876874188
 10
588.4651416407744
 20
379.2236523841739
 10
595.7887206852965
 20
369.2892264803251
 10
597.2747444610488
 20
362.23970965208656
 10
595.9013996936542
 20
355.91261173864615
 10
590.6917974892983
 20
350.28972862473836
 10
589.3177567051677
 20
345.6716942850986
  0
LWPOLYLINE
  5
F4
330
17
100
AcDbEntity
  8
MAP
100
AcDbPolyline
 90
5
 70
0
 10
540.590773676979
 20
388.98456808793304
 10
541.6956123891952
 20
386.7582366582633
 10
541.604910114836
 20
380.7831400142491
 10
539.6227656770195
 20
377.3824169433618
 10
535.9501086266753
 20
375.8360171120725
  0
LWPOLYLINE
  5
F5
330
17
100
AcDbEntity
  8
MAP
100
AcDbPolyline
 90
4
 70
0
 10
728.5377082142782
 20
388.5978460004077
 10
730.9407852668908
 20
388.30329324172396
 10
739.7519458694954
 20
383.1600352215781
 10
743.6198696277651
 20
374.6758508494966
  0
LWPOLYLINE
  5
F6
330
17
100
AcDbEntity
  8
MAP
100
AcDbPolyline
 90
5
 70
0
 10
728.5377082142782
 20
388.5978460004077
 10
723.0381491635867
 20
373.6185269149772
 10
719.1332975639526
 20
358.84152392686644
 10
707.930959943625
 20
337.5957009564699
 10
707.0746323566236
 20
333.48994852805146
  0
LWPOLYLINE
  5
F7
330
17
100
AcDbEntity
  8
MAP
100
AcDbPolyline
 90
9
 70
0
 10
435.0156437825702
 20
386.27751347525583
 10
431.9140889314028
 20
383.28937201667674
 10
426.37737262788846
 20
379.8946560160947
 10
421.5429911221607
 20
374.99229726003716
 10
420.09543632419775
 20
372.1204672339515
 10
419.9343869726938
 20
366.11292846028374
 10
423.5572456639812
 20
356.33142838381565
 10
432.12829147662586
 20
341.6566808108136
 10
436.1758100451461
 20
336.39036418449126
  0
LWPOLYLINE
  5
F8
330
17
100
AcDbEntity
  8
MAP
100
AcDbPolyline
 90
3
 70
0
 10
759.862197303828
 20
381.6368484249521
 10
757.8285931182146
 20
380.54316623918976
 10
755.2215322535243
 20
374.6758508494966
  0
LWPOLYLINE
  5
F9
330
17
100
AcDbEntity
  8
MAP
100
AcDbPolyline
 90
7
 70
0
 10
535.9501086266753
 20
375.8360171120725
 10
534.9579915763121
 20
373.8045757202178
 10
535.9056023556544
 20
370.83129896843167
 10
534.6506999440587
 20
367.9390585915877
 10
525.8128729362487
 20
356.22403552936447
 10
523.3690218163346
 20
347.8420096412637
 10
523.6854938508727
 20
343.6828378349685
  0
LWPOLYLINE
  5
FA
330
17
100
AcDbEntity
  8
MAP
100
AcDbPolyline
 90
2
 70
0
 10
655.4472336719951
 20
375.8360171120725
 10
639.2049059959322
 20
364.23435448631335
  0
LWPOLYLINE
  5
FB
330
17
100
AcDbEntity
  8
MAP
100
AcDbPolyline
 90
6
 70
0
 10
655.4472336719951
 20
375.8360171120725
 10
662.7177975086777
 20
368.54330209932414
 10
665.5562229050187
 20
364.5668758142719
 10
676.4893978887628
 20
353.6468122280723
 10
682.280590628553
 20
348.98933235078596
 10
683.2912239738172
 20
346.8318605476745
  0
LWPOLYLINE
  5
FC
330
17
100
AcDbEntity
  8
MAP
100
AcDbPolyline
 90
3
 70
0
 10
743.6198696277651
 20
374.6758508494966
 10
747.3304315675223
 20
373.5252538448134
 10
755.2215322535243
 20
374.6758508494966
  0
LWPOLYLINE
  5
FD
330
17
100
AcDbEntity
  8
MAP
100
AcDbPolyline
 90
8
 70
0
 10
743.6198696277651
 20
374.6758508494966
 10
741.3430229340853
 20
370.40182137634537
 10
742.2959705957427
 20
365.7303190643999
 10
740.1829383139146
 20
358.80059563713877
 10
740.0777937451513
 20
347.5403433865672
 10
738.8988745572489
 20
342.81152713838617
 10
730.700983154269
 20
322.7300723989771
 10
728.5377082142782
 20
320.14803650842833
  0
LWPOLYLINE
  5
FE
330
17
100
AcDbEntity
  8
MAP
100
AcDbPolyline
 90
7
 70
0
 10
755.2215322535243
 20
374.6758508494966
 10
755.7056389026504
 20
373.1480910511305
 10
761.1196720987213
 20
367.6276625053641
 10
763.8821830902949
 20
365.9593974931269
 10
773.0643304088628
 20
356.8612251526992
 10
782.0244288951014
 20
349.70074667839054
 10
783.0655225553464
 20
347.4119436789625
  0
LWPOLYLINE
  5
FF
330
17
100
AcDbEntity
  8
MAP
100
AcDbPolyline
 90
4
 70
0
 10
470.2073537473731
 20
369.8418247554303
 10
472.6864586440851
 20
369.95024479525864
 10
476.1842145455812
 20
368.2712915413835
 10
480.5107350792973
 20
362.1626290174277
  0
LWPOLYLINE
  5
100
330
17
100
AcDbEntity
  8
MAP
100
AcDbPolyline
 90
4
 70
0
 10
470.2073537473731
 20
369.8418247554303
 10
465.7575377471313
 20
360.23844151108636
 10
457.55909666991977
 20
352.99054798618477
 10
457.05880277151266
 20
351.4725255979782
  0
LWPOLYLINE
  5
101
330
17
100
AcDbEntity
  8
MAP
100
AcDbPolyline
 90
3
 70
0
 10
470.2073537473731
 20
369.8418247554303
 10
473.07921129540125
 20
365.776876696878
 10
480.5107350792973
 20
362.1626290174277
  0
LWPOLYLINE
  5
102
330
17
100
AcDbEntity
  8
MAP
100
AcDbPolyline
 90
8
 70
0
 10
639.2049059959322
 20
364.23435448631335
 10
636.5414665469236
 20
359.2748537331151
 10
623.1373135479085
 20
351.8184368830949
 10
608.6557206794488
 20
346.9619680327452
 10
602.2366859415458
 20
345.69336169827096
 10
594.0453871372542
 20
344.51199754496326
 10
590.6478328405593
 20
344.68771366706665
 10
589.3177567051677
 20
345.6716942850986
  0
LWPOLYLINE
  5
103
330
17
100
AcDbEntity
  8
MAP
100
AcDbPolyline
 90
4
 70
0
 10
480.5107350792973
 20
362.1626290174277
 10
485.8843139656367
 20
359.76197010268265
 10
486.9438794088177
 20
358.48825502408295
 10
487.4551588510018
 20
355.1850576382212
  0
LWPOLYLINE
  5
104
330
17
100
AcDbEntity
  8
MAP
100
AcDbPolyline
 90
3
 70
0
 10
480.5107350792973
 20
362.1626290174277
 10
483.8014155289196
 20
357.21956915133467
 10
487.4551588510018
 20
355.1850576382212
  0
LWPOLYLINE
  5
105
330
17
100
AcDbEntity
  8
MAP
100
AcDbPolyline
 90
9
 70
0
 10
849.1949995221739
 20
359.59368943600964
 10
833.5870849831813
 20
359.6708775190137
 10
831.3776881426664
 20
360.6299262092116
 10
810.6779061899022
 20
363.09793610762705
 10
807.6632299819063
 20
364.2105365964313
 10
800.782240138345
 20
364.0890060264504
 10
791.6498341510242
 20
358.86689822012625
 10
784.5346680040676
 20
350.5212789026185
 10
783.0655225553464
 20
347.4119436789625
  0
LWPOLYLINE
  5
106
330
17
100
AcDbEntity
  8
MAP
100
AcDbPolyline
 90
13
 70
0
 10
849.1949995221739
 20
359.59368943600964
 10
855.2482734461627
 20
359.61785149615775
 10
858.1905654701898
 20
360.5817691745196
 10
861.2287141806394
 20
359.5987118149257
 10
880.2783633500983
 20
359.5833078536506
 10
884.1385158405918
 20
358.44678458888507
 10
893.6437361509727
 20
358.39175370323443
 10
896.6535758779115
 20
357.29354498446446
 10
900.9301383638972
 20
357.16232437832326
 10
908.5346326054902
 20
354.6096859910779
 10
920.0215823312957
 20
348.88321737695594
 10
933.6737077251222
 20
337.9281894653464
 10
937.3676354779438
 20
336.39036418449126
  0
LWPOLYLINE
  5
107
330
17
100
AcDbEntity
  8
MAP
100
AcDbPolyline
 90
6
 70
0
 10
849.1949995221739
 20
359.59368943600964
 10
849.1759317573075
 20
318.9183516681067
 10
848.084594044006
 20
315.9079954952161
 10
847.8723897760086
 20
309.93668803499276
 10
846.5713280674888
 20
306.1552766645283
 10
844.5543344718702
 20
305.06587509494136
  0
LWPOLYLINE
  5
108
330
17
100
AcDbEntity
  8
MAP
100
AcDbPolyline
 90
3
 70
0
 10
487.4551588510018
 20
355.1850576382212
 10
489.8493152008092
 20
354.5238610042892
 10
494.1841231739421
 20
350.8924424666902
  0
LWPOLYLINE
  5
109
330
17
100
AcDbEntity
  8
MAP
100
AcDbPolyline
 90
5
 70
0
 10
487.4551588510018
 20
355.1850576382212
 10
487.4378287916488
 20
352.7234594386745
 10
490.2414582731295
 20
349.69458320968226
 10
492.502373572862
 20
349.27282243582397
 10
494.1841231739421
 20
350.8924424666902
  0
LWPOLYLINE
  5
10A
330
17
100
AcDbEntity
  8
MAP
100
AcDbPolyline
 90
4
 70
0
 10
457.05880277151266
 20
351.4725255979782
 10
455.554161052036
 20
351.00781596660835
 10
445.52847618232016
 20
342.46647823521164
 10
436.1758100451461
 20
336.39036418449126
  0
LWPOLYLINE
  5
10B
330
17
100
AcDbEntity
  8
MAP
100
AcDbPolyline
 90
5
 70
0
 10
457.05880277151266
 20
351.4725255979782
 10
462.7981591828066
 20
343.42193733722803
 10
473.8629461322132
 20
332.3847726910318
 10
481.7737414995788
 20
328.40585936189547
 10
488.96337499235045
 20
326.5289509525959
  0
LWPOLYLINE
  5
10C
330
17
100
AcDbEntity
  8
MAP
100
AcDbPolyline
 90
6
 70
0
 10
494.1841231739421
 20
350.8924424666902
 10
495.2202737498859
 20
349.59943380457764
 10
501.81628328757307
 20
346.89988047764433
 10
518.1396874481933
 20
346.70781059442555
 10
521.9281045506826
 20
345.4604531836758
 10
523.6854938508727
 20
343.6828378349685
  0
LWPOLYLINE
  5
10D
330
17
100
AcDbEntity
  8
MAP
100
AcDbPolyline
 90
2
 70
0
 10
494.1841231739421
 20
350.8924424666902
 10
494.1841231739421
 20
344.51152802252267
  0
LWPOLYLINE
  5
10E
330
17
100
AcDbEntity
  8
MAP
100
AcDbPolyline
 90
2
 70
0
 10
683.2912239738172
 20
346.8318605476745
 10
687.9318890241209
 20
346.8318605476745
  0
LWPOLYLINE
  5
10F
330
17
100
AcDbEntity
  8
MAP
100
AcDbPolyline
 90
6
 70
0
 10
683.2912239738172
 20
346.8318605476745
 10
682.9523580861485
 20
344.3714557655689
 10
678.1291817557682
 20
335.96632001392146
 10
671.9132095039687
 20
330.55149903259763
 10
671.6670137896267
 20
321.11742077839006
 10
670.5293950854821
 20
318.98787024585243
  0
LWPOLYLINE
  5
110
330
17
100
AcDbEntity
  8
MAP
100
AcDbPolyline
 90
2
 70
0
 10
687.9318890241209
 20
346.8318605476745
 10
707.0746323566236
 20
333.48994852805146
  0
LWPOLYLINE
  5
111
330
17
100
AcDbEntity
  8
MAP
100
AcDbPolyline
 90
4
 70
0
 10
523.6854938508727
 20
343.6828378349685
 10
526.2684294800632
 20
345.62080519274275
 10
551.1448181417545
 20
345.6517929307331
 10
555.9629766561098
 20
342.4812370630148
  0
LWPOLYLINE
  5
112
330
17
100
AcDbEntity
  8
MAP
100
AcDbPolyline
 90
7
 70
0
 10
589.3177567051677
 20
345.6716942850986
 10
585.9366026288089
 20
345.4835559260102
 10
579.896179776099
 20
343.3644939260781
 10
570.4051959713427
 20
343.3125981843416
 10
566.545481953135
 20
342.19208690688595
 10
559.2451046762675
 20
343.3433476204351
 10
555.9629766561098
 20
342.4812370630148
  0
LWPOLYLINE
  5
113
330
17
100
AcDbEntity
  8
MAP
100
AcDbPolyline
 90
6
 70
0
 10
783.0655225553464
 20
347.4119436789625
 10
781.1145771774943
 20
343.74716267194975
 10
777.5829018001234
 20
339.9976211876831
 10
770.6248349879475
 20
327.24263653752837
 10
766.6301592763086
 20
309.7852617047696
 10
763.3426960915558
 20
305.06587509494136
  0
LWPOLYLINE
  5
114
330
17
100
AcDbEntity
  8
MAP
100
AcDbPolyline
 90
6
 70
0
 10
783.0655225553464
 20
347.4119436789625
 10
795.6588356799315
 20
336.7358601347218
 10
814.6556215924314
 20
324.3759844630699
 10
837.1290428949133
 20
307.93326898781567
 10
842.0030254014134
 20
307.22392354425415
 10
844.5543344718702
 20
305.06587509494136
  0
LWPOLYLINE
  5
115
330
17
100
AcDbEntity
  8
MAP
100
AcDbPolyline
 90
5
 70
0
 10
494.1841231739421
 20
344.51152802252267
 10
506.5030259085555
 20
343.2364153777375
 10
509.500121609563
 20
342.20122454677505
 10
520.6060012170777
 20
342.28820574698517
 10
523.6854938508727
 20
343.6828378349685
  0
LWPOLYLINE
  5
116
330
17
100
AcDbEntity
  8
MAP
100
AcDbPolyline
 90
3
 70
0
 10
494.1841231739421
 20
344.51152802252267
 10
490.8958690728349
 20
336.3088579868666
 10
488.96337499235045
 20
326.5289509525959
  0
LWPOLYLINE
  5
117
330
17
100
AcDbEntity
  8
MAP
100
AcDbPolyline
 90
5
 70
0
 10
523.6854938508727
 20
343.6828378349685
 10
522.130602219239
 20
340.71795091212823
 10
522.0098533893
 20
330.5224359466556
 10
520.925471856926
 20
327.5607775088804
 10
520.8679472131882
 20
322.4683690335802
  0
LWPOLYLINE
  5
118
330
17
100
AcDbEntity
  8
MAP
100
AcDbPolyline
 90
3
 70
0
 10
523.6854938508727
 20
343.6828378349685
 10
526.6143175839844
 20
342.2077689250342
 10
555.9629766561098
 20
342.4812370630148
  0
LWPOLYLINE
  5
119
330
17
100
AcDbEntity
  8
MAP
100
AcDbPolyline
 90
5
 70
0
 10
555.9629766561098
 20
342.4812370630148
 10
556.815267231269
 20
340.17998811176284
 10
556.9849409216532
 20
334.3274732702334
 10
559.0917417603247
 20
327.5882371998652
 10
559.1534338781937
 20
314.92728832683673
  0
LWPOLYLINE
  5
11A
330
17
100
AcDbEntity
  8
MAP
100
AcDbPolyline
 90
7
 70
0
 10
937.3676354779438
 20
336.39036418449126
 10
941.0670194048831
 20
334.84846231328913
 10
949.7625342093494
 20
328.6114798139333
 10
957.6908457913047
 20
320.6309764934773
 10
960.4983317526847
 20
314.8529783047098
 10
959.9143084896493
 20
305.93292985282125
 10
961.7311269920382
 20
298.10487751948585
  0
LWPOLYLINE
  5
11B
330
17
100
AcDbEntity
  8
MAP
100
AcDbPolyline
 90
6
 70
0
 10
937.3676354779438
 20
336.39036418449126
 10
937.5560429893964
 20
333.0198852264635
 10
943.0101745243917
 20
325.79563074178327
 10
948.7189611522048
 20
314.3662079696201
 10
951.2088670837837
 20
306.77626101420253
 10
952.4497968914308
 20
296.94471125690995
  0
LWPOLYLINE
  5
11C
330
17
100
AcDbEntity
  8
MAP
100
AcDbPolyline
 90
5
 70
0
 10
436.1758100451461
 20
336.39036418449126
 10
428.1485380975999
 20
330.6732648243673
 10
419.5873263325608
 20
322.0974523549223
 10
416.9010263584048
 20
317.1464976979237
 10
414.1326510562036
 20
315.5073714581247
  0
LWPOLYLINE
  5
11D
330
17
100
AcDbEntity
  8
MAP
100
AcDbPolyline
 90
5
 70
0
 10
436.1758100451461
 20
336.39036418449126
 10
443.38304900770686
 20
323.6044661575831
 10
455.64850543062687
 20
308.7975581825116
 10
461.54414724526237
 20
304.2428159329107
 10
476.20154610401534
 20
297.5247943881979
  0
LWPOLYLINE
  5
11E
330
17
100
AcDbEntity
  8
MAP
100
AcDbPolyline
 90
6
 70
0
 10
383.96832822922966
 20
334.0700316593394
 10
387.6373918317003
 20
332.55083808998114
 10
390.10219209798316
 20
330.232979058562
 10
393.9697914519766
 20
324.09798963582784
 10
397.48900549511495
 20
320.39769480206706
 10
400.2106559052925
 20
315.5073714581247
  0
LWPOLYLINE
  5
11F
330
17
100
AcDbEntity
  8
MAP
100
AcDbPolyline
 90
18
 70
0
 10
383.96832822922966
 20
334.0700316593394
 10
382.83066249956374
 20
331.93518396012695
 10
382.7686866183008
 20
319.79924067992675
 10
378.27582072645464
 20
303.4177952016896
 10
376.8800690694905
 20
292.7029883229793
 10
375.92104809400803
 20
290.4941633226868
 10
375.7032447424983
 20
284.50356326995797
 10
374.74422376701597
 20
282.29473826966546
 10
374.78606499283063
 20
261.5109607844396
 10
378.6978403689414
 20
250.1009487234937
 10
388.51942461925694
 20
240.38901977647453
 10
395.7178687407452
 20
236.7956137088983
 10
400.3802611279213
 20
235.4684321469293
 10
419.44168290685997
 20
235.56339604306297
 10
434.5066109786832
 20
239.04021861384172
 10
444.4732373830343
 20
242.24223771910698
 10
448.678829950013
 20
242.57503285292043
 10
451.25797145863305
 20
244.7372294409935
  0
LWPOLYLINE
  5
120
330
17
100
AcDbEntity
  8
MAP
100
AcDbPolyline
 90
5
 70
0
 10
707.0746323566236
 20
333.48994852805146
 10
705.6674513403641
 20
332.794178365158
 10
703.3569939870803
 20
329.5970195613828
 10
690.8837636873725
 20
305.7844725457785
 10
687.9318890241209
 20
302.74554256978956
  0
LWPOLYLINE
  5
121
330
17
100
AcDbEntity
  8
MAP
100
AcDbPolyline
 90
3
 70
0
 10
707.0746323566236
 20
333.48994852805146
 10
722.5627106657276
 20
322.81732695194546
 10
728.5377082142782
 20
320.14803650842833
  0
LWPOLYLINE
  5
122
330
17
100
AcDbEntity
  8
MAP
100
AcDbPolyline
 90
7
 70
0
 10
488.96337499235045
 20
326.5289509525959
 10
487.3949276390417
 20
324.6068326617316
 10
487.0040536659139
 20
321.3397295641924
 10
484.63747674977884
 20
315.4619419851282
 10
478.160867430452
 20
302.71401577660146
 10
477.7699934573241
 20
299.4469126790622
 10
476.20154610401534
 20
297.5247943881979
  0
LWPOLYLINE
  5
123
330
17
100
AcDbEntity
  8
MAP
100
AcDbPolyline
 90
5
 70
0
 10
488.96337499235045
 20
326.5289509525959
 10
499.92001609243744
 20
323.6470066770795
 10
505.90618790661307
 20
323.6085070810735
 10
508.8820587472873
 20
322.5126680950802
 10
520.8679472131882
 20
322.4683690335802
  0
LWPOLYLINE
  5
124
330
17
100
AcDbEntity
  8
MAP
100
AcDbPolyline
 90
5
 70
0
 10
520.8679472131882
 20
322.4683690335802
 10
525.1179994343416
 20
322.34130495087845
 10
540.8990145191627
 20
316.8121348542904
 10
547.2539030068326
 20
315.5340363553046
 10
559.1534338781937
 20
314.92728832683673
  0
LWPOLYLINE
  5
125
330
17
100
AcDbEntity
  8
MAP
100
AcDbPolyline
 90
5
 70
0
 10
520.8679472131882
 20
322.4683690335802
 10
519.7313437587527
 20
316.9063498638446
 10
519.5759191259718
 20
310.07608229969475
 10
518.6178755695918
 20
307.8874244759761
 10
518.5476146880364
 20
302.74554256978956
  0
LWPOLYLINE
  5
126
330
17
100
AcDbEntity
  8
MAP
100
AcDbPolyline
 90
5
 70
0
 10
728.5377082142782
 20
320.14803650842833
 10
726.7906626290285
 20
318.3402971651005
 10
725.871325241136
 20
315.3459582492495
 10
721.0281489187057
 20
308.0703771754661
 10
718.0962118510948
 20
305.06587509494136
  0
LWPOLYLINE
  5
127
330
17
100
AcDbEntity
  8
MAP
100
AcDbPolyline
 90
2
 70
0
 10
728.5377082142782
 20
320.14803650842833
 10
737.8190383148855
 20
313.1870389329728
  0
LWPOLYLINE
  5
128
330
17
100
AcDbEntity
  8
MAP
100
AcDbPolyline
 90
12
 70
0
 10
670.5293950854821
 20
318.98787024585243
 10
667.9665455431391
 20
316.8280991930487
 10
664.6855747909771
 20
316.4020261044176
 10
661.8504995880926
 20
314.8997913438973
 10
659.5325212535853
 20
311.58545198888595
 10
654.3052051638351
 20
307.6282701047892
 10
649.2627454603146
 20
305.1945296503108
 10
639.1526375599909
 20
302.47461843751483
 10
631.3516401109747
 20
298.35354004427967
 10
627.8391071211005
 20
294.633562693924
 10
625.4100660102624
 20
289.58915645853335
 10
625.2829108450212
 20
281.862549843423
  0
LWPOLYLINE
  5
129
330
17
100
AcDbEntity
  8
MAP
100
AcDbPolyline
 90
2
 70
0
 10
670.5293950854821
 20
318.98787024585243
 10
687.9318890241209
 20
302.74554256978956
  0
LWPOLYLINE
  5
12A
330
17
100
AcDbEntity
  8
MAP
100
AcDbPolyline
 90
13
 70
0
 10
400.2106559052925
 20
315.5073714581247
 10
403.8929794400029
 20
313.9782416863033
 10
407.04975551625796
 20
311.1803281126087
 10
418.09601115973413
 20
304.5074036913627
 10
426.5400733519214
 20
295.96535262733937
 10
428.7884870024347
 20
292.58096623037943
 10
431.39143052854325
 20
285.02772109133065
 10
433.7343050147382
 20
275.6404678988653
 10
434.0001499928284
 20
270.57173270448635
 10
436.44502052167405
 20
262.08986962116086
 10
438.5236728058155
 20
258.6351657638828
 10
450.4397939687032
 20
247.85089708809798
 10
451.25797145863305
 20
244.7372294409935
  0
LWPOLYLINE
  5
12B
330
17
100
AcDbEntity
  8
MAP
100
AcDbPolyline
 90
5
 70
0
 10
400.2106559052925
 20
315.5073714581247
 10
397.6612202877862
 20
313.34903444047706
 10
393.1632365672601
 20
311.73829914916166
 10
389.46718640719524
 20
308.22249888765447
 10
382.80816196665376
 20
294.6243787317581
  0
LWPOLYLINE
  5
12C
330
17
100
AcDbEntity
  8
MAP
100
AcDbPolyline
 90
2
 70
0
 10
559.1534338781937
 20
314.92728832683673
 10
566.1144314536492
 20
314.3472051955487
  0
LWPOLYLINE
  5
12D
330
17
100
AcDbEntity
  8
MAP
100
AcDbPolyline
 90
3
 70
0
 10
559.1534338781937
 20
314.92728832683673
 10
558.0157495405455
 20
311.0491345785013
 10
557.4131844843298
 20
296.36462812562195
  0
LWPOLYLINE
  5
12E
330
17
100
AcDbEntity
  8
MAP
100
AcDbPolyline
 90
3
 70
0
 10
737.8190383148855
 20
313.1870389329728
 10
740.2509788461008
 20
312.88262956270705
 10
758.7020310412521
 20
303.90570883236546
  0
LWPOLYLINE
  5
12F
330
17
100
AcDbEntity
  8
MAP
100
AcDbPolyline
 90
5
 70
0
 10
737.8190383148855
 20
313.1870389329728
 10
732.9568512696582
 20
305.07104262115246
 10
729.0167523700532
 20
300.793929947357
 10
725.7218058893824
 20
295.42082707036315
 10
722.7368769013985
 20
294.6243787317581
  0
LWPOLYLINE
  5
130
330
17
100
AcDbEntity
  8
MAP
100
AcDbPolyline
 90
5
 70
0
 10
718.0962118510948
 20
305.06587509494136
 10
715.9408364444253
 20
304.05607853864615
 10
713.7090758711577
 20
300.6977557885745
 10
704.0101350654203
 20
290.99314760051976
 10
701.853884175032
 20
289.9837136814544
  0
LWPOLYLINE
  5
131
330
17
100
AcDbEntity
  8
MAP
100
AcDbPolyline
 90
2
 70
0
 10
718.0962118510948
 20
305.06587509494136
 10
722.7368769013985
 20
294.6243787317581
  0
LWPOLYLINE
  5
132
330
17
100
AcDbEntity
  8
MAP
100
AcDbPolyline
 90
3
 70
0
 10
763.3426960915558
 20
305.06587509494136
 10
760.004045657167
 20
304.8872334138901
 10
758.7020310412521
 20
303.90570883236546
  0
LWPOLYLINE
  5
133
330
17
100
AcDbEntity
  8
MAP
100
AcDbPolyline
 90
3
 70
0
 10
763.3426960915558
 20
305.06587509494136
 10
763.1713958390311
 20
301.7558577257687
 10
761.0223635664039
 20
299.26504378206175
  0
LWPOLYLINE
  5
134
330
17
100
AcDbEntity
  8
MAP
100
AcDbPolyline
 90
29
 70
0
 10
844.5543344718702
 20
305.06587509494136
 10
844.3580103423828
 20
301.66741670977297
 10
838.6046920548129
 20
294.4889922590869
 10
819.9415582819524
 20
284.93974797812126
 10
812.5872988168616
 20
277.6368669537283
 10
810.0180409105978
 20
272.61147604484654
 10
808.8026136869087
 20
267.89525473164133
 10
805.0345357306288
 20
247.70742808631724
 10
800.3162686608935
 20
235.74268428860748
 10
797.1309086504444
 20
230.97249122708587
 10
789.7531499785133
 20
223.6008003855101
 10
782.2788896805646
 20
218.54270771669127
 10
775.0881100288863
 20
214.9004643405067
 10
761.4624833091485
 20
209.99145911958425
 10
750.1972766417256
 20
209.8850563631179
 10
747.1705015030375
 20
208.79140949907168
 10
742.8316553438623
 20
208.77900042832943
 10
738.9527350212728
 20
209.91561894582077
 10
727.6543153010155
 20
209.94183829968628
 10
723.775394978426
 20
211.07845681717765
 10
716.8300422124618
 20
211.11274888236395
 10
713.8057901200706
 20
212.21248691899933
 10
704.2592087764041
 20
212.26755401365565
 10
701.2215224355409
 20
213.33485890542968
 10
696.0414422946396
 20
213.39504884661915
 10
680.0667597476912
 20
209.9567018354602
 10
673.9946494561352
 20
209.9144480588474
 10
667.5622413899033
 20
208.6568628006659
 10
665.1152858601279
 20
206.45174277598812
  0
LWPOLYLINE
  5
135
330
17
100
AcDbEntity
  8
MAP
100
AcDbPolyline
 90
3
 70
0
 10
758.7020310412521
 20
303.90570883236546
 10
758.92380216387
 20
301.5967891105481
 10
761.0223635664039
 20
299.26504378206175
  0
LWPOLYLINE
  5
136
330
17
100
AcDbEntity
  8
MAP
100
AcDbPolyline
 90
8
 70
0
 10
518.5476146880364
 20
302.74554256978956
 10
508.20140216471674
 20
302.5559463665164
 10
500.0805138916404
 20
299.091239077317
 10
496.1785781489346
 20
295.92756386873305
 10
492.3465634649741
 20
294.692381191519
 10
481.9879998081705
 20
294.7161542013027
 10
478.15612273206386
 20
295.95162134042073
 10
476.20154610401534
 20
297.5247943881979
  0
LWPOLYLINE
  5
137
330
17
100
AcDbEntity
  8
MAP
100
AcDbPolyline
 90
5
 70
0
 10
518.5476146880364
 20
302.74554256978956
 10
522.8029879920254
 20
302.6170602328956
 10
524.9913154481009
 20
301.65903268805994
 10
532.7065357751767
 20
301.561870133763
 10
557.4131844843298
 20
296.36462812562195
  0
LWPOLYLINE
  5
138
330
17
100
AcDbEntity
  8
MAP
100
AcDbPolyline
 90
3
 70
0
 10
518.5476146880364
 20
302.74554256978956
 10
517.3691349734108
 20
287.62401225256014
 10
513.9069496377327
 20
272.5812197428156
  0
LWPOLYLINE
  5
139
330
17
100
AcDbEntity
  8
MAP
100
AcDbPolyline
 90
5
 70
0
 10
687.9318890241209
 20
302.74554256978956
 10
681.5092888256194
 20
295.077366368511
 10
678.7248654690932
 20
289.3450427467074
 10
678.8367810398058
 20
284.2887050972426
 10
684.4513902363932
 20
270.26088721766376
  0
LWPOLYLINE
  5
13A
330
17
100
AcDbEntity
  8
MAP
100
AcDbPolyline
 90
4
 70
0
 10
687.9318890241209
 20
302.74554256978956
 10
689.6890348311998
 20
299.8473045350261
 10
698.7614392421445
 20
290.7812399189996
 10
701.853884175032
 20
289.9837136814544
  0
LWPOLYLINE
  5
13B
330
17
100
AcDbEntity
  8
MAP
100
AcDbPolyline
 90
6
 70
0
 10
761.0223635664039
 20
299.26504378206175
 10
758.1373939881479
 20
291.812274783538
 10
740.6686041936501
 20
266.18658684015344
 10
734.7602630645924
 20
259.1784922482632
 10
731.9188776376492
 20
257.6872114794353
 10
728.5377082142782
 20
257.49905832932865
  0
LWPOLYLINE
  5
13C
330
17
100
AcDbEntity
  8
MAP
100
AcDbPolyline
 90
3
 70
0
 10
952.4497968914308
 20
296.94471125690995
 10
954.4206195577236
 20
298.07858898046527
 10
961.7311269920382
 20
298.10487751948585
  0
LWPOLYLINE
  5
13D
330
17
100
AcDbEntity
  8
MAP
100
AcDbPolyline
 90
4
 70
0
 10
961.7311269920382
 20
298.10487751948585
 10
970.4292947558655
 20
296.86350060963514
 10
971.7140060344212
 20
296.09742927934417
 10
972.1726233552215
 20
294.6243787317581
  0
LWPOLYLINE
  5
13E
330
17
100
AcDbEntity
  8
MAP
100
AcDbPolyline
 90
10
 70
0
 10
476.20154610401534
 20
297.5247943881979
 10
472.5510515537045
 20
290.2665208294897
 10
471.08381497765725
 20
284.83732021785164
 10
470.96032658151466
 20
280.576363714439
 10
469.86100805537285
 20
277.58203069982227
 10
469.77105112232243
 20
269.85749935211805
 10
468.67963112742035
 20
266.8598946587392
 10
468.6125121912059
 20
258.2634820886302
 10
467.5196957023809
 20
255.26645584197396
 10
466.920216003408
 20
244.15714630970555
  0
LWPOLYLINE
  5
13F
330
17
100
AcDbEntity
  8
MAP
100
AcDbPolyline
 90
5
 70
0
 10
557.4131844843298
 20
296.36462812562195
 10
553.4267743116943
 20
289.33370326310467
 10
551.0715610610454
 20
279.8906845083584
 10
550.9688307801756
 20
272.11930176487647
 10
549.8721037775863
 20
269.10072095508787
  0
LWPOLYLINE
  5
140
330
17
100
AcDbEntity
  8
MAP
100
AcDbPolyline
 90
10
 70
0
 10
557.4131844843298
 20
296.36462812562195
 10
569.4573699561727
 20
295.7711855607891
 10
572.4891789911342
 20
294.7140897045869
 10
577.5810851005995
 20
294.442242971991
 10
587.0034257669463
 20
292.0601945571898
 10
604.6263646011066
 20
284.3465504179005
 10
610.1575763044476
 20
283.0411486213326
 10
615.3262333240009
 20
282.95459497679565
 10
618.3503680930862
 20
281.87897180383396
 10
625.2829108450212
 20
281.862549843423
  0
LWPOLYLINE
  5
141
330
17
100
AcDbEntity
  8
MAP
100
AcDbPolyline
 90
6
 70
0
 10
952.4497968914308
 20
296.94471125690995
 10
945.9362027622185
 20
293.8829791431279
 10
942.1605430996394
 20
288.54652353057406
 10
942.1778602445113
 20
280.89801330742966
 10
945.6274250509966
 20
272.81577471833435
 10
947.8091318411272
 20
270.26088721766376
  0
LWPOLYLINE
  5
142
330
17
100
AcDbEntity
  8
MAP
100
AcDbPolyline
 90
5
 70
0
 10
952.4497968914308
 20
296.94471125690995
 10
949.9661360667949
 20
279.769626973846
 10
949.0073770942203
 20
277.566207903196
 10
948.9467487952843
 20
272.39024062370095
 10
947.8091318411272
 20
270.26088721766376
  0
LWPOLYLINE
  5
143
330
17
100
AcDbEntity
  8
MAP
100
AcDbPolyline
 90
4
 70
0
 10
722.7368769013985
 20
294.6243787317581
 10
722.1791424079613
 20
290.6538042666853
 10
713.3108660356131
 20
281.72875372272813
 10
708.8148817504875
 20
278.38205105569523
  0
LWPOLYLINE
  5
144
330
17
100
AcDbEntity
  8
MAP
100
AcDbPolyline
 90
15
 70
0
 10
849.1949995221739
 20
294.6243787317581
 10
849.3324160527759
 20
290.33895249315026
 10
856.0150254382509
 20
279.21147263896773
 10
860.7732101186367
 20
264.68146235460523
 10
860.8309801169138
 20
259.4945762362568
 10
861.9356353943832
 20
256.4782626105096
 10
861.9442241954122
 20
249.54450823520884
 10
859.5522005892893
 20
238.37674797240453
 10
855.8191978748895
 20
229.5013778548188
 10
851.8394629139895
 20
224.20208440342992
 10
830.6405699317254
 20
204.13461004690194
 10
825.0691606703696
 20
196.02073285422065
 10
820.3940381355252
 20
186.66713233778788
 10
817.891335612952
 20
176.41368598910162
 10
817.2904273013361
 20
167.00608984840682
  0
LWPOLYLINE
  5
145
330
17
100
AcDbEntity
  8
MAP
100
AcDbPolyline
 90
2
 70
0
 10
972.1726233552215
 20
294.6243787317581
 10
976.8132884055251
 20
294.6243787317581
  0
LWPOLYLINE
  5
146
330
17
100
AcDbEntity
  8
MAP
100
AcDbPolyline
 90
12
 70
0
 10
972.1726233552215
 20
294.6243787317581
 10
972.0426264810477
 20
286.88602625671246
 10
971.0840171899883
 20
284.6856955782879
 10
970.9832277741872
 20
280.39844450825956
 10
968.795863915616
 20
270.91488169313186
 10
968.5832985402811
 20
264.9423299762909
 10
967.6246892492218
 20
262.7419992978663
 10
966.2951452659087
 20
251.1715160911346
 10
964.1077814073376
 20
241.68795327600702
 10
962.835817325142
 20
229.2278198107128
 10
960.5952607736116
 20
220.63209001302735
 10
960.5709607294623
 20
216.31315600788346
  0
LWPOLYLINE
  5
147
330
17
100
AcDbEntity
  8
MAP
100
AcDbPolyline
 90
19
 70
0
 10
976.8132884055251
 20
294.6243787317581
 10
978.873149621587
 20
295.6081171821564
 10
983.5671878715515
 20
294.45719614730524
 10
994.5088313352085
 20
289.55120885959974
 10
998.1958004752601
 20
285.9705848417749
 10
999.944232477639
 20
282.37021911169603
 10
1000.0000000000001
 20
273.7579020232309
 10
997.7178321804971
 20
263.4592729419665
 10
997.6546337287583
 20
258.29594262377594
 10
996.5563490675144
 20
255.29119504312828
 10
996.4851840882375
 20
250.1311645686889
 10
995.3948659545315
 20
247.12311714429018
 10
992.9768351666753
 20
225.636830403428
 10
991.374234627532
 20
221.11114130778589
 10
988.3839658638319
 20
218.0290375265653
 10
983.6814331371075
 20
214.76527852451204
 10
979.8671854759543
 20
213.533203180879
 10
963.5163546534983
 20
213.4915609524974
 10
960.5709607294623
 20
216.31315600788346
  0
LWPOLYLINE
  5
148
330
17
100
AcDbEntity
  8
MAP
100
AcDbPolyline
 90
17
 70
0
 10
976.8132884055251
 20
294.6243787317581
 10
979.1362357909052
 20
291.39057125899234
 10
986.5361777355309
 20
288.2903968094821
 10
990.1870498924868
 20
284.6458424763707
 10
990.7150456333649
 20
283.1277294453779
 10
990.7138272825478
 20
273.59251159466254
 10
988.5441091612491
 20
264.0703421005927
 10
988.3268138711558
 20
258.0814926597003
 10
987.3678328273116
 20
255.87349157250966
 10
987.1505375372183
 20
249.88464213161723
 10
986.1915564933743
 20
247.67664104442647
 10
983.734504828448
 20
226.98418482074393
 10
982.0371767410013
 20
223.345201065012
 10
977.6500477610491
 20
219.35704597892925
 10
973.819509850496
 20
218.12217052998008
 10
968.6452468077388
 20
218.0348121145421
 10
960.5709607294623
 20
216.31315600788346
  0
LWPOLYLINE
  5
149
330
17
100
AcDbEntity
  8
MAP
100
AcDbPolyline
 90
3
 70
0
 10
701.853884175032
 20
289.9837136814544
 10
702.0320892543723
 20
286.6492928235753
 10
708.8148817504875
 20
278.38205105569523
  0
LWPOLYLINE
  5
14A
330
17
100
AcDbEntity
  8
MAP
100
AcDbPolyline
 90
13
 70
0
 10
368.8861668157427
 20
288.8235474188785
 10
367.86324380618555
 20
286.65487508493425
 10
364.482238745362
 20
284.40201153345987
 10
360.8025596539379
 20
279.88587580773543
 10
360.7429816737286
 20
274.72430541816965
 10
359.6065042046147
 20
270.873176135052
 10
359.8401458132319
 20
245.90446779948564
 10
361.7078107297318
 20
241.49183154088118
 10
364.7607106444471
 20
238.4533494149527
 10
367.590346679229
 20
236.93755429480802
 10
374.3173180560771
 20
236.4836182027005
 10
376.5134574265723
 20
235.5252120468902
 10
385.12849449180555
 20
235.45589934038614
  0
LWPOLYLINE
  5
14B
330
17
100
AcDbEntity
  8
MAP
100
AcDbPolyline
 90
5
 70
0
 10
625.2829108450212
 20
281.862549843423
 10
644.2788406146697
 20
281.80610305802145
 10
655.6726099971905
 20
278.0062696743271
 10
672.3752101534471
 20
270.32611370304784
 10
684.4513902363932
 20
270.26088721766376
  0
LWPOLYLINE
  5
14C
330
17
100
AcDbEntity
  8
MAP
100
AcDbPolyline
 90
7
 70
0
 10
625.2829108450212
 20
281.862549843423
 10
624.1887505947245
 20
278.8612305135744
 10
624.1056962855105
 20
270.25929437253734
 10
623.026891461664
 20
267.25161461679704
 10
622.9460102914747
 20
255.19424298717192
 10
621.8701109400572
 20
252.1853597453466
 10
621.8024120572934
 20
243.57706317841757
  0
LWPOLYLINE
  5
14D
330
17
100
AcDbEntity
  8
MAP
100
AcDbPolyline
 90
4
 70
0
 10
708.8148817504875
 20
278.38205105569523
 10
698.1525021868373
 20
272.74526452506035
 10
691.3057296750367
 20
270.44800685331205
 10
684.4513902363932
 20
270.26088721766376
  0
LWPOLYLINE
  5
14E
330
17
100
AcDbEntity
  8
MAP
100
AcDbPolyline
 90
4
 70
0
 10
708.8148817504875
 20
278.38205105569523
 10
721.1654025584371
 20
262.57912868495333
 10
724.8559268325338
 20
259.0277818440486
 10
728.5377082142782
 20
257.49905832932865
  0
LWPOLYLINE
  5
14F
330
17
100
AcDbEntity
  8
MAP
100
AcDbPolyline
 90
6
 70
0
 10
513.9069496377327
 20
272.5812197428156
 10
510.2547214306545
 20
271.0746416147836
 10
506.1029686824654
 20
266.9098978978462
 10
499.0248841564901
 20
249.3156246618063
 10
498.54727381993746
 20
243.52667472005865
 10
496.50445569909397
 20
240.09656439068982
  0
LWPOLYLINE
  5
150
330
17
100
AcDbEntity
  8
MAP
100
AcDbPolyline
 90
5
 70
0
 10
513.9069496377327
 20
272.5812197428156
 10
526.0522609517747
 20
272.4999703017674
 10
536.4755285262153
 20
270.3615269906205
 10
544.2538622622428
 20
270.2383984593838
 10
549.8721037775863
 20
269.10072095508787
  0
LWPOLYLINE
  5
151
330
17
100
AcDbEntity
  8
MAP
100
AcDbPolyline
 90
3
 70
0
 10
684.4513902363932
 20
270.26088721766376
 10
685.4226182011131
 20
269.03280598566863
 10
686.771722761545
 20
259.8193908544805
  0
LWPOLYLINE
  5
152
330
17
100
AcDbEntity
  8
MAP
100
AcDbPolyline
 90
7
 70
0
 10
947.8091318411272
 20
270.26088721766376
 10
947.7866225017511
 20
264.25506472094725
 10
946.6754747491616
 20
261.278090806804
 10
946.5839208252075
 20
257.0194807049613
 10
945.6262370617434
 20
254.8382465209529
 10
943.1000362965107
 20
236.12058143655824
 10
942.0083005282476
 20
233.1355668152343
  0
LWPOLYLINE
  5
153
330
17
100
AcDbEntity
  8
MAP
100
AcDbPolyline
 90
15
 70
0
 10
549.8721037775863
 20
269.10072095508787
 10
549.8956531137236
 20
263.065152968475
 10
552.3411494938862
 20
251.98746585382128
 10
554.2774964040128
 20
248.47143954757948
 10
560.46896358982
 20
242.59546952526787
 10
567.2994110671115
 20
240.32101491425283
 10
572.3635318663746
 20
240.03714166415023
 10
574.5574442209083
 20
239.0788434425336
 10
583.132048488994
 20
238.94259750633174
 10
586.9793995087448
 20
240.0790557995557
 10
593.8750141753236
 20
240.1112258375081
 10
596.8886107532707
 20
241.17558835096054
 10
602.8475251171575
 20
241.38419590268774
 10
605.0414374716912
 20
242.34249412430432
 10
621.8024120572934
 20
243.57706317841757
  0
LWPOLYLINE
  5
154
330
17
100
AcDbEntity
  8
MAP
100
AcDbPolyline
 90
5
 70
0
 10
686.771722761545
 20
259.8193908544805
 10
690.053159450759
 20
259.6555344147737
 10
691.3690943116263
 20
257.89974908295176
 10
690.9036222485562
 20
254.79418614463518
 10
687.9318890241209
 20
254.01855954160087
  0
LWPOLYLINE
  5
155
330
17
100
AcDbEntity
  8
MAP
100
AcDbPolyline
 90
2
 70
0
 10
686.771722761545
 20
259.8193908544805
 10
687.9318890241209
 20
254.01855954160087
  0
LWPOLYLINE
  5
156
330
17
100
AcDbEntity
  8
MAP
100
AcDbPolyline
 90
7
 70
0
 10
728.5377082142782
 20
257.49905832932865
 10
728.3519301123868
 20
254.1378724018492
 10
725.1273152607571
 20
249.4568112173308
 10
719.2568256309095
 20
244.9659886171104
 10
714.9683811169891
 20
242.8686113935961
 10
698.5380735680241
 20
238.95778925550184
 10
689.0920552866968
 20
238.9363981281139
  0
LWPOLYLINE
  5
157
330
17
100
AcDbEntity
  8
MAP
100
AcDbPolyline
 90
2
 70
0
 10
687.9318890241209
 20
254.01855954160087
 10
689.0920552866968
 20
238.9363981281139
  0
LWPOLYLINE
  5
158
330
17
100
AcDbEntity
  8
MAP
100
AcDbPolyline
 90
2
 70
0
 10
451.25797145863305
 20
244.7372294409935
 10
466.920216003408
 20
244.15714630970555
  0
LWPOLYLINE
  5
159
330
17
100
AcDbEntity
  8
MAP
100
AcDbPolyline
 90
2
 70
0
 10
466.920216003408
 20
244.15714630970555
 10
466.34013287212
 20
225.01440297720285
  0
LWPOLYLINE
  5
15A
330
17
100
AcDbEntity
  8
MAP
100
AcDbPolyline
 90
5
 70
0
 10
466.920216003408
 20
244.15714630970555
 10
475.0275215460778
 20
242.50752649613253
 10
482.7608559897911
 20
242.39483930241101
 10
491.3483964797902
 20
240.17047502178227
 10
496.50445569909397
 20
240.09656439068982
  0
LWPOLYLINE
  5
15B
330
17
100
AcDbEntity
  8
MAP
100
AcDbPolyline
 90
5
 70
0
 10
621.8024120572934
 20
243.57706317841757
 10
639.5718072654607
 20
242.37327345784112
 10
642.5971613139498
 20
241.27657097034046
 10
651.262115904625
 20
241.19423870463763
 10
654.2870674094193
 20
240.09656439068982
  0
LWPOLYLINE
  5
15C
330
17
100
AcDbEntity
  8
MAP
100
AcDbPolyline
 90
20
 70
0
 10
496.50445569909397
 20
240.09656439068982
 10
501.6547845758315
 20
237.87950643536104
 10
505.05640861903134
 20
237.7197237458453
 10
537.1512561196055
 20
229.3902365798204
 10
547.40903926918
 20
224.85261221894436
 10
552.126689317212
 20
221.59097516720294
 10
559.4692019339982
 20
214.2340011619833
 10
566.8533925652978
 20
203.42140026769715
 10
569.9043854149329
 20
200.36305467669476
 10
576.8338463004864
 20
196.16217915477418
 10
583.6852419743672
 20
193.86584493725954
 10
601.8143241618259
 20
193.69966208839878
 10
605.6783129968788
 20
194.83620482383478
 10
613.4704628830013
 20
194.8613574632958
 10
616.5056561372676
 20
195.9057823331259
 10
622.4854075328614
 20
196.12043719449474
 10
640.0981463355876
 20
199.6456870442856
 10
655.6490586641625
 20
203.96261153688036
 10
661.6287367573761
 20
204.1774863053897
 10
665.1152858601279
 20
206.45174277598812
  0
LWPOLYLINE
  5
15D
330
17
100
AcDbEntity
  8
MAP
100
AcDbPolyline
 90
4
 70
0
 10
654.2870674094193
 20
240.09656439068982
 10
658.537508041783
 20
239.96939678285148
 10
661.5555150689029
 20
238.94459905621974
 10
689.0920552866968
 20
238.9363981281139
  0
LWPOLYLINE
  5
15E
330
17
100
AcDbEntity
  8
MAP
100
AcDbPolyline
 90
4
 70
0
 10
654.2870674094193
 20
240.09656439068982
 10
655.5943850562085
 20
234.59232627604652
 10
662.3128121384585
 20
217.51059321586084
 10
665.1152858601279
 20
206.45174277598812
  0
LWPOLYLINE
  5
15F
330
17
100
AcDbEntity
  8
MAP
100
AcDbPolyline
 90
5
 70
0
 10
942.0083005282476
 20
233.1355668152343
 10
938.9954095179199
 20
232.29261606527794
 10
934.0458044594349
 20
223.26079427284358
 10
935.7268323507436
 20
219.72622069514523
 10
939.6879680030956
 20
216.8932391391714
  0
LWPOLYLINE
  5
160
330
17
100
AcDbEntity
  8
MAP
100
AcDbPolyline
 90
3
 70
0
 10
942.0083005282476
 20
233.1355668152343
 10
941.9403549303415
 20
228.00267854023167
 10
939.6879680030956
 20
216.8932391391714
  0
LWPOLYLINE
  5
161
330
17
100
AcDbEntity
  8
MAP
100
AcDbPolyline
 90
7
 70
0
 10
422.25381489423506
 20
230.81523429008246
 10
430.33423168984604
 20
225.27838257756972
 10
439.64482733013864
 20
222.71144531603187
 10
452.59582097275967
 20
222.7161105024771
 10
455.594351904965
 20
223.82525096878635
 10
463.33559516055243
 20
223.91976415909588
 10
466.34013287212
 20
225.01440297720285
  0
LWPOLYLINE
  5
162
330
17
100
AcDbEntity
  8
MAP
100
AcDbPolyline
 90
7
 70
0
 10
493.0239569113662
 20
230.81523429008246
 10
486.7660221137778
 20
225.1282402801145
 10
481.20567657187615
 20
224.03774161080932
 10
476.58588282167386
 20
224.9919505250394
 10
472.7498487500699
 20
223.85563550514811
 10
468.4530659470647
 20
223.87693179429954
 10
466.34013287212
 20
225.01440297720285
  0
LWPOLYLINE
  5
163
330
17
100
AcDbEntity
  8
MAP
100
AcDbPolyline
 90
6
 70
0
 10
939.6879680030956
 20
216.8932391391714
 10
940.9706626033789
 20
215.9134055089777
 10
945.9334147583792
 20
215.6792821863522
 10
948.8571505514576
 20
214.5919051845457
 10
958.9061539922703
 20
214.69535833313927
 10
960.5709607294623
 20
216.31315600788346
  0
LWPOLYLINE
  5
164
330
17
100
AcDbEntity
  8
MAP
100
AcDbPolyline
 90
15
 70
0
 10
939.6879680030956
 20
216.8932391391714
 10
937.208394241274
 20
209.01871329110352
 10
931.0672506715581
 20
196.78109351223276
 10
927.5846511993208
 20
192.1371891437412
 10
918.4320857815384
 20
182.90062907467228
 10
913.1243267491759
 20
178.9215770523955
 10
903.7634116276674
 20
174.23201201594054
 10
885.7586128085857
 20
169.41923340372506
 10
879.7629894715194
 20
169.19997219793783
 10
876.7098450856071
 20
168.17435685028315
 10
867.1849604806496
 20
168.0789281305904
 10
864.1457223616397
 20
167.0197400847775
 10
845.0242700236552
 20
167.0019410253705
 10
839.4166594176277
 20
165.8459342219366
 10
817.2904273013361
 20
167.00608984840682
  0
LWPOLYLINE
  5
165
330
17
100
AcDbEntity
  8
MAP
100
AcDbPolyline
 90
6
 70
0
 10
665.1152858601279
 20
206.45174277598812
 10
668.1315467310296
 20
198.8630524751034
 10
668.3414297701929
 20
192.89974320278228
 10
673.1682241430698
 20
178.476971494894
 10
683.4512476035047
 20
156.80671495874358
 10
685.6115564989691
 20
154.2442609600717
  0
LWPOLYLINE
  5
166
330
17
100
AcDbEntity
  8
MAP
100
AcDbPolyline
 90
5
 70
0
 10
799.3078502314092
 20
167.00608984840682
 10
781.9944665481797
 20
166.81520880174574
 10
773.8633211533681
 20
163.35153258162208
 10
764.7318892425429
 20
158.10385296018876
 10
759.28211417254
 20
156.56459348522355
  0
LWPOLYLINE
  5
167
330
17
100
AcDbEntity
  8
MAP
100
AcDbPolyline
 90
2
 70
0
 10
799.3078502314092
 20
167.00608984840682
 10
817.2904273013361
 20
167.00608984840682
  0
LWPOLYLINE
  5
168
330
17
100
AcDbEntity
  8
MAP
100
AcDbPolyline
 90
5
 70
0
 10
799.3078502314092
 20
167.00608984840682
 10
798.1549469225913
 20
163.18762944627946
 10
798.0998313274126
 20
146.8856264360708
 10
794.9887523204602
 20
143.09671008154876
 10
766.8231948792835
 20
142.6425983343125
  0
LWPOLYLINE
  5
169
330
17
100
AcDbEntity
  8
MAP
100
AcDbPolyline
 90
11
 70
0
 10
817.2904273013361
 20
167.00608984840682
 10
816.7002525709619
 20
149.85213113428344
 10
815.6633537626275
 20
146.8226131149209
 10
815.3949008151535
 20
141.7452866137489
 10
811.8620241936108
 20
131.10209753454157
 10
802.2743140793139
 20
117.79719871998438
 10
794.824876288977
 20
112.8170261456042
 10
782.9730676446102
 20
108.0266141209523
 10
747.111452148854
 20
96.48228561635088
 10
742.0465929241453
 20
96.183734000953
 10
734.3385395271578
 20
93.91561530612383
  0
LWPOLYLINE
  5
16A
330
17
100
AcDbEntity
  8
MAP
100
AcDbPolyline
 90
11
 70
0
 10
690.2522215492728
 20
161.20525853552724
 10
700.0579697286646
 20
164.58681220777933
 10
706.8931740015444
 20
164.63728442442738
 10
720.4893822324793
 20
157.91991516263352
 10
727.2987243313619
 20
157.73945915848537
 10
736.6031425255028
 20
160.25019787141972
 10
748.5233772141843
 20
166.85145997123007
 10
752.764079871811
 20
166.99301855094234
 10
754.3215712700936
 20
166.590870190086
 10
757.2555512300911
 20
163.5868030436171
 10
759.28211417254
 20
156.56459348522355
  0
LWPOLYLINE
  5
16B
330
17
100
AcDbEntity
  8
MAP
100
AcDbPolyline
 90
7
 70
0
 10
759.28211417254
 20
156.56459348522355
 10
755.4144709143567
 20
155.42707759649727
 10
751.1248669513817
 20
155.30826496406794
 10
743.4983996433749
 20
152.77052037794593
 10
729.6714163620305
 20
146.3474466936708
 10
724.1603921386235
 20
144.9874703405119
 10
718.0962118510948
 20
144.96293085946434
  0
LWPOLYLINE
  5
16C
330
17
100
AcDbEntity
  8
MAP
100
AcDbPolyline
 90
3
 70
0
 10
759.28211417254
 20
156.56459348522355
 10
764.0324311295682
 20
149.9577630427491
 10
766.8231948792835
 20
142.6425983343125
  0
LWPOLYLINE
  5
16D
330
17
100
AcDbEntity
  8
MAP
100
AcDbPolyline
 90
6
 70
0
 10
685.6115564989691
 20
154.2442609600717
 10
691.5361649015447
 20
153.92982664719818
 10
700.6247953088285
 20
148.724556366778
 10
708.2335085495233
 20
146.2111803930702
 10
715.9724516636535
 20
146.10049815990362
 10
718.0962118510948
 20
144.96293085946434
  0
LWPOLYLINE
  5
16E
330
17
100
AcDbEntity
  8
MAP
100
AcDbPolyline
 90
6
 70
0
 10
685.6115564989691
 20
154.2442609600717
 10
685.8023817995238
 20
150.85155639454337
 10
694.6323768162842
 20
131.07476788300508
 10
700.3720349212306
 20
116.09347714814929
 10
700.8344148237171
 20
112.81325418166593
 10
704.1742167001838
 20
105.51727793188304
  0
LWPOLYLINE
  5
16F
330
17
100
AcDbEntity
  8
MAP
100
AcDbPolyline
 90
5
 70
0
 10
674.0098938732099
 20
153.08409469749577
 10
669.3492184131717
 20
151.939919124857
 10
664.7090161260314
 20
152.69522889295672
 10
662.605882576572
 20
151.94601557171666
 10
640.3650722585081
 20
151.92392843491987
  0
LWPOLYLINE
  5
170
330
17
100
AcDbEntity
  8
MAP
100
AcDbPolyline
 90
9
 70
0
 10
640.3650722585081
 20
151.92392843491987
 10
633.8559423554673
 20
159.5926458915511
 10
631.0620489973404
 20
161.1888457572001
 10
592.6320830083695
 20
153.90444106514397
 10
589.8073272461845
 20
152.3827234582011
 10
583.5903120758267
 20
145.4744757991654
 10
583.6528411204199
 20
139.51479598882182
 10
586.0976335535415
 20
131.03171475123517
 10
589.3177567051677
 20
128.72060318340144
  0
LWPOLYLINE
  5
171
330
17
100
AcDbEntity
  8
MAP
100
AcDbPolyline
 90
3
 70
0
 10
640.3650722585081
 20
151.92392843491987
 10
638.066197691852
 20
148.63185489289552
 10
638.0447397333563
 20
133.36126823370512
  0
LWPOLYLINE
  5
172
330
17
100
AcDbEntity
  8
MAP
100
AcDbPolyline
 90
5
 70
0
 10
679.8107251860895
 20
150.76376217234395
 10
677.0345236504205
 20
146.85508131140548
 10
669.8587185559549
 20
141.86651560381918
 10
667.1267622157203
 20
136.23250490467072
 10
668.2090625603303
 20
133.36126823370512
  0
LWPOLYLINE
  5
173
330
17
100
AcDbEntity
  8
MAP
100
AcDbPolyline
 90
5
 70
0
 10
718.0962118510948
 20
144.96293085946434
 10
716.5013394946175
 20
142.23539163554628
 10
712.9941155953045
 20
140.43106839022136
 10
709.2432229229818
 20
139.21422695649937
 10
699.5335516498801
 20
138.00193328400883
  0
LWPOLYLINE
  5
174
330
17
100
AcDbEntity
  8
MAP
100
AcDbPolyline
 90
11
 70
0
 10
766.8231948792835
 20
142.6425983343125
 10
763.9799599512103
 20
138.67190842153238
 10
758.2795193622326
 20
135.80117998627463
 10
749.7985667840632
 20
133.40512617329392
 10
745.531512691357
 20
133.31084942208517
 10
740.077141125008
 20
131.9246679733069
 10
729.2013307616564
 20
126.99362701470842
 10
724.3877420131262
 20
122.13887405702296
 10
720.6664975242385
 20
115.0686420057814
 10
714.9933786082087
 20
110.35243781550332
 10
715.775879325943
 20
106.67744419445896
  0
LWPOLYLINE
  5
175
330
17
100
AcDbEntity
  8
MAP
100
AcDbPolyline
 90
3
 70
0
 10
682.1310577112413
 20
141.48243207173658
 10
676.6596131062704
 20
136.13687755099616
 10
668.2090625603303
 20
133.36126823370512
  0
LWPOLYLINE
  5
176
330
17
100
AcDbEntity
  8
MAP
100
AcDbPolyline
 90
7
 70
0
 10
394.4098245924129
 20
140.32226580916065
 10
395.7239272094974
 20
141.3048477897367
 10
398.2149198855053
 20
141.45024592782107
 10
415.22918970655496
 20
136.860336366513
 10
427.24309371550953
 20
136.80427457646007
 10
430.5221977605182
 20
134.36092911431516
 10
431.5351449948424
 20
132.20110197112922
  0
LWPOLYLINE
  5
177
330
17
100
AcDbEntity
  8
MAP
100
AcDbPolyline
 90
14
 70
0
 10
394.4098245924129
 20
140.32226580916065
 10
389.7018923745931
 20
141.46731259008803
 10
379.3504823008356
 20
141.46606495929362
 10
373.3897304399582
 20
139.17525882120296
 10
368.2538079618357
 20
139.26072716190745
 10
365.23364947264076
 20
140.3100866380577
 10
349.69290357950666
 20
140.3201227090985
 10
345.91291948821635
 20
139.02190341064428
 10
341.45019775052265
 20
132.44948362357323
 10
339.9186645983974
 20
127.90163930237594
 10
339.8964481233842
 20
125.33168853120657
 10
342.5596789534616
 20
116.93408776593034
 10
345.550070450552
 20
113.97167346777422
 10
348.0031740893761
 20
113.63844176991448
  0
LWPOLYLINE
  5
178
330
17
100
AcDbEntity
  8
MAP
100
AcDbPolyline
 90
5
 70
0
 10
394.4098245924129
 20
140.32226580916065
 10
395.0133814524196
 20
136.2881743032365
 10
403.0310423098437
 20
128.82412010851476
 10
426.97130547215386
 20
128.73938384365044
 10
431.5351449948424
 20
132.20110197112922
  0
LWPOLYLINE
  5
179
330
17
100
AcDbEntity
  8
MAP
100
AcDbPolyline
 90
8
 70
0
 10
638.0447397333563
 20
133.36126823370512
 10
632.4942408326039
 20
134.49765160939515
 10
622.1820324404457
 20
134.52142257040646
 10
617.4880375120036
 20
133.39389470279832
 10
605.4671842093459
 20
133.34185557772463
 10
599.9859774417758
 20
132.03818619433966
 10
596.1251587100724
 20
128.89919305271903
 10
589.3177567051677
 20
128.72060318340144
  0
LWPOLYLINE
  5
17A
330
17
100
AcDbEntity
  8
MAP
100
AcDbPolyline
 90
2
 70
0
 10
638.0447397333563
 20
133.36126823370512
 10
668.2090625603303
 20
133.36126823370512
  0
LWPOLYLINE
  5
17B
330
17
100
AcDbEntity
  8
MAP
100
AcDbPolyline
 90
5
 70
0
 10
638.0447397333563
 20
133.36126823370512
 10
638.0068791917727
 20
128.34524421453654
 10
636.7006127912347
 20
123.01599337657794
 10
634.153494062912
 20
119.05385238516902
 10
629.9235758953249
 20
117.11894055764225
  0
LWPOLYLINE
  5
17C
330
17
100
AcDbEntity
  8
MAP
100
AcDbPolyline
 90
5
 70
0
 10
668.2090625603303
 20
133.36126823370512
 10
669.1891848863862
 20
132.07527513010723
 10
669.4876752842148
 20
127.97418551519968
 10
670.8204099556752
 20
125.14525423448562
 10
674.0098938732099
 20
122.91977187052184
  0
LWPOLYLINE
  5
17D
330
17
100
AcDbEntity
  8
MAP
100
AcDbPolyline
 90
4
 70
0
 10
686.771722761545
 20
133.36126823370512
 10
681.578556089916
 20
131.6013484409392
 10
674.9939886713875
 20
125.05022971494465
 10
674.0098938732099
 20
122.91977187052184
  0
LWPOLYLINE
  5
17E
330
17
100
AcDbEntity
  8
MAP
100
AcDbPolyline
 90
12
 70
0
 10
431.5351449948424
 20
132.20110197112922
 10
469.64013192571446
 20
132.21318257998138
 10
473.50004985076265
 20
133.34970465425243
 10
480.41546394046617
 20
133.33981705223434
 10
484.0819458600543
 20
131.73629915013024
 10
490.271143179308
 20
125.76796670133668
 10
491.792701881041
 20
125.25925904357919
 10
540.2323588184062
 20
125.10482705848594
 10
543.7721950778284
 20
123.19692416967253
 10
545.1440039505978
 20
121.17901568901515
 10
546.3678775018927
 20
117.35527993044342
 10
546.3916049898586
 20
107.83761045703488
  0
LWPOLYLINE
  5
17F
330
17
100
AcDbEntity
  8
MAP
100
AcDbPolyline
 90
4
 70
0
 10
589.3177567051677
 20
128.72060318340144
 10
589.2031856456458
 20
121.04890514478485
 10
586.0151984707567
 20
114.65025774396939
 10
584.677091654864
 20
103.1969454067312
  0
LWPOLYLINE
  5
180
330
17
100
AcDbEntity
  8
MAP
100
AcDbPolyline
 90
4
 70
0
 10
674.0098938732099
 20
122.91977187052184
 10
674.1923684641943
 20
116.08792963910828
 10
676.5531810948165
 20
106.70467172625222
 10
679.8107251860895
 20
98.55628035642752
  0
LWPOLYLINE
  5
181
330
17
100
AcDbEntity
  8
MAP
100
AcDbPolyline
 90
6
 70
0
 10
609.0405831689583
 20
120.59943934537
 10
614.5828270909234
 20
121.72651152768893
 10
617.430551673364
 20
121.09016648239731
 10
625.6334612044988
 20
121.721762131111
 10
627.6973867498621
 20
120.49367595824425
 10
629.9235758953249
 20
117.11894055764225
  0
LWPOLYLINE
  5
182
330
17
100
AcDbEntity
  8
MAP
100
AcDbPolyline
 90
6
 70
0
 10
629.9235758953249
 20
117.11894055764225
 10
628.2141343882812
 20
114.36849253399242
 10
620.850143444364
 20
109.18921880253818
 10
615.3786872909496
 20
103.64262534915214
 10
614.778513668546
 20
96.93781718478137
 10
613.681248219262
 20
93.91561530612383
  0
LWPOLYLINE
  5
183
330
17
100
AcDbEntity
  8
MAP
100
AcDbPolyline
 90
9
 70
0
 10
348.0031740893761
 20
113.63844176991448
 10
353.11778276052854
 20
115.84921619418151
 10
356.5002883442822
 20
115.91526208282632
 10
360.10843506277837
 20
114.22714736537024
 10
362.5649373683556
 20
111.83850737927014
 10
364.92055496878066
 20
109.36832675368449
 10
369.90950406034653
 20
99.37413428733707
 10
371.13673183016175
 20
95.57508194440726
 10
371.20649934089454
 20
90.43511651839607
  0
LWPOLYLINE
  5
184
330
17
100
AcDbEntity
  8
MAP
100
AcDbPolyline
 90
8
 70
0
 10
348.0031740893761
 20
113.63844176991448
 10
349.1476357562096
 20
108.96224776598892
 10
348.97302514022124
 20
105.61408693239922
 10
342.4806019654373
 20
96.28609705219083
 10
342.23542423552425
 20
91.26481302315358
 10
344.94170198927276
 20
85.51879590837945
 10
349.42124411910464
 20
78.79054445706048
 10
352.6438391396798
 20
76.51312136748503
  0
LWPOLYLINE
  5
185
330
17
100
AcDbEntity
  8
MAP
100
AcDbPolyline
 90
5
 70
0
 10
546.3916049898586
 20
107.83761045703488
 10
542.1358125295378
 20
107.70901077336623
 10
530.2901728539573
 20
103.01734174107432
 10
522.8499311034564
 20
98.09309285042451
 10
518.5476146880364
 20
93.91561530612383
  0
LWPOLYLINE
  5
186
330
17
100
AcDbEntity
  8
MAP
100
AcDbPolyline
 90
2
 70
0
 10
546.3916049898586
 20
107.83761045703488
 10
551.0322700401622
 20
107.83761045703488
  0
LWPOLYLINE
  5
187
330
17
100
AcDbEntity
  8
MAP
100
AcDbPolyline
 90
4
 70
0
 10
551.0322700401622
 20
107.83761045703488
 10
566.5161603532557
 20
107.7886437289236
 10
576.6370385155126
 20
105.20830434204204
 10
577.7160940794084
 20
103.1969454067312
  0
LWPOLYLINE
  5
188
330
17
100
AcDbEntity
  8
MAP
100
AcDbPolyline
 90
8
 70
0
 10
551.0322700401622
 20
107.83761045703488
 10
551.3667918991488
 20
105.38284899215938
 10
553.1038598043493
 20
103.5986827832923
 10
555.9754325988597
 20
102.18354884102405
 10
562.3597893196762
 20
100.90126347743224
 10
573.0993591860782
 20
99.73417919732717
 10
574.6278999229096
 20
100.21782690633295
 10
577.7160940794084
 20
103.1969454067312
  0
LWPOLYLINE
  5
189
330
17
100
AcDbEntity
  8
MAP
100
AcDbPolyline
 90
8
 70
0
 10
798.1476839688333
 20
107.83761045703488
 10
792.4957972113097
 20
99.87865472332358
 10
784.6992525593162
 20
91.94970838601292
 10
780.5937219580406
 20
82.49189445949018
 10
778.9926887560923
 20
80.60604828595528
 10
775.4097688308464
 20
78.8952486819065
 10
766.8585019203869
 20
78.81774520579636
 10
762.1825298289798
 20
77.67328763006094
  0
LWPOLYLINE
  5
18A
330
17
100
AcDbEntity
  8
MAP
100
AcDbPolyline
 90
4
 70
0
 10
704.1742167001838
 20
105.51727793188304
 10
703.2081281472895
 20
104.86538591162876
 10
704.1590216166813
 20
101.97361283121792
 10
704.1742167001838
 20
95.07578156869975
  0
LWPOLYLINE
  5
18B
330
17
100
AcDbEntity
  8
MAP
100
AcDbPolyline
 90
3
 70
0
 10
704.1742167001838
 20
105.51727793188304
 10
709.3056100304258
 20
103.80158514431058
 10
713.4555468007911
 20
99.71644661900343
  0
LWPOLYLINE
  5
18C
330
17
100
AcDbEntity
  8
MAP
100
AcDbPolyline
 90
2
 70
0
 10
697.2132191247283
 20
104.35711166930712
 10
679.8107251860895
 20
98.55628035642752
  0
LWPOLYLINE
  5
18D
330
17
100
AcDbEntity
  8
MAP
100
AcDbPolyline
 90
2
 70
0
 10
577.7160940794084
 20
103.1969454067312
 10
584.677091654864
 20
103.1969454067312
  0
LWPOLYLINE
  5
18E
330
17
100
AcDbEntity
  8
MAP
100
AcDbPolyline
 90
4
 70
0
 10
584.677091654864
 20
103.1969454067312
 10
591.2856120171259
 20
96.70475493112427
 10
596.1713971587599
 20
94.21590279837163
 10
607.8804169063824
 20
93.91561530612383
  0
LWPOLYLINE
  5
18F
330
17
100
AcDbEntity
  8
MAP
100
AcDbPolyline
 90
4
 70
0
 10
713.4555468007911
 20
99.71644661900343
 10
720.2651339093766
 20
97.41729897877354
 10
730.5454971746951
 20
97.2510311441114
 10
734.3385395271578
 20
93.91561530612383
  0
LWPOLYLINE
  5
190
330
17
100
AcDbEntity
  8
MAP
100
AcDbPolyline
 90
3
 70
0
 10
713.4555468007911
 20
99.71644661900343
 10
713.4434260647778
 20
90.40907075022959
 10
712.2953805382152
 20
87.34133981819366
  0
LWPOLYLINE
  5
191
330
17
100
AcDbEntity
  8
MAP
100
AcDbPolyline
 90
5
 70
0
 10
679.8107251860895
 20
98.55628035642752
 10
670.2404244202722
 20
96.24463715730876
 10
644.4729003918987
 20
96.15937545418805
 10
638.746054863422
 20
93.37358555033308
 10
632.2439084204767
 20
85.79445146809239
  0
LWPOLYLINE
  5
192
330
17
100
AcDbEntity
  8
MAP
100
AcDbPolyline
 90
3
 70
0
 10
679.8107251860895
 20
98.55628035642752
 10
683.4386853498492
 20
88.2952963319884
 10
686.771722761545
 20
84.63428520551646
  0
LWPOLYLINE
  5
193
330
17
100
AcDbEntity
  8
MAP
100
AcDbPolyline
 90
4
 70
0
 10
704.1742167001838
 20
95.07578156869975
 10
706.2753992674068
 20
94.11948306946944
 10
710.1970762022773
 20
88.33189214298343
 10
712.2953805382152
 20
87.34133981819366
  0
LWPOLYLINE
  5
194
330
17
100
AcDbEntity
  8
MAP
100
AcDbPolyline
 90
4
 70
0
 10
704.1742167001838
 20
95.07578156869975
 10
701.5202037435694
 20
90.27776066125547
 10
698.7750092906957
 20
87.20246524299613
 10
698.3733853873042
 20
82.31395268036462
  0
LWPOLYLINE
  5
195
330
17
100
AcDbEntity
  8
MAP
100
AcDbPolyline
 90
5
 70
0
 10
518.5476146880364
 20
93.91561530612383
 10
508.1702452543006
 20
93.9003156357611
 10
496.14251296274983
 20
91.60222293481097
 10
471.9263074445617
 20
91.61838413367813
 10
466.34013287212
 20
92.75544904354791
  0
LWPOLYLINE
  5
196
330
17
100
AcDbEntity
  8
MAP
100
AcDbPolyline
 90
11
 70
0
 10
518.5476146880364
 20
93.91561530612383
 10
518.3681923866687
 20
87.09855613859874
 10
517.1972938942124
 20
82.41502632882184
 10
515.5542699239019
 20
80.55443671127311
 10
510.5803047576464
 20
78.00513176666442
 10
502.1313989759927
 20
75.52636356817355
 10
487.18560925774085
 20
74.17485905836357
 10
482.59019445914936
 20
72.79122754052314
 10
477.15913625895155
 20
67.43398125741868
 10
476.6720079767843
 20
60.74437808036395
 10
474.4612967101515
 20
55.63012864111845
  0
LWPOLYLINE
  5
197
330
17
100
AcDbEntity
  8
MAP
100
AcDbPolyline
 90
2
 70
0
 10
607.8804169063824
 20
93.91561530612383
 10
613.681248219262
 20
93.91561530612383
  0
LWPOLYLINE
  5
198
330
17
100
AcDbEntity
  8
MAP
100
AcDbPolyline
 90
17
 70
0
 10
607.8804169063824
 20
93.91561530612383
 10
606.5145440960449
 20
82.37038120131386
 10
604.4553348686056
 20
78.89890595547253
 10
600.0129549259093
 20
75.36217866688993
 10
599.5992851367608
 20
65.15267551616029
 10
597.0245874283354
 20
61.044869457055654
 10
593.0830840220399
 20
60.11912682100659
 10
588.3965708165708
 20
56.814103778418946
 10
562.5696544187844
 20
56.511795119640496
 10
559.7700910565834
 20
54.99180918295396
 10
558.9407842843505
 20
51.03437905511393
 10
556.8042418345186
 20
47.743938248281154
 10
535.4084456692858
 20
45.108977771576164
 10
529.6515445983491
 20
42.29963294744754
 10
526.0301378114767
 20
38.650793632407584
 10
525.3319206970036
 20
33.75109909849821
 10
524.348446000916
 20
32.42680338960004
  0
LWPOLYLINE
  5
199
330
17
100
AcDbEntity
  8
MAP
100
AcDbPolyline
 90
6
 70
0
 10
613.681248219262
 20
93.91561530612383
 10
614.9635440507866
 20
92.9358165774837
 10
620.6803953560618
 20
92.4892624547634
 10
626.1539195351604
 20
87.37972996785284
 10
628.9403434232258
 20
85.96284617824483
 10
632.2439084204767
 20
85.79445146809239
  0
LWPOLYLINE
  5
19A
330
17
100
AcDbEntity
  8
MAP
100
AcDbPolyline
 90
5
 70
0
 10
734.3385395271578
 20
93.91561530612383
 10
732.7705239183309
 20
91.21285863612337
 10
727.2468414429887
 20
88.29262704279647
 10
715.5382885843405
 20
88.10484932231986
 10
712.2953805382152
 20
87.34133981819366
  0
LWPOLYLINE
  5
19B
330
17
100
AcDbEntity
  8
MAP
100
AcDbPolyline
 90
11
 70
0
 10
466.34013287212
 20
92.75544904354791
 10
465.712023772862
 20
96.82357383278519
 10
461.45048263200664
 20
101.10725526244376
 10
455.4388847518447
 20
105.40295017857316
 10
415.66863843693994
 20
105.52384862373233
 10
411.81110019451427
 20
106.66035862035609
 10
394.5109088459073
 20
106.66316179857431
 10
389.5130289680235
 20
104.09992510066958
 10
386.04751249625707
 20
99.47639277263416
 10
381.43625666257617
 20
96.00576870613091
 10
378.16749691635005
 20
90.43511651839607
  0
LWPOLYLINE
  5
19C
330
17
100
AcDbEntity
  8
MAP
100
AcDbPolyline
 90
10
 70
0
 10
466.34013287212
 20
92.75544904354791
 10
461.1739173267252
 20
90.53559813172615
 10
455.17895136716436
 20
90.31652770960633
 10
452.96807158364373
 20
89.35740714733384
 10
442.24504638406535
 20
87.95956842531919
 10
427.75846343626205
 20
83.05444882099515
 10
417.76048213143497
 20
77.8073137881477
 10
413.51487239879305
 20
73.48798957058314
 10
411.3236224769429
 20
69.17931395003303
 10
408.331819743324
 20
66.07162500430174
  0
LWPOLYLINE
  5
19D
330
17
100
AcDbEntity
  8
MAP
100
AcDbPolyline
 90
4
 70
0
 10
371.20649934089454
 20
90.43511651839607
 10
360.4458403174019
 20
87.66469526247835
 10
355.61933457123945
 20
82.93590549999826
 10
352.6438391396798
 20
76.51312136748503
  0
LWPOLYLINE
  5
19E
330
17
100
AcDbEntity
  8
MAP
100
AcDbPolyline
 90
2
 70
0
 10
371.20649934089454
 20
90.43511651839607
 10
378.16749691635005
 20
90.43511651839607
  0
LWPOLYLINE
  5
19F
330
17
100
AcDbEntity
  8
MAP
100
AcDbPolyline
 90
6
 70
0
 10
378.16749691635005
 20
90.43511651839607
 10
381.1535989276165
 20
87.33708059895741
 10
383.3364962576734
 20
83.03936243297363
 10
391.2465512145777
 20
75.05816525994649
 10
398.99073094717403
 20
72.82342431044759
 10
408.331819743324
 20
66.07162500430174
  0
LWPOLYLINE
  5
1A0
330
17
100
AcDbEntity
  8
MAP
100
AcDbPolyline
 90
4
 70
0
 10
712.2953805382152
 20
87.34133981819366
 10
708.8293782987213
 20
83.72671822942799
 10
703.4474438255934
 20
82.36675336558271
 10
698.3733853873042
 20
82.31395268036462
  0
LWPOLYLINE
  5
1A1
330
17
100
AcDbEntity
  8
MAP
100
AcDbPolyline
 90
6
 70
0
 10
632.2439084204767
 20
85.79445146809239
 10
632.5868669130393
 20
83.3287653770682
 10
635.3899670491016
 20
80.14365999761623
 10
637.8876406652944
 20
75.09354011416043
 10
639.3835580646994
 20
69.62847921951949
 10
642.68540478366
 20
64.91145874172582
  0
LWPOLYLINE
  5
1A2
330
17
100
AcDbEntity
  8
MAP
100
AcDbPolyline
 90
6
 70
0
 10
698.3733853873042
 20
82.31395268036462
 10
689.9003365126471
 20
77.80885200084914
 10
672.1119933648284
 20
72.91208175467928
 10
652.5110920678766
 20
66.15100142789632
 10
647.8260002853453
 20
64.98138845656466
 10
642.68540478366
 20
64.91145874172582
  0
LWPOLYLINE
  5
1A3
330
17
100
AcDbEntity
  8
MAP
100
AcDbPolyline
 90
15
 70
0
 10
762.1825298289798
 20
77.67328763006094
 10
761.6850297300551
 20
79.18763568614341
 10
760.325937615094
 20
79.92931492371953
 10
746.5949686259135
 20
82.24139968953982
 10
738.0497106773555
 20
79.83140899241347
 10
725.6026559604658
 20
74.2738483882702
 10
720.884487524479
 20
73.09719382307506
 10
714.1015006352405
 20
72.90000844961271
 10
712.0712926843387
 20
70.87821526075685
 10
696.2128086753212
 20
71.69250873514599
 10
693.2425338587062
 20
67.9333523439357
 10
688.6088269349233
 20
64.45895712299254
 10
664.6971159129159
 20
48.877562879865366
 10
653.6593567105405
 20
44.106768862161566
 10
648.4862360965396
 20
44.02846601535925
  0
LWPOLYLINE
  5
1A4
330
17
100
AcDbEntity
  8
MAP
100
AcDbPolyline
 90
2
 70
0
 10
762.1825298289798
 20
77.67328763006094
 10
758.7020310412521
 20
67.23179126687766
  0
LWPOLYLINE
  5
1A5
330
17
100
AcDbEntity
  8
MAP
100
AcDbPolyline
 90
7
 70
0
 10
352.6438391396798
 20
76.51312136748503
 10
351.50606156283783
 20
58.91460360096599
 10
356.2941432448345
 20
53.15387736079135
 10
363.574573828528
 20
49.93556532161984
 10
378.0931099403096
 20
49.635207408278404
 10
382.8516510745863
 20
46.56696354579146
 10
387.4488270169574
 20
45.18863227793517
  0
LWPOLYLINE
  5
1A6
330
17
100
AcDbEntity
  8
MAP
100
AcDbPolyline
 90
7
 70
0
 10
758.7020310412521
 20
67.23179126687766
 10
751.7982722483866
 20
67.24720571459238
 10
747.5458586614776
 20
69.49289307785943
 10
741.5861451403011
 20
69.40213347967861
 10
725.3334690525122
 20
60.677197164865674
 10
713.2690368270163
 20
56.4381879523827
 10
707.6547154879115
 20
53.30979611596661
  0
LWPOLYLINE
  5
1A7
330
17
100
AcDbEntity
  8
MAP
100
AcDbPolyline
 90
6
 70
0
 10
758.7020310412521
 20
67.23179126687766
 10
759.677620457355
 20
62.69574641515736
 10
758.3804884727429
 20
58.98931834550247
 10
756.7212719128985
 20
57.130639329868245
 10
751.0114198140873
 20
54.52203174571112
 10
745.940202152917
 20
54.46996237854253
  0
LWPOLYLINE
  5
1A8
330
17
100
AcDbEntity
  8
MAP
100
AcDbPolyline
 90
2
 70
0
 10
408.331819743324
 20
66.07162500430174
 10
408.331819743324
 20
57.950461166270294
  0
LWPOLYLINE
  5
1A9
330
17
100
AcDbEntity
  8
MAP
100
AcDbPolyline
 90
3
 70
0
 10
642.68540478366
 20
64.91145874172582
 10
642.8663697976436
 20
58.086927799884634
 10
648.4862360965396
 20
44.02846601535925
  0
LWPOLYLINE
  5
1AA
330
17
100
AcDbEntity
  8
MAP
100
AcDbPolyline
 90
4
 70
0
 10
408.331819743324
 20
57.950461166270294
 10
407.22828438962193
 20
57.32955153528693
 10
404.5667023791884
 20
50.9223706820502
 10
401.3708221678685
 20
46.34879854051109
  0
LWPOLYLINE
  5
1AB
330
17
100
AcDbEntity
  8
MAP
100
AcDbPolyline
 90
6
 70
0
 10
408.331819743324
 20
57.950461166270294
 10
452.2587943188035
 20
57.962864734270795
 10
456.9463690970627
 20
59.096434615319986
 10
461.1892684076205
 20
56.86281441244393
 10
469.76700267109595
 20
56.774923993574085
 10
474.4612967101515
 20
55.63012864111845
  0
LWPOLYLINE
  5
1AC
330
17
100
AcDbEntity
  8
MAP
100
AcDbPolyline
 90
3
 70
0
 10
474.4612967101515
 20
55.63012864111845
 10
476.4333996332273
 20
52.322769686595294
 10
477.94179549787924
 20
46.34879854051109
  0
LWPOLYLINE
  5
1AD
330
17
100
AcDbEntity
  8
MAP
100
AcDbPolyline
 90
6
 70
0
 10
745.940202152917
 20
54.46996237854253
 10
745.4514606158909
 20
55.97500794128787
 10
744.1091191620898
 20
56.72217189033786
 10
734.7219484549033
 20
56.66162945166533
 10
724.1259809547357
 20
53.147775570438064
 10
721.5767106388226
 20
50.98946359081477
  0
LWPOLYLINE
  5
1AE
330
17
100
AcDbEntity
  8
MAP
100
AcDbPolyline
 90
5
 70
0
 10
745.940202152917
 20
54.46996237854253
 10
743.3696180195378
 20
52.308422021802606
 10
730.5658294208974
 20
47.657714508646926
 10
726.7438043990315
 20
46.425549858708806
 10
721.5767106388226
 20
46.34879854051109
  0
LWPOLYLINE
  5
1AF
330
17
100
AcDbEntity
  8
MAP
100
AcDbPolyline
 90
9
 70
0
 10
707.6547154879115
 20
53.30979611596661
 10
705.2233016619884
 20
53.005752153653475
 10
700.2980272603651
 20
50.49058147945544
 10
694.2192218689629
 20
44.58628476880077
 10
691.4262174027413
 20
43.09726157907982
 10
686.456580181827
 20
40.68914536716188
 10
681.4448629773906
 20
40.44060233512796
 10
677.6878134947946
 20
39.22100658571611
 10
675.1700601357858
 20
37.06746843990372
  0
LWPOLYLINE
  5
1B0
330
17
100
AcDbEntity
  8
MAP
100
AcDbPolyline
 90
2
 70
0
 10
707.6547154879115
 20
53.30979611596661
 10
709.9750480130634
 20
48.66913106566293
  0
LWPOLYLINE
  5
1B1
330
17
100
AcDbEntity
  8
MAP
100
AcDbPolyline
 90
4
 70
0
 10
721.5767106388226
 20
50.98946359081477
 10
717.4303079240982
 20
50.89002399898405
 10
713.2577883670314
 20
48.83168778998696
 10
709.9750480130634
 20
48.66913106566293
  0
LWPOLYLINE
  5
1B2
330
17
100
AcDbEntity
  8
MAP
100
AcDbPolyline
 90
2
 70
0
 10
721.5767106388226
 20
50.98946359081477
 10
721.5767106388226
 20
46.34879854051109
  0
LWPOLYLINE
  5
1B3
330
17
100
AcDbEntity
  8
MAP
100
AcDbPolyline
 90
3
 70
0
 10
709.9750480130634
 20
48.66913106566293
 10
700.1579541106037
 20
41.13013875494795
 10
699.5335516498801
 20
37.06746843990372
  0
LWPOLYLINE
  5
1B4
330
17
100
AcDbEntity
  8
MAP
100
AcDbPolyline
 90
3
 70
0
 10
401.3708221678685
 20
46.34879854051109
 10
389.5194725942841
 20
46.32572805418506
 10
387.4488270169574
 20
45.18863227793517
  0
LWPOLYLINE
  5
1B5
330
17
100
AcDbEntity
  8
MAP
100
AcDbPolyline
 90
5
 70
0
 10
401.3708221678685
 20
46.34879854051109
 10
405.8914591627346
 20
42.978400799556134
 10
410.4678399313825
 20
38.117870373542665
 10
411.78467849656084
 20
32.74662131693399
 10
411.81231853105174
 20
24.305639551568596
  0
LWPOLYLINE
  5
1B6
330
17
100
AcDbEntity
  8
MAP
100
AcDbPolyline
 90
5
 70
0
 10
477.94179549787924
 20
46.34879854051109
 10
476.8963260009102
 20
45.6590247075851
 10
474.04059593330123
 20
39.1122962115296
 10
466.49340566858285
 20
27.507107511279738
 10
465.1799666095441
 20
21.985307026416756
  0
LWPOLYLINE
  5
1B7
330
17
100
AcDbEntity
  8
MAP
100
AcDbPolyline
 90
5
 70
0
 10
477.94179549787924
 20
46.34879854051109
 10
488.281306967232
 20
42.009703492439655
 10
497.5303864271718
 20
39.22391325063997
 10
503.7574711193455
 20
35.45586577756343
 10
504.6256195371254
 20
32.42680338960004
  0
LWPOLYLINE
  5
1B8
330
17
100
AcDbEntity
  8
MAP
100
AcDbPolyline
 90
5
 70
0
 10
721.5767106388226
 20
46.34879854051109
 10
720.5123388872574
 20
44.33316252807115
 10
715.5425630321673
 20
41.86725969867913
 10
703.7677085703717
 20
37.19030072439839
 10
699.5335516498801
 20
37.06746843990372
  0
LWPOLYLINE
  5
1B9
330
17
100
AcDbEntity
  8
MAP
100
AcDbPolyline
 90
5
 70
0
 10
387.4488270169574
 20
45.18863227793517
 10
388.2563969418792
 20
42.08586572857103
 10
397.3711683963937
 20
33.00775183889961
 10
407.2182200595538
 20
25.661971228711813
 10
411.81231853105174
 20
24.305639551568596
  0
LWPOLYLINE
  5
1BA
330
17
100
AcDbEntity
  8
MAP
100
AcDbPolyline
 90
3
 70
0
 10
648.4862360965396
 20
44.02846601535925
 10
648.6001422054495
 20
36.35649254518084
 10
650.8065686216914
 20
31.26663712702412
  0
LWPOLYLINE
  5
1BB
330
17
100
AcDbEntity
  8
MAP
100
AcDbPolyline
 90
3
 70
0
 10
675.1700601357858
 20
37.06746843990372
 10
663.7285342999955
 20
35.73209345139428
 10
650.8065686216914
 20
31.26663712702412
  0
LWPOLYLINE
  5
1BC
330
17
100
AcDbEntity
  8
MAP
100
AcDbPolyline
 90
5
 70
0
 10
675.1700601357858
 20
37.06746843990372
 10
680.2193264020548
 20
34.86817289906297
 10
688.2032693652548
 20
33.58696965217596
 10
693.2669518638141
 20
33.695846666516466
 10
699.5335516498801
 20
37.06746843990372
  0
LWPOLYLINE
  5
1BD
330
17
100
AcDbEntity
  8
MAP
100
AcDbPolyline
 90
2
 70
0
 10
504.6256195371254
 20
32.42680338960004
 10
524.348446000916
 20
32.42680338960004
  0
LWPOLYLINE
  5
1BE
330
17
100
AcDbEntity
  8
MAP
100
AcDbPolyline
 90
5
 70
0
 10
504.6256195371254
 20
32.42680338960004
 10
501.1864603185292
 20
30.36969501852949
 10
489.4939461518079
 20
27.51800169877002
 10
473.73926669603804
 20
22.041275072713404
 10
465.1799666095441
 20
21.985307026416756
  0
LWPOLYLINE
  5
1BF
330
17
100
AcDbEntity
  8
MAP
100
AcDbPolyline
 90
12
 70
0
 10
524.348446000916
 20
32.42680338960004
 10
527.8356287703929
 20
30.343227785810107
 10
539.3564380617686
 20
28.750259113626033
 10
553.1098756696246
 20
24.14542837055959
 10
572.1729837905048
 20
13.454993019166029
 10
580.9391176978085
 20
7.312125582887558
 10
592.4696752639251
 20
1.541739511659041
 10
597.9411637624955
 20
0.047749894807374904
 10
608.3140062761994
 20
0.0
 10
612.1524560395746
 20
1.2355420631063072
 10
625.4398250575233
 20
9.066037824990516
 10
632.2439084204767
 20
11.54381066323347
  0
LWPOLYLINE
  5
1C0
330
17
100
AcDbEntity
  8
MAP
100
AcDbPolyline
 90
3
 70
0
 10
650.8065686216914
 20
31.26663712702412
 10
641.1788409912932
 20
24.97707944405453
 10
632.2439084204767
 20
11.54381066323347
  0
LWPOLYLINE
  5
1C1
330
17
100
AcDbEntity
  8
MAP
100
AcDbPolyline
 90
7
 70
0
 10
650.8065686216914
 20
31.26663712702412
 10
651.7901033402565
 20
29.94165562949321
 10
653.1136712989503
 20
20.98224231265412
 10
650.3082265912375
 20
13.506393041164541
 10
643.0008120381373
 20
10.415224425890647
 10
634.3690061167126
 20
10.406231489079179
 10
632.2439084204767
 20
11.54381066323347
  0
LWPOLYLINE
  5
1C2
330
17
100
AcDbEntity
  8
MAP
100
AcDbPolyline
 90
6
 70
0
 10
411.81231853105174
 20
24.305639551568596
 10
415.29212066129077
 20
22.22583680930299
 10
422.16695889657615
 20
19.957745685016057
 10
434.984205220796
 20
17.3627932269413
 10
454.9371392971318
 20
17.36747257059036
 10
465.1799666095441
 20
21.985307026416756
  0
ENDSEC
  0
SECTION
  2
OBJECTS
  0
DICTIONARY
  5
A
330
0
100
AcDbDictionary
281
1
  3
ACAD_COLOR
350
B
  3
ACAD_GROUP
350
C
  3
ACAD_LAYOUT
350
D
  3
ACAD_MATERIAL
350
E
  3
ACAD_MLEADERSTYLE
350
F
  3
ACAD_MLINESTYLE
350
10
  3
ACAD_PLOTSETTINGS
350
11
  3
ACAD_PLOTSTYLENAME
350
12
  3
ACAD_SCALELIST
350
14
  3
ACAD_TABLESTYLE
350
15
  3
ACAD_VISUALSTYLE
350
16
  3
EZDXF_META
350
2D
  0
DICTIONARY
  5
B
330
A
100
AcDbDictionary
281
1
  0
DICTIONARY
  5
C
330
A
100
AcDbDictionary
281
1
  0
DICTIONARY
  5
D
330
A
100
AcDbDictionary
281
1
  3
Model
350
1A
  3
Layout1
350
1E
  0
DICTIONARY
  5
E
330
A
100
AcDbDictionary
281
1
  3
ByBlock
350
1F
  3
ByLayer
350
20
  3
Global
350
21
  0
DICTIONARY
  5
F
330
A
100
AcDbDictionary
281
1
  3
Standard
350
2C
  0
DICTIONARY
  5
10
330
A
100
AcDbDictionary
281
1
  3
Standard
350
22
  0
DICTIONARY
  5
11
330
A
100
AcDbDictionary
281
1
  0
ACDBDICTIONARYWDFLT
  5
12
330
A
100
AcDbDictionary
281
1
  3
Normal
350
13
100
AcDbDictionaryWithDefault
340
13
  0
ACDBPLACEHOLDER
  5
13
330
12
  0
DICTIONARY
  5
14
330
A
100
AcDbDictionary
281
1
  0
DICTIONARY
  5
15
330
A
100
AcDbDictionary
281
1
  0
DICTIONARY
  5
16
330
A
100
AcDbDictionary
281
1
  0
LAYOUT
  5
1A
330
D
100
AcDbPlotSettings
  1

  4
A3
  6

 40
7.5
 41
20.0
 42
7.5
 43
20.0
 44
420.0
 45
297.0
 46
0.0
 47
0.0
 48
0.0
 49
0.0
140
0.0
141
0.0
142
1.0
143
1.0
 70
1024
 72
1
 73
0
 74
5
  7

 75
16
 76
0
 77
2
 78
300
147
1.0
148
0.0
149
0.0
100
AcDbLayout
  1
Model
 70
1
 71
0
 10
0.0
 20
0.0
 11
420.0
 21
297.0
 12
0.0
 22
0.0
 32
0.0
 14
1e+20
 24
1e+20
 34
1e+20
 15
-1e+20
 25
-1e+20
 35
-1e+20
146
0.0
 13
0.0
 23
0.0
 33
0.0
 16
1.0
 26
0.0
 36
0.0
 17
0.0
 27
1.0
 37
0.0
 76
1
330
17
  0
LAYOUT
  5
1E
330
D
100
AcDbPlotSettings
  1

  4
A3
  6

 40
7.5
 41
20.0
 42
7.5
 43
20.0
 44
420.0
 45
297.0
 46
0.0
 47
0.0
 48
0.0
 49
0.0
140
0.0
141
0.0
142
1.0
143
1.0
 70
0
 72
1
 73
0
 74
5
  7

 75
16
 76
0
 77
2
 78
300
147
1.0
148
0.0
149
0.0
100
AcDbLayout
  1
Layout1
 70
1
 71
1
 10
0.0
 20
0.0
 11
420.0
 21
297.0
 12
0.0
 22
0.0
 32
0.0
 14
1e+20
 24
1e+20
 34
1e+20
 15
-1e+20
 25
-1e+20
 35
-1e+20
146
0.0
 13
0.0
 23
0.0
 33
0.0
 16
1.0
 26
0.0
 36
0.0
 17
0.0
 27
1.0
 37
0.0
 76
1
330
1B
  0
MATERIAL
  5
1F
102
{ACAD_REACTORS
330
E
102
}
330
E
100
AcDbMaterial
  1
ByBlock
  2

 70
0
 40
1.0
 71
1
 41
1.0
 91
-1023410177
 42
1.0
 72
1
  3

 73
1
 74
1
 75
1
 44
0.5
 73
0
 45
1.0
 46
1.0
 77
1
  4

 78
1
 79
1
170
1
 48
1.0
171
1
  6

172
1
173
1
174
1
140
1.0
141
1.0
175
1
  7

176
1
177
1
178
1
143
1.0
179
1
  8

270
1
271
1
272
1
145
1.0
146
1.0
273
1
  9

274
1
275
1
276
1
 42
1.0
 72
1
  3

 73
1
 74
1
 75
1
 94
63
  0
MATERIAL
  5
20
102
{ACAD_REACTORS
330
E
102
}
330
E
100
AcDbMaterial
  1
ByLayer
  2

 70
0
 40
1.0
 71
1
 41
1.0
 91
-1023410177
 42
1.0
 72
1
  3

 73
1
 74
1
 75
1
 44
0.5
 73
0
 45
1.0
 46
1.0
 77
1
  4

 78
1
 79
1
170
1
 48
1.0
171
1
  6

172
1
173
1
174
1
140
1.0
141
1.0
175
1
  7

176
1
177
1
178
1
143
1.0
179
1
  8

270
1
271
1
272
1
145
1.0
146
1.0
273
1
  9

274
1
275
1
276
1
 42
1.0
 72
1
  3

 73
1
 74
1
 75
1
 94
63
  0
MATERIAL
  5
21
102
{ACAD_REACTORS
330
E
102
}
330
E
100
AcDbMaterial
  1
Global
  2

 70
0
 40
1.0
 71
1
 41
1.0
 91
-1023410177
 42
1.0
 72
1
  3

 73
1
 74
1
 75
1
 44
0.5
 73
0
 45
1.0
 46
1.0
 77
1
  4

 78
1
 79
1
170
1
 48
1.0
171
1
  6

172
1
173
1
174
1
140
1.0
141
1.0
175
1
  7

176
1
177
1
178
1
143
1.0
179
1
  8

270
1
271
1
272
1
145
1.0
146
1.0
273
1
  9

274
1
275
1
276
1
 42
1.0
 72
1
  3

 73
1
 74
1
 75
1
 94
63
  0
MLINESTYLE
  5
22
102
{ACAD_REACTORS
330
10
102
}
330
10
100
AcDbMlineStyle
  2
Standard
 70
0
  3

 62
256
 51
90.0
 52
90.0
 71
2
 49
0.5
 62
256
  6
BYLAYER
 49
-0.5
 62
256
  6
BYLAYER
  0
MLEADERSTYLE
  5
2C
102
{ACAD_REACTORS
330
F
102
}
330
F
100
AcDbMLeaderStyle
179
2
170
2
171
1
172
0
 90
2
 40
0.0
 41
0.0
173
1
 91
-1056964608
 92
-2
290
1
 42
2.0
291
1
 43
8.0
  3
Standard
 44
4.0
300

342
29
174
1
175
1
176
0
178
1
 93
-1056964608
 45
4.0
292
0
297
0
 46
4.0
 94
-1056964608
 47
1.0
 49
1.0
140
1.0
294
1
141
0.0
177
0
142
1.0
295
0
296
0
143
3.75
271
0
272
9
273
9
  0
DICTIONARY
  5
2D
330
A
100
AcDbDictionary
280
1
281
1
  3
CREATED_BY_EZDXF
350
2E
  3
WRITTEN_BY_EZDXF
350
1C5
  0
DICTIONARYVAR
  5
2E
330
2D
100
DictionaryVariables
280
0
  1
1.4.4 @ 2026-09-01T11:45:19.555951+00:00
  0
DICTIONARYVAR
  5
1C5
330
2D
100
DictionaryVariables
280
0
  1
1.4.4 @ 2026-09-01T11:45:19.585799+00:00
  0
ENDSEC
  0
EOF
